{
.appVersion = "895";
copyright = "Copyright (c) 2016 by vernon adams. All rights reserved.";
customParameters = (
{
name = description;
value = "Copyright (c) 2016\012 by vernon adams. All rights reserved.";
},
{
name = openTypeNameUniqueID;
value = "vernonadams: Anton: 2011";
},
{
name = openTypeNameVersion;
value = "Version 2.000";
},
{
name = openTypeOS2CodePageRanges;
value = (
0,
29
);
},
{
name = openTypeOS2FamilyClass;
value = (
0,
0
);
},
{
name = openTypeOS2Panose;
value = (
2,
0,
5,
3,
0,
0,
0,
0,
0,
0
);
},
{
name = openTypeOS2StrikeoutPosition;
value = 512;
},
{
name = openTypeOS2StrikeoutSize;
value = 102;
},
{
name = openTypeOS2SubscriptXOffset;
value = 0;
},
{
name = openTypeOS2SubscriptXSize;
value = 1434;
},
{
name = openTypeOS2SubscriptYOffset;
value = 287;
},
{
name = openTypeOS2SubscriptYSize;
value = 1331;
},
{
name = openTypeOS2SuperscriptXOffset;
value = 0;
},
{
name = openTypeOS2SuperscriptXSize;
value = 1434;
},
{
name = openTypeOS2SuperscriptYOffset;
value = 977;
},
{
name = openTypeOS2SuperscriptYSize;
value = 1331;
},
{
name = vendorID;
value = newt;
},
{
name = postscriptBlueFuzz;
value = 1;
},
{
name = postscriptBlueScale;
value = 0.039625;
},
{
name = postscriptBlueShift;
value = 7;
},
{
name = trademark;
value = "Anton is a trademark of Vernon Adams.";
},
{
name = glyphOrder;
value = (
.notdef,
.null,
CR,
space,
nbspace,
A,
B,
C,
D,
E,
F,
G,
H,
I,
J,
K,
L,
M,
N,
O,
P,
Q,
R,
S,
T,
U,
V,
W,
X,
Y,
Z,
a,
b,
c,
d,
e,
f,
g,
h,
i,
j,
k,
l,
m,
n,
o,
p,
q,
r,
s,
t,
u,
v,
w,
x,
y,
z,
Agrave,
agrave,
Aacute,
aacute,
Acircumflex,
acircumflex,
Atilde,
atilde,
Adieresis,
adieresis,
Amacron,
amacron,
Abreve,
abreve,
Aring,
aring,
Aringacute,
aringacute,
Adotbelow,
adotbelow,
Aogonek,
aogonek,
AE,
ae,
AEacute,
aeacute,
Cacute,
cacute,
Ccircumflex,
ccircumflex,
Ccaron,
ccaron,
Cdotaccent,
cdotaccent,
Ccedilla,
ccedilla,
Dcaron,
dcaron,
Dcroat,
dcroat,
Eth,
eth,
Egrave,
egrave,
Eacute,
eacute,
Ecircumflex,
ecircumflex,
Etilde,
etilde,
Ecaron,

glyphs = (
{
glyphname = A;
lastChange = "2016-07-01 10:18:48 +0000";
layers = (
{
anchors = (
{
name = bottom;
position = "{499, 0}";
},
{
name = ogonek;
position = "{873, 10}";
},
{
name = top;
position = "{485, 1761}";
}
);
layerId = "32DFA59F-C132-4587-B43B-6A11C46F7A16";
paths = (
{
closed = 1;
nodes = (
"32 0 LINE",
"208 1761 LINE",
"759 1761 LINE",
"939 0 LINE",
"623 0 LINE",
"598 265 LINE",
"386 265 LINE",
"364 0 LINE"
);
},
{
closed = 1;
nodes = (
"411 585 LINE",
"571 585 LINE",
"504 1501 LINE",
"468 1501 LINE"
);
}
);
width = 970;
}
);
unicode = 0041;
userData = {
com.typemytype.robofont.layerData = {
};
};
},
{
glyphname = B;
lastChange = "2016-07-01 10:14:26 +0000";
layers = (
{
anchors = (
{
name = bottom;
position = "{486, 0}";
},
{
name = top;
position = "{486, 1761}";
}
);
layerId = "32DFA59F-C132-4587-B43B-6A11C46F7A16";
paths = (
{
closed = 1;
nodes = (
"926 569 CURVE SMOOTH",
"926 226 OFFCURVE",
"849 0 OFFCURVE",
"539 0 CURVE SMOOTH",
"62 0 LINE",
"62 1761 LINE",
"539 1761 LINE SMOOTH",
"795 1761 OFFCURVE",
"906 1646 OFFCURVE",
"906 1359 CURVE SMOOTH",
"906 1281 LINE SMOOTH",
"906 1116 OFFCURVE",
"847 1011 OFFCURVE",
"726 979 CURVE",
"884 939 OFFCURVE",
"926 781 OFFCURVE"
);
},
{
closed = 1;
nodes = (
"578 440 CURVE SMOOTH",
"578 660 LINE SMOOTH",
"578 760 OFFCURVE",
"554 822 OFFCURVE",
"471 822 CURVE SMOOTH",
"406 822 LINE",
"406 312 LINE",
"422 311 OFFCURVE",
"434 310 OFFCURVE",
"441 310 CURVE SMOOTH",
"532 310 OFFCURVE",
"578 354 OFFCURVE"
);
},
{
closed = 1;
nodes = (
"406 1489 LINE",
"406 1097 LINE",
"478 1097 LINE SMOOTH",
"543 1097 OFFCURVE",
"555 1155 OFFCURVE",
"555 1226 CURVE SMOOTH",
"555 1404 LINE SMOOTH",
"555 1461 OFFCURVE",
"530 1489 OFFCURVE",
"480 1489 CURVE SMOOTH"
);
}
);
width = 971;
}
);
unicode = 0042;
userData = {
com.typemytype.robofont.layerData = {
};
};
},
{
glyphname = C;
lastChange = "2016-07-01 10:38:51 +0000";
layers = (
{
anchors = (
{
name = bottom;
position = "{477, 0}";
},
{
name = top;
position = "{485, 1761}";
}
);
layerId = "32DFA59F-C132-4587-B43B-6A11C46F7A16";
paths = (
{
closed = 1;
nodes = (
"403 390 OFFCURVE",
"431 321 OFFCURVE",
"485 321 CURVE SMOOTH",
"545 321 OFFCURVE",
"569 375 OFFCURVE",
"569 454 CURVE SMOOTH",
"569 758 LINE",
"925 758 LINE",
"925 425 LINE SMOOTH",
"925 116 OFFCURVE",
"757 -21 OFFCURVE",
"477 -21 CURVE SMOOTH",
"222 -21 OFFCURVE",
"53 151 OFFCURVE",
"53 436 CURVE SMOOTH",
"53 1254 LINE SMOOTH",
"53 1595 OFFCURVE",
"180 1776 OFFCURVE",
"485 1776 CURVE SMOOTH",
"735 1776 OFFCURVE",
"917 1645 OFFCURVE",
"917 1368 CURVE SMOOTH",
"917 1058 LINE",
"569 1058 LINE",
"569 1261 LINE SMOOTH",
"569 1366 OFFCURVE",
"541 1421 OFFCURVE",
"485 1421 CURVE SMOOTH",
"415 1421 OFFCURVE",
"403 1367 OFFCURVE",
"403 1289 CURVE SMOOTH",
"403 454 LINE SMOOTH"
);
}
);
width = 971;
}
);
unicode = 0043;
userData = {
com.typemytype.robofont.layerData = {
};
};
},
{
glyphname = D;
lastChange = "2016-07-01 10:14:26 +0000";
layers = (
{
anchors = (
{
name = bottom;
position = "{492, 0}";
},
{
name = center;
position = "{492, 881}";
},
{
name = top;
position = "{492, 1761}";
}
);
layerId = "32DFA59F-C132-4587-B43B-6A11C46F7A16";
paths = (
{
closed = 1;
nodes = (
"926 1347 CURVE SMOOTH",
"930 522 LINE SMOOTH",
"930 189 OFFCURVE",
"827 0 OFFCURVE",
"535 0 CURVE SMOOTH",
"62 0 LINE",
"62 1761 LINE",
"547 1761 LINE SMOOTH",
"800 1761 OFFCURVE",
"925 1617 OFFCURVE"
);
},
{
closed = 1;
nodes = (
"578 414 CURVE SMOOTH",
"578 1285 LINE SMOOTH",
"578 1402 OFFCURVE",
"555 1452 OFFCURVE",
"455 1452 CURVE SMOOTH",
"448 1452 OFFCURVE",
"435 1450 OFFCURVE",
"416 1449 CURVE",
"416 321 LINE",
"418 322 OFFCURVE",
"422 322 OFFCURVE",
"428 322 CURVE SMOOTH",
"437 322 OFFCURVE",
"468 320 OFFCURVE",
"477 320 CURVE SMOOTH",
"544 320 OFFCURVE",
"578 351 OFFCURVE"
);
}
);
width = 983;
}
);
unicode = 0044;
userData = {
com.typemytype.robofont.layerData = {
};
};
},
{
glyphname = E;
lastChange = "2016-07-01 10:57:19 +0000";
layers = (
{
anchors = (
{
name = bottom;
position = "{414, 0}";
},
{
name = ogonek;
position = "{789, 0}";
},
{
name = top;
position = "{414, 1761}";
},
{
name = topleft;
position = "{20, 1761}";
}
);
layerId = "32DFA59F-C132-4587-B43B-6A11C46F7A16";
paths = (
{
closed = 1;
nodes = (
"789 343 LINE",
"789 0 LINE",
"62 0 LINE",
"62 1761 LINE",
"766 1761 LINE",
"766 1421 LINE",
"420 1421 LINE",
"420 1077 LINE",
"752 1077 LINE",
"752 746 LINE",
"420 746 LINE",
"420 343 LINE"
);
}
);
width = 827;
}
);
unicode = 0045;
userData = {
com.typemytype.robofont.layerData = {
};
};
},
{
glyphname = F;
lastChange = "2016-07-01 10:14:26 +0000";
layers = (
{
anchors = (
{
name = bottom;
position = "{401, 0}";
},
{
name = top;
position = "{401, 1761}";
}
);
layerId = "32DFA59F-C132-4587-B43B-6A11C46F7A16";
paths = (
{
closed = 1;
nodes = (
"416 798 LINE",
"416 0 LINE",
"62 0 LINE",
"62 1761 LINE",
"766 1761 LINE",
"766 1418 LINE",
"416 1418 LINE",
"416 1137 LINE",
"748 1137 LINE",
"748 798 LINE"
);
}
);
width = 801;
}
);
unicode = 0046;
userData = {
com.typemytype.robofont.layerData = {
};
};
},
{
glyphname = G;
lastChange = "2016-07-01 10:14:26 +0000";
layers = (
{
anchors = (
{
name = bottom;
position = "{491, 0}";
},
{
name = top;
position = "{491, 1761}";
}
);
layerId = "32DFA59F-C132-4587-B43B-6A11C46F7A16";
paths = (
{
closed = 1;
nodes = (
"501 323 CURVE SMOOTH",
"585 323 OFFCURVE",
"589 409 OFFCURVE",
"589 517 CURVE SMOOTH",
"589 721 LINE",
"495 721 LINE",
"495 1025 LINE",
"921 1025 LINE",
"921 0 LINE",
"784 0 LINE",
"724 148 LINE",
"661 36 OFFCURVE",
"565 -21 OFFCURVE",
"434 -21 CURVE SMOOTH",
"180 -21 OFFCURVE",
"53 161 OFFCURVE",
"53 524 CURVE SMOOTH",
"53 1289 LINE SMOOTH",
"53 1614 OFFCURVE",
"201 1776 OFFCURVE",
"489 1776 CURVE SMOOTH",
"844 1776 OFFCURVE",
"925 1561 OFFCURVE",
"925 1168 CURVE",
"589 1168 LINE",
"589 1305 LINE SMOOTH",
"589 1381 OFFCURVE",
"570 1433 OFFCURVE",
"505 1433 CURVE SMOOTH",
"392 1433 OFFCURVE",
"405 1319 OFFCURVE",
"405 1191 CURVE SMOOTH",
"405 509 LINE SMOOTH",
"405 414 OFFCURVE",
"415 323 OFFCURVE"
);
}
);
width = 982;
}
);
unicode = 0047;
userData = {
com.typemytype.robofont.layerData = {
};
};
},
{
glyphname = H;
lastChange = "2016-07-01 10:14:26 +0000";
layers = (
{
anchors = (
{
name = bottom;
position = "{495, 0}";
},
{
name = center;
position = "{495, 881}";
},
{
name = top;
position = "{495, 1761}";
},
{
name = topleft;
position = "{20, 1761}";
}
);
layerId = "32DFA59F-C132-4587-B43B-6A11C46F7A16";
paths = (
{
closed = 1;
nodes = (
"578 0 LINE",
"578 798 LINE",
"412 798 LINE",
"412 0 LINE",
"62 0 LINE",
"62 1761 LINE",
"412 1761 LINE",
"412 1131 LINE",
"578 1131 LINE",
"578 1761 LINE",
"928 1761 LINE",
"928 0 LINE"
);
}
);
width = 990;
}
);
unicode = 0048;
userData = {
com.typemytype.robofont.layerData = {
};
};
},
{
glyphname = I;
lastChange = "2016-07-01 10:14:26 +0000";
layers = (
{
anchors = (
{
name = bottom;
position = "{232, 0}";
},
{
name = ogonek;
position = "{418, 10}";
},
{
name = top;
position = "{232, 1761}";
},
{
name = topleft;
position = "{20, 1761}";
}
);
layerId = "32DFA59F-C132-4587-B43B-6A11C46F7A16";
paths = (
{
closed = 1;
nodes = (
"402 1761 LINE",
"402 0 LINE",
"62 0 LINE",
"62 1761 LINE"
);
}
);
width = 464;
}
);
unicode = 0049;
userData = {
com.typemytype.robofont.layerData = {
};
};
},
{
glyphname = J;
lastChange = "2016-07-01 10:14:26 +0000";
layers = (
{
anchors = (
{
name = bottom;
position = "{478, 0}";
},
{
name = top;
position = "{478, 1761}";
}
);
layerId = "32DFA59F-C132-4587-B43B-6A11C46F7A16";
paths = (
{
closed = 1;
nodes = (
"543 1761 LINE",
"898 1761 LINE",
"898 440 LINE SMOOTH",
"898 160 OFFCURVE",
"719 -21 OFFCURVE",
"468 -21 CURVE SMOOTH",
"229 -21 OFFCURVE",
"38 124 OFFCURVE",
"38 389 CURVE SMOOTH",
"38 830 LINE",
"386 830 LINE",
"386 444 LINE SMOOTH",
"386 382 OFFCURVE",
"409 336 OFFCURVE",
"464 336 CURVE SMOOTH",
"517 336 OFFCURVE",
"543 375 OFFCURVE",
"543 460 CURVE SMOOTH"
);
}
);
width = 955;
}
);
unicode = 004A;
userData = {
com.typemytype.robofont.layerData = {
};
};
},
{
glyphname = K;
lastChange = "2016-07-01 10:14:26 +0000";
layers = (
{
anchors = (
{
name = bottom;
position = "{496, 0}";
},
{
name = top;
position = "{496, 1761}";
}
);
layerId = "32DFA59F-C132-4587-B43B-6A11C46F7A16";
paths = (
{
closed = 1;
nodes = (
"410 1761 LINE",
"410 1055 LINE",
"574 1761 LINE",
"928 1761 LINE",
"731 954 LINE",
"969 0 LINE",
"604 0 LINE",
"412 852 LINE",
"412 0 LINE",
"62 0 LINE",
"62 1761 LINE"
);
}
);
width = 991;
}
);
unicode = 004B;
userData = {
com.typemytype.robofont.layerData = {
};
};
},
{
glyphname = L;
lastChange = "2016-07-01 10:14:26 +0000";
layers = (
{
anchors = (
{
name = bottom;
position = "{399, 0}";
},
{
name = center;
position = "{399, 881}";
},
{
name = top;
position = "{399, 1761}";
},
{
name = topright;
position = "{778, 1761}";
}
);
layerId = "32DFA59F-C132-4587-B43B-6A11C46F7A16";
paths = (
{
closed = 1;
nodes = (
"776 300 LINE",
"776 0 LINE",
"62 0 LINE",
"62 1761 LINE",
"414 1761 LINE",
"414 300 LINE"
);
}
);
width = 798;
}
);
unicode = 004C;
userData = {
com.typemytype.robofont.layerData = {
};
};
},
{
glyphname = M;
lastChange = "2016-07-01 10:14:26 +0000";
layers = (
{
anchors = (
{
name = bottom;
position = "{748, 0}";
},
{
name = top;
position = "{748, 1761}";
}
);
layerId = "32DFA59F-C132-4587-B43B-6A11C46F7A16";
paths = (
{
closed = 1;
nodes = (
"1112 0 LINE",
"1112 1268 LINE",
"910 0 LINE",
"594 0 LINE",
"380 1268 LINE",
"380 0 LINE",
"62 0 LINE",
"62 1761 LINE",
"598 1761 LINE",
"746 687 LINE",
"893 1761 LINE",
"1434 1761 LINE",
"1434 0 LINE"
);
}
);
width = 1496;
}
);
unicode = 004D;
userData = {
com.typemytype.robofont.layerData = {
};
};
},
{
glyphname = N;
lastChange = "2016-07-01 10:14:26 +0000";
layers = (
{
anchors = (
{
name = bottom;
position = "{494, 0}";
},
{
name = top;
position = "{494, 1761}";
}
);
layerId = "32DFA59F-C132-4587-B43B-6A11C46F7A16";
paths = (
{
closed = 1;
nodes = (
"586 917 LINE",
"586 1761 LINE",
"926 1761 LINE",
"926 0 LINE",
"582 0 LINE",
"406 880 LINE",
"406 0 LINE",
"62 0 LINE",
"62 1761 LINE",
"424 1761 LINE"
);
}
);
width = 988;
}
);
unicode = 004E;
userData = {
com.typemytype.robofont.layerData = {
};
};
},
{
glyphname = O;
lastChange = "2016-07-01 12:59:33 +0000";
layers = (
{
anchors = (
{
name = bottom;
position = "{488, 0}";
},
{
name = center;
position = "{488, 881}";
},
{
name = ogonek;
position = "{877, 10}";
},
{
name = top_UC;
position = "{487, 1777}";
},
{
name = topleft;
position = "{20, 1761}";
},
{
name = topright;
position = "{955, 1761}";
}
);
layerId = "32DFA59F-C132-4587-B43B-6A11C46F7A16";
paths = (
{
closed = 1;
nodes = (
"487 -21 CURVE SMOOTH",
"199 -21 OFFCURVE",
"53 162 OFFCURVE",
"53 475 CURVE SMOOTH",
"53 1316 LINE SMOOTH",
"53 1619 OFFCURVE",
"205 1777 OFFCURVE",
"487 1777 CURVE SMOOTH",
"769 1777 OFFCURVE",
"921 1619 OFFCURVE",
"921 1316 CURVE SMOOTH",
"921 475 LINE SMOOTH",
"921 162 OFFCURVE",
"775 -21 OFFCURVE"
);
},
{
closed = 1;
nodes = (
"401 1289 CURVE SMOOTH",
"401 526 LINE SMOOTH",
"401 434 OFFCURVE",
"405 327 OFFCURVE",
"487 327 CURVE SMOOTH",
"564 327 OFFCURVE",
"567 428 OFFCURVE",
"567 513 CURVE SMOOTH",
"567 1230 LINE SMOOTH",
"567 1325 OFFCURVE",
"574 1432 OFFCURVE",
"487 1432 CURVE SMOOTH",
"419 1432 OFFCURVE",
"401 1364 OFFCURVE"
);
}
);
width = 975;
}
);
unicode = 004F;
userData = {
com.typemytype.robofont.layerData = {
};
};
},
{
glyphname = P;
lastChange = "2016-07-01 10:14:26 +0000";
layers = (
{
anchors = (
{
name = bottom;
position = "{476, 0}";
},
{
name = top;
position = "{476, 1761}";
}
);
layerId = "32DFA59F-C132-4587-B43B-6A11C46F7A16";
paths = (
{
closed = 1;
nodes = (
"918 1224 CURVE SMOOTH",
"918 903 OFFCURVE",
"843 697 OFFCURVE",
"551 697 CURVE SMOOTH",
"408 697 LINE",
"408 0 LINE",
"62 0 LINE",
"62 1761 LINE",
"527 1761 LINE SMOOTH",
"819 1761 OFFCURVE",
"918 1557 OFFCURVE"
);
},
{
closed = 1;
nodes = (
"570 1230 CURVE SMOOTH",
"570 1364 OFFCURVE",
"553 1440 OFFCURVE",
"447 1440 CURVE SMOOTH",
"408 1440 LINE",
"408 1013 LINE",
"428 1013 LINE SMOOTH",
"558 1013 OFFCURVE",
"570 1087 OFFCURVE"
);
}
);
width = 951;
}
);
unicode = 0050;
userData = {
com.typemytype.robofont.layerData = {
};
};
},
{
glyphname = Q;
lastChange = "2016-07-01 10:14:26 +0000";
layers = (
{
anchors = (
{
name = bottom;
position = "{506, 0}";
},
{
name = top;
position = "{506, 1761}";
}
);
layerId = "32DFA59F-C132-4587-B43B-6A11C46F7A16";
paths = (
{
closed = 1;
nodes = (
"488 1776 CURVE SMOOTH",
"769 1776 OFFCURVE",
"922 1616 OFFCURVE",
"922 1313 CURVE SMOOTH",
"922 462 LINE SMOOTH",
"922 318 OFFCURVE",
"889 202 OFFCURVE",
"824 119 CURVE",
"975 23 LINE",
"856 -187 LINE",
"576 -8 LINE",
"531 -15 OFFCURVE",
"501 -21 OFFCURVE",
"488 -21 CURVE SMOOTH",
"202 -21 OFFCURVE",
"54 150 OFFCURVE",
"54 462 CURVE SMOOTH",
"54 1313 LINE SMOOTH",
"54 1616 OFFCURVE",
"207 1776 OFFCURVE"
);
},
{
closed = 1;
nodes = (
"402 1285 CURVE SMOOTH",
"402 528 LINE SMOOTH",
"402 436 OFFCURVE",
"406 330 OFFCURVE",
"488 330 CURVE SMOOTH",
"563 330 OFFCURVE",
"568 417 OFFCURVE",
"568 524 CURVE SMOOTH",
"568 1284 LINE SMOOTH",
"568 1359 OFFCURVE",
"554 1429 OFFCURVE",
"486 1429 CURVE SMOOTH",
"417 1429 OFFCURVE",
"402 1361 OFFCURVE"
);
}
);
width = 1011;
}
);
unicode = 0051;
userData = {
com.typemytype.robofont.layerData = {
};
};
},
{
glyphname = R;
lastChange = "2016-07-01 10:14:26 +0000";
layers = (
{
anchors = (
{
name = bottom;
position = "{486, 0}";
},
{
name = top;
position = "{486, 1761}";
}
);
layerId = "32DFA59F-C132-4587-B43B-6A11C46F7A16";
paths = (
{
closed = 1;
nodes = (
"748 918 CURVE",
"858 895 OFFCURVE",
"899 805 OFFCURVE",
"899 666 CURVE SMOOTH",
"899 375 OFFCURVE",
"898 151 OFFCURVE",
"895 0 CURVE",
"551 0 LINE",
"551 689 LINE SMOOTH",
"551 792 OFFCURVE",
"511 803 OFFCURVE",
"418 803 CURVE",
"418 0 LINE",
"62 0 LINE",
"62 1761 LINE",
"602 1761 LINE SMOOTH",
"872 1761 OFFCURVE",
"922 1565 OFFCURVE",
"922 1268 CURVE SMOOTH",
"922 1076 OFFCURVE",
"882 962 OFFCURVE"
);
},
{
closed = 1;
nodes = (
"578 1268 CURVE SMOOTH",
"578 1405 OFFCURVE",
"558 1435 OFFCURVE",
"439 1435 CURVE SMOOTH",
"420 1435 LINE",
"420 1108 LINE",
"508 1108 LINE SMOOTH",
"555 1108 OFFCURVE",
"578 1161 OFFCURVE"
);
}
);
width = 972;
}
);
unicode = 0052;
userData = {
com.typemytype.robofont.layerData = {
};
};
},
{
glyphname = S;
lastChange = "2016-07-01 10:14:26 +0000";
layers = (
{
anchors = (
{
name = bottom;
position = "{473, 0}";
},
{
name = top;
position = "{473, 1761}";
}
);
layerId = "32DFA59F-C132-4587-B43B-6A11C46F7A16";
paths = (
{
closed = 1;
nodes = (
"906 513 CURVE SMOOTH",
"906 182 OFFCURVE",
"798 -21 OFFCURVE",
"496 -21 CURVE SMOOTH",
"174 -21 OFFCURVE",
"42 136 OFFCURVE",
"42 486 CURVE SMOOTH",
"42 658 LINE",
"390 658 LINE",
"390 500 LINE SMOOTH",
"390 387 OFFCURVE",
"418 330 OFFCURVE",
"474 330 CURVE SMOOTH",
"530 330 OFFCURVE",
"558 384 OFFCURVE",
"558 450 CURVE SMOOTH",
"558 632 OFFCURVE",
"472 684 OFFCURVE",
"371 783 CURVE SMOOTH",
"222 928 LINE SMOOTH",
"102 1041 OFFCURVE",
"42 1172 OFFCURVE",
"42 1315 CURVE SMOOTH",
"42 1615 OFFCURVE",
"185 1777 OFFCURVE",
"449 1777 CURVE SMOOTH",
"466 1777 LINE SMOOTH",
"770 1777 OFFCURVE",
"894 1597 OFFCURVE",
"894 1255 CURVE",
"537 1255 LINE",
"535 1361 LINE SMOOTH",
"534 1399 OFFCURVE",
"499 1437 OFFCURVE",
"463 1437 CURVE SMOOTH",
"417 1437 OFFCURVE",
"379 1402 OFFCURVE",
"379 1353 CURVE SMOOTH",
"379 1304 OFFCURVE",
"412 1249 OFFCURVE",
"478 1189 CURVE SMOOTH",
"691 1000 LINE SMOOTH",
"817 888 OFFCURVE",
"906 758 OFFCURVE"
);
}
);
width = 945;
}
);
unicode = 0053;
userData = {
com.typemytype.robofont.layerData = {
};
};
},
{
glyphname = T;
lastChange = "2016-07-01 10:14:26 +0000";
layers = (
{
anchors = (
{
name = bottom;
position = "{406, 0}";
},
{
name = center;
position = "{406, 881}";
},
{
name = top;
position = "{406, 1761}";
}
);
layerId = "32DFA59F-C132-4587-B43B-6A11C46F7A16";
paths = (
{
closed = 1;
nodes = (
"229 1423 LINE",
"20 1423 LINE",
"20 1761 LINE",
"790 1761 LINE",
"790 1423 LINE",
"581 1423 LINE",
"581 0 LINE",
"229 0 LINE"
);
}
);
width = 811;
}
);
unicode = 0054;
userData = {
com.typemytype.robofont.layerData = {
};
};
},
{
glyphname = U;
lastChange = "2016-07-01 10:14:26 +0000";
layers = (
{
anchors = (
{
name = bottom;
position = "{485, 0}";
},
{
name = ogonek;
position = "{873, 10}";
},
{
name = top;
position = "{485, 1761}";
},
{
name = topright;
position = "{913, 1723}";
}
);
layerId = "32DFA59F-C132-4587-B43B-6A11C46F7A16";
paths = (
{
closed = 1;
nodes = (
"913 146 OFFCURVE",
"778 -21 OFFCURVE",
"485 -21 CURVE SMOOTH",
"192 -21 OFFCURVE",
"57 146 OFFCURVE",
"57 466 CURVE SMOOTH",
"57 1761 LINE",
"399 1761 LINE",
"399 492 LINE SMOOTH",
"399 404 OFFCURVE",
"405 315 OFFCURVE",
"485 315 CURVE SMOOTH",
"566 315 OFFCURVE",
"571 403 OFFCURVE",
"571 492 CURVE SMOOTH",
"571 1761 LINE",
"913 1761 LINE",
"913 466 LINE SMOOTH"
);
}
);
width = 970;
}
);
unicode = 0055;
userData = {
com.typemytype.robofont.layerData = {
};
};
},
{
glyphname = V;
lastChange = "2016-07-01 10:14:26 +0000";
layers = (
{
anchors = (
{
name = bottom;
position = "{481, 0}";
},
{
name = top;
position = "{481, 1761}";
}
);
layerId = "32DFA59F-C132-4587-B43B-6A11C46F7A16";
paths = (
{
closed = 1;
nodes = (
"582 1761 LINE",
"937 1761 LINE",
"720 0 LINE",
"240 0 LINE",
"23 1761 LINE",
"378 1761 LINE",
"477 593 LINE"
);
}
);
width = 961;
}
);
unicode = 0056;
userData = {
com.typemytype.robofont.layerData = {
};
};
},
{
glyphname = W;
lastChange = "2016-07-01 10:14:26 +0000";
layers = (
{
anchors = (
{
name = bottom;
position = "{729, 0}";
},
{
name = top;
position = "{729, 1761}";
}
);
layerId = "32DFA59F-C132-4587-B43B-6A11C46F7A16";
paths = (
{
closed = 1;
nodes = (
"27 1761 LINE",
"371 1761 LINE",
"468 649 LINE",
"567 1761 LINE",
"895 1761 LINE",
"989 649 LINE",
"1083 1761 LINE",
"1431 1761 LINE",
"1239 0 LINE",
"817 0 LINE",
"729 847 LINE",
"645 0 LINE",
"216 0 LINE"
);
}
);
width = 1458;
}
);
unicode = 0057;
userData = {
com.typemytype.robofont.layerData = {
};
};
},
{
glyphname = X;
lastChange = "2016-07-01 10:14:26 +0000";
layers = (
{
anchors = (
{
name = bottom;
position = "{496, 0}";
},
{
name = top;
position = "{496, 1761}";
}
);
layerId = "32DFA59F-C132-4587-B43B-6A11C46F7A16";
paths = (
{
closed = 1;
nodes = (
"965 0 LINE",
"609 0 LINE",
"498 688 LINE",
"384 0 LINE",
"27 0 LINE",
"216 933 LINE",
"66 1761 LINE",
"410 1761 LINE",
"501 1156 LINE",
"582 1761 LINE",
"927 1761 LINE",
"777 933 LINE"
);
}
);
width = 991;
}
);
unicode = 0058;
userData = {
com.typemytype.robofont.layerData = {
};
};
},
{
glyphname = Y;
lastChange = "2016-07-01 11:44:06 +0000";
layers = (
{
anchors = (
{
name = bottom;
position = "{457, 0}";
},
{
name = top;
position = "{457, 1761}";
},
{
name = topleft;
position = "{20, 1761}";
}
);
layerId = "32DFA59F-C132-4587-B43B-6A11C46F7A16";
paths = (
{
closed = 1;
nodes = (
"903 1761 LINE",
"623 579 LINE",
"623 0 LINE",
"291 0 LINE",
"291 579 LINE",
"10 1761 LINE",
"359 1761 LINE",
"457 1164 LINE",
"555 1761 LINE"
);
}
);
width = 914;
}
);
unicode = 0059;
userData = {
com.typemytype.robofont.layerData = {
};
};
},
{
glyphname = Z;
lastChange = "2016-07-01 10:14:26 +0000";
layers = (
{
anchors = (
{
name = bottom;
position = "{440, 0}";
},
{
name = top;
position = "{440, 1761}";
}
);
layerId = "32DFA59F-C132-4587-B43B-6A11C46F7A16";
paths = (
{
closed = 1;
nodes = (
"828 338 LINE",
"828 0 LINE",
"32 0 LINE",
"32 334 LINE",
"454 1421 LINE",
"71 1421 LINE",
"71 1761 LINE",
"845 1761 LINE",
"845 1433 LINE",
"415 338 LINE"
);
}
);
width = 879;
}
);
unicode = 005A;
userData = {
com.typemytype.robofont.layerData = {
};
};
},
{
glyphname = a;
lastChange = "2016-07-01 10:34:20 +0000";
layers = (
{
anchors = (
{
name = bottom;
position = "{490, 0}";
},
{
name = ogonek;
position = "{882, 10}";
},
{
name = top;
position = "{503, 1518}";
}
);
layerId = "32DFA59F-C132-4587-B43B-6A11C46F7A16";
paths = (
{
closed = 1;
nodes = (
"344 -18 CURVE SMOOTH",
"94 -18 OFFCURVE",
"40 174 OFFCURVE",
"40 430 CURVE SMOOTH",
"40 839 OFFCURVE",
"226 854 OFFCURVE",
"562 969 CURVE",
"562 972 LINE SMOOTH",
"562 998 OFFCURVE",
"562 1102 OFFCURVE",
"562 1123 CURVE SMOOTH",
"562 1213 OFFCURVE",
"542 1236 OFFCURVE",
"497 1239 CURVE SMOOTH",
"432 1243 OFFCURVE",
"411 1201 OFFCURVE",
"411 1146 CURVE SMOOTH",
"411 1056 LINE",
"63 1056 LINE",
"62 1067 OFFCURVE",
"62 1084 OFFCURVE",
"62 1105 CURVE SMOOTH",
"62 1403 OFFCURVE",
"197 1518 OFFCURVE",
"503 1518 CURVE SMOOTH",
"743 1518 OFFCURVE",
"923 1387 OFFCURVE",
"923 1143 CURVE SMOOTH",
"923 0 LINE",
"567 0 LINE",
"567 178 LINE",
"532 53 OFFCURVE",
"447 -18 OFFCURVE"
);
},
{
closed = 1;
nodes = (
"561 379 CURVE SMOOTH",
"561 797 LINE",
"462 757 OFFCURVE",
"405 705 OFFCURVE",
"405 588 CURVE SMOOTH",
"405 395 LINE SMOOTH",
"405 306 OFFCURVE",
"432 262 OFFCURVE",
"485 262 CURVE SMOOTH",
"543 262 OFFCURVE",
"561 322 OFFCURVE"
);
}
);
width = 980;
}
);
unicode = 0061;
userData = {
com.typemytype.robofont.layerData = {
};
};
},
{
glyphname = b;
lastChange = "2016-07-01 10:14:26 +0000";
layers = (
{
anchors = (
{
name = bottom;
position = "{504, 0}";
},
{
name = top;
position = "{504, 1500}";
}
);
layerId = "32DFA59F-C132-4587-B43B-6A11C46F7A16";
paths = (
{
closed = 1;
nodes = (
"957 1114 CURVE SMOOTH",
"957 391 LINE SMOOTH",
"957 160 OFFCURVE",
"865 -18 OFFCURVE",
"641 -18 CURVE SMOOTH",
"544 -18 OFFCURVE",
"474 41 OFFCURVE",
"430 160 CURVE",
"430 0 LINE",
"62 0 LINE",
"62 1769 LINE",
"430 1769 LINE",
"430 1427 LINE",
"490 1488 OFFCURVE",
"557 1519 OFFCURVE",
"630 1519 CURVE SMOOTH",
"874 1519 OFFCURVE",
"957 1360 OFFCURVE"
);
},
{
closed = 1;
nodes = (
"518 1239 CURVE SMOOTH",
"446 1239 OFFCURVE",
"430 1175 OFFCURVE",
"430 1085 CURVE SMOOTH",
"430 457 LINE SMOOTH",
"430 349 OFFCURVE",
"437 263 OFFCURVE",
"520 263 CURVE SMOOTH",
"599 263 OFFCURVE",
"594 347 OFFCURVE",
"594 457 CURVE SMOOTH",
"594 1081 LINE SMOOTH",
"594 1171 OFFCURVE",
"588 1239 OFFCURVE"
);
}
);
width = 1007;
}
);
unicode = 0062;
userData = {
com.typemytype.robofont.layerData = {
};
};
},
{
glyphname = c;
lastChange = "2016-07-01 10:14:26 +0000";
layers = (
{
anchors = (
{
name = bottom;
position = "{494, 0}";
},
{
name = top;
position = "{494, 1500}";
}
);
layerId = "32DFA59F-C132-4587-B43B-6A11C46F7A16";
paths = (
{
closed = 1;
nodes = (
"511 -18 CURVE SMOOTH",
"175 -18 OFFCURVE",
"48 158 OFFCURVE",
"48 492 CURVE SMOOTH",
"48 954 LINE SMOOTH",
"48 1330 OFFCURVE",
"149 1518 OFFCURVE",
"506 1518 CURVE SMOOTH",
"754 1518 OFFCURVE",
"941 1380 OFFCURVE",
"941 1135 CURVE SMOOTH",
"941 879 LINE",
"576 879 LINE",
"576 1116 LINE SMOOTH",
"576 1185 OFFCURVE",
"563 1239 OFFCURVE",
"496 1239 CURVE SMOOTH",
"437 1239 OFFCURVE",
"408 1197 OFFCURVE",
"408 1114 CURVE SMOOTH",
"408 387 LINE SMOOTH",
"408 326 OFFCURVE",
"433 264 OFFCURVE",
"494 264 CURVE SMOOTH",
"556 264 OFFCURVE",
"578 322 OFFCURVE",
"578 389 CURVE SMOOTH",
"576 614 LINE",
"941 614 LINE",
"941 379 LINE SMOOTH",
"941 130 OFFCURVE",
"761 -18 OFFCURVE"
);
}
);
width = 987;
}
);
unicode = 0063;
userData = {
com.typemytype.robofont.layerData = {
};
};
},
{
glyphname = d;
lastChange = "2016-07-01 10:14:26 +0000";
layers = (
{
anchors = (
{
name = bottom;
position = "{499, 0}";
},
{
name = center;
position = "{499, 750}";
},
{
name = top;
position = "{499, 1500}";
},
{
name = topright;
position = "{936, 1767}";
}
);
layerId = "32DFA59F-C132-4587-B43B-6A11C46F7A16";
paths = (
{
closed = 1;
nodes = (
"355 -18 CURVE SMOOTH",
"78 -18 OFFCURVE",
"48 201 OFFCURVE",
"48 477 CURVE SMOOTH",
"52 1153 LINE SMOOTH",
"52 1357 OFFCURVE",
"156 1518 OFFCURVE",
"361 1518 CURVE SMOOTH",
"456 1518 OFFCURVE",
"529 1485 OFFCURVE",
"578 1419 CURVE",
"578 1767 LINE",
"936 1767 LINE",
"936 0 LINE",
"578 0 LINE",
"578 159 LINE",
"538 51 OFFCURVE",
"480 -18 OFFCURVE"
);
},
{
closed = 1;
nodes = (
"494 1239 CURVE SMOOTH",
"417 1239 OFFCURVE",
"406 1160 OFFCURVE",
"406 1083 CURVE SMOOTH",
"406 452 LINE SMOOTH",
"406 327 OFFCURVE",
"435 264 OFFCURVE",
"492 264 CURVE SMOOTH",
"590 264 OFFCURVE",
"578 422 OFFCURVE",
"578 520 CURVE SMOOTH",
"578 1083 LINE SMOOTH",
"578 1153 OFFCURVE",
"564 1239 OFFCURVE"
);
}
);
width = 998;
}
);
unicode = 0064;
userData = {
com.typemytype.robofont.layerData = {
};
};
},
{
glyphname = e;
lastChange = "2016-07-01 10:14:26 +0000";
layers = (
{
anchors = (
{
name = bottom;
position = "{491, 0}";
},
{
name = ogonek;
position = "{884, 10}";
},
{
name = top;
position = "{491, 1500}";
}
);
layerId = "32DFA59F-C132-4587-B43B-6A11C46F7A16";
paths = (
{
closed = 1;
nodes = (
"575 579 CURVE",
"931 579 LINE",
"931 494 LINE SMOOTH",
"931 157 OFFCURVE",
"821 -18 OFFCURVE",
"481 -18 CURVE SMOOTH",
"160 -18 OFFCURVE",
"49 170 OFFCURVE",
"49 489 CURVE SMOOTH",
"49 1092 LINE SMOOTH",
"49 1371 OFFCURVE",
"219 1518 OFFCURVE",
"499 1518 CURVE SMOOTH",
"787 1518 OFFCURVE",
"931 1376 OFFCURVE",
"931 1092 CURVE SMOOTH",
"931 983 LINE SMOOTH",
"931 848 OFFCURVE",
"930 768 OFFCURVE",
"927 717 CURVE",
"407 717 LINE",
"407 495 OFFCURVE",
"407 439 OFFCURVE",
"407 427 CURVE SMOOTH",
"407 346 OFFCURVE",
"413 260 OFFCURVE",
"493 260 CURVE SMOOTH",
"579 260 OFFCURVE",
"577 395 OFFCURVE",
"577 483 CURVE SMOOTH",
"577 542 OFFCURVE",
"576 574 OFFCURVE"
);
},
{
closed = 1;
nodes = (
"405 1057 CURVE SMOOTH",
"405 1033 OFFCURVE",
"405 919 OFFCURVE",
"405 895 CURVE",
"575 895 LINE",
"575 1087 LINE SMOOTH",
"575 1195 OFFCURVE",
"548 1249 OFFCURVE",
"495 1249 CURVE SMOOTH",
"408 1249 OFFCURVE",
"405 1146 OFFCURVE"
);
}
);
width = 982;
}
);
unicode = 0065;
userData = {
com.typemytype.robofont.layerData = {
};
};
},
{
glyphname = f;
lastChange = "2016-07-01 10:14:26 +0000";
layers = (
{
anchors = (
{
name = bottom;
position = "{287, 0}";
},
{
name = top;
position = "{287, 1500}";
}
);
layerId = "32DFA59F-C132-4587-B43B-6A11C46F7A16";
paths = (
{
closed = 1;
nodes = (
"498 1533 CURVE SMOOTH",
"456 1533 OFFCURVE",
"453 1500 OFFCURVE",
"453 1453 CURVE SMOOTH",
"453 1434 LINE",
"531 1434 LINE",
"531 1157 LINE",
"460 1157 LINE",
"460 0 LINE",
"105 0 LINE",
"105 1161 LINE",
"40 1161 LINE",
"40 1192 OFFCURVE",
"41 1283 OFFCURVE",
"44 1434 CURVE",
"105 1434 LINE",
"105 1536 LINE SMOOTH",
"105 1697 OFFCURVE",
"186 1778 OFFCURVE",
"347 1778 CURVE SMOOTH",
"424 1778 OFFCURVE",
"485 1768 OFFCURVE",
"531 1749 CURVE",
"531 1528 LINE",
"516 1531 OFFCURVE",
"505 1533 OFFCURVE"
);
}
);
width = 574;
}
);
unicode = 0066;
userData = {
com.typemytype.robofont.layerData = {
};
};
},
{
glyphname = g;
lastChange = "2016-07-01 10:14:26 +0000";
layers = (
{
anchors = (
{
name = bottom;
position = "{510, 0}";
},
{
name = top;
position = "{510, 1500}";
}
);
layerId = "32DFA59F-C132-4587-B43B-6A11C46F7A16";
paths = (
{
closed = 1;
nodes = (
"593 1500 LINE",
"958 1500 LINE",
"958 254 LINE SMOOTH",
"958 -86 OFFCURVE",
"807 -220 OFFCURVE",
"470 -220 CURVE SMOOTH",
"262 -220 OFFCURVE",
"157 -194 OFFCURVE",
"40 -96 CURVE",
"161 111 LINE",
"248 59 OFFCURVE",
"336 33 OFFCURVE",
"423 33 CURVE SMOOTH",
"538 33 OFFCURVE",
"593 113 OFFCURVE",
"593 231 CURVE SMOOTH",
"593 314 LINE",
"564 211 OFFCURVE",
"487 160 OFFCURVE",
"364 160 CURVE SMOOTH",
"149 160 OFFCURVE",
"65 328 OFFCURVE",
"65 543 CURVE SMOOTH",
"65 1106 LINE SMOOTH",
"65 1348 OFFCURVE",
"129 1518 OFFCURVE",
"364 1518 CURVE SMOOTH",
"496 1518 OFFCURVE",
"568 1444 OFFCURVE",
"593 1331 CURVE"
);
},
{
closed = 1;
nodes = (
"593 582 CURVE SMOOTH",
"593 1116 LINE SMOOTH",
"593 1171 OFFCURVE",
"560 1243 OFFCURVE",
"505 1243 CURVE SMOOTH",
"436 1243 OFFCURVE",
"427 1183 OFFCURVE",
"427 1116 CURVE SMOOTH",
"427 582 LINE SMOOTH",
"427 510 OFFCURVE",
"435 430 OFFCURVE",
"509 430 CURVE SMOOTH",
"565 430 OFFCURVE",
"593 481 OFFCURVE"
);
}
);
width = 1019;
}
);
unicode = 0067;
userData = {
com.typemytype.robofont.layerData = {
};
};
},
{
glyphname = h;
lastChange = "2016-07-01 10:14:26 +0000";
layers = (
{
anchors = (
{
name = bottom;
position = "{506, 0}";
},
{
name = center;
position = "{506, 750}";
},
{
name = top;
position = "{506, 1500}";
}
);
layerId = "32DFA59F-C132-4587-B43B-6A11C46F7A16";
paths = (
{
closed = 1;
nodes = (
"510 1243 CURVE SMOOTH",
"461 1243 OFFCURVE",
"430 1194 OFFCURVE",
"430 1135 CURVE SMOOTH",
"430 0 LINE",
"62 0 LINE",
"62 1767 LINE",
"430 1767 LINE",
"430 1351 LINE",
"469 1463 OFFCURVE",
"542 1519 OFFCURVE",
"649 1519 CURVE SMOOTH",
"857 1519 OFFCURVE",
"957 1375 OFFCURVE",
"957 1155 CURVE SMOOTH",
"957 0 LINE",
"598 0 LINE",
"598 1034 LINE SMOOTH",
"598 1043 OFFCURVE",
"599 1076 OFFCURVE",
"599 1085 CURVE SMOOTH",
"599 1190 OFFCURVE",
"569 1243 OFFCURVE"
);
}
);
width = 1011;
}
);
unicode = 0068;
userData = {
com.typemytype.robofont.layerData = {
};
};
},
{
glyphname = i;
lastChange = "2016-07-01 10:14:26 +0000";
layers = (
{
anchors = (
{
name = bottom;
position = "{242, 0}";
}
);
layerId = "32DFA59F-C132-4587-B43B-6A11C46F7A16";
paths = (
{
closed = 1;
nodes = (
"421 1500 LINE",
"421 0 LINE",
"63 0 LINE",
"63 1500 LINE"
);
},
{
closed = 1;
nodes = (
"421 1800 LINE",
"421 1600 LINE",
"63 1600 LINE",
"63 1800 LINE"
);
}
);
width = 483;
}
);
unicode = 0069;
userData = {
com.typemytype.robofont.layerData = {
};
};
},
{
glyphname = j;
lastChange = "2016-07-01 04:47:39 +0000";
layers = (
{
layerId = "32DFA59F-C132-4587-B43B-6A11C46F7A16";
paths = (
{
closed = 1;
nodes = (
"67 85 CURVE SMOOTH",
"105 85 OFFCURVE",
"110 115 OFFCURVE",
"110 156 CURVE SMOOTH",
"110 1500 LINE",
"468 1500 LINE",
"468 166 LINE SMOOTH",
"468 -47 OFFCURVE",
"392 -176 OFFCURVE",
"186 -176 CURVE SMOOTH",
"109 -176 OFFCURVE",
"59 -167 OFFCURVE",
"34 -150 CURVE",
"34 90 LINE",
"45 87 OFFCURVE",
"56 85 OFFCURVE"
);
},
{
closed = 1;
nodes = (
"468 1800 LINE",
"468 1600 LINE",
"110 1600 LINE",
"110 1800 LINE"
);
}
);
width = 530;
}
);
unicode = 006A;
userData = {
com.typemytype.robofont.layerData = {
};
};
},
{
glyphname = k;
lastChange = "2016-07-01 10:14:26 +0000";
layers = (
{
anchors = (
{
name = bottom;
position = "{520, 0}";
},
{
name = top;
position = "{520, 1500}";
}
);
layerId = "32DFA59F-C132-4587-B43B-6A11C46F7A16";
paths = (
{
closed = 1;
nodes = (
"416 707 LINE",
"416 0 LINE",
"62 0 LINE",
"62 1769 LINE",
"416 1769 LINE",
"416 983 LINE",
"588 1500 LINE",
"959 1500 LINE",
"734 848 LINE",
"1020 0 LINE",
"639 0 LINE"
);
}
);
width = 1039;
}
);
unicode = 006B;
userData = {
com.typemytype.robofont.layerData = {
};
};
},
{
glyphname = l;
lastChange = "2016-07-01 10:14:26 +0000";
layers = (
{
anchors = (
{
name = bottom;
position = "{244, 0}";
},
{
name = center;
position = "{244, 750}";
},
{
name = top;
position = "{244, 1500}";
},
{
name = topright;
position = "{468, 1500}";
}
);
layerId = "32DFA59F-C132-4587-B43B-6A11C46F7A16";
paths = (
{
closed = 1;
nodes = (
"62 1767 LINE",
"426 1767 LINE",
"426 0 LINE",
"62 0 LINE"
);
}
);
width = 488;
}
);
unicode = 006C;
userData = {
com.typemytype.robofont.layerData = {
};
};
},
{
glyphname = m;
lastChange = "2016-07-01 10:14:26 +0000";
layers = (
{
anchors = (
{
name = bottom;
position = "{766, 0}";
},
{
name = top;
position = "{766, 1500}";
}
);
layerId = "32DFA59F-C132-4587-B43B-6A11C46F7A16";
paths = (
{
closed = 1;
nodes = (
"512 1243 CURVE SMOOTH",
"431 1243 OFFCURVE",
"412 1140 OFFCURVE",
"412 1059 CURVE SMOOTH",
"412 0 LINE",
"62 0 LINE",
"62 1501 LINE",
"412 1501 LINE",
"412 1326 LINE",
"444 1448 OFFCURVE",
"514 1519 OFFCURVE",
"664 1519 CURVE SMOOTH",
"784 1519 OFFCURVE",
"872 1456 OFFCURVE",
"907 1365 CURVE",
"962 1464 OFFCURVE",
"1024 1519 OFFCURVE",
"1162 1519 CURVE SMOOTH",
"1411 1519 OFFCURVE",
"1475 1343 OFFCURVE",
"1475 1096 CURVE",
"1471 0 LINE",
"1110 0 LINE",
"1110 1102 LINE SMOOTH",
"1110 1199 OFFCURVE",
"1086 1247 OFFCURVE",
"1037 1247 CURVE SMOOTH",
"960 1247 OFFCURVE",
"940 1154 OFFCURVE",
"940 1077 CURVE SMOOTH",
"940 0 LINE",
"582 0 LINE",
"582 1102 LINE SMOOTH",
"582 1165 OFFCURVE",
"575 1243 OFFCURVE"
);
}
);
width = 1532;
}
);
unicode = 006D;
userData = {
com.typemytype.robofont.layerData = {
};
};
},
{
glyphname = n;
lastChange = "2016-07-01 10:14:26 +0000";
layers = (
{
anchors = (
{
name = bottom;
position = "{501, 0}";
},
{
name = top;
position = "{501, 1500}";
}
);
layerId = "32DFA59F-C132-4587-B43B-6A11C46F7A16";
paths = (
{
closed = 1;
nodes = (
"510 1239 CURVE SMOOTH",
"427 1239 OFFCURVE",
"420 1138 OFFCURVE",
"420 1055 CURVE SMOOTH",
"420 0 LINE",
"62 0 LINE",
"62 1501 LINE",
"420 1501 LINE",
"420 1309 LINE",
"446 1423 OFFCURVE",
"517 1518 OFFCURVE",
"646 1518 CURVE SMOOTH",
"854 1518 OFFCURVE",
"943 1379 OFFCURVE",
"943 1157 CURVE SMOOTH",
"943 0 LINE",
"590 0 LINE",
"590 1120 LINE SMOOTH",
"590 1179 OFFCURVE",
"568 1239 OFFCURVE"
);
}
);
width = 1002;
}
);
unicode = 006E;
userData = {
com.typemytype.robofont.layerData = {
};
};
},
{
glyphname = o;
lastChange = "2016-07-01 11:46:23 +0000";
layers = (
{
anchors = (
{
name = bottom;
position = "{498, 0}";
},
{
name = center;
position = "{498, 750}";
},
{
name = ogonek;
position = "{895, 10}";
},
{
name = top;
position = "{498, 1500}";
},
{
name = topright;
position = "{888, 1334}";
}
);
layerId = "32DFA59F-C132-4587-B43B-6A11C46F7A16";
paths = (
{
closed = 1;
nodes = (
"945 1051 CURVE SMOOTH",
"945 449 LINE SMOOTH",
"945 143 OFFCURVE",
"797 -18 OFFCURVE",
"496 -18 CURVE SMOOTH",
"197 -18 OFFCURVE",
"48 138 OFFCURVE",
"48 449 CURVE SMOOTH",
"48 1051 LINE SMOOTH",
"48 1333 OFFCURVE",
"216 1518 OFFCURVE",
"496 1518 CURVE SMOOTH",
"777 1518 OFFCURVE",
"945 1334 OFFCURVE"
);
},
{
closed = 1;
nodes = (
"496 260 CURVE SMOOTH",
"556 260 OFFCURVE",
"580 308 OFFCURVE",
"580 375 CURVE SMOOTH",
"580 1108 LINE SMOOTH",
"580 1195 OFFCURVE",
"552 1239 OFFCURVE",
"496 1239 CURVE SMOOTH",
"440 1239 OFFCURVE",
"412 1195 OFFCURVE",
"412 1108 CURVE SMOOTH",
"412 375 LINE SMOOTH",
"412 308 OFFCURVE",
"436 260 OFFCURVE"
);
}
);
width = 995;
}
);
unicode = 006F;
userData = {
com.typemytype.robofont.layerData = {
};
};
},
{
glyphname = p;
lastChange = "2016-07-01 10:14:26 +0000";
layers = (
{
anchors = (
{
name = bottom;
position = "{503, 0}";
},
{
name = top;
position = "{503, 1500}";
}
);
layerId = "32DFA59F-C132-4587-B43B-6A11C46F7A16";
paths = (
{
closed = 1;
nodes = (
"953 1075 CURVE SMOOTH",
"953 521 LINE SMOOTH",
"953 225 OFFCURVE",
"927 -18 OFFCURVE",
"631 -18 CURVE SMOOTH",
"541 -18 OFFCURVE",
"473 8 OFFCURVE",
"426 59 CURVE",
"426 -300 LINE",
"62 -300 LINE",
"62 1500 LINE",
"426 1500 LINE",
"426 1419 LINE",
"480 1485 OFFCURVE",
"552 1518 OFFCURVE",
"641 1518 CURVE SMOOTH",
"889 1518 OFFCURVE",
"953 1323 OFFCURVE"
);
},
{
closed = 1;
nodes = (
"590 438 CURVE SMOOTH",
"590 1075 LINE SMOOTH",
"590 1152 OFFCURVE",
"587 1235 OFFCURVE",
"510 1235 CURVE SMOOTH",
"454 1235 OFFCURVE",
"426 1183 OFFCURVE",
"426 1079 CURVE SMOOTH",
"426 422 LINE SMOOTH",
"426 336 OFFCURVE",
"437 262 OFFCURVE",
"512 262 CURVE SMOOTH",
"585 262 OFFCURVE",
"590 346 OFFCURVE"
);
}
);
width = 1006;
}
);
unicode = 0070;
userData = {
com.typemytype.robofont.layerData = {
};
};
},
{
glyphname = q;
lastChange = "2016-07-01 10:14:26 +0000";
layers = (
{
anchors = (
{
name = bottom;
position = "{503, 0}";
},
{
name = top;
position = "{503, 1500}";
}
);
layerId = "32DFA59F-C132-4587-B43B-6A11C46F7A16";
paths = (
{
closed = 1;
nodes = (
"53 482 CURVE SMOOTH",
"53 1075 LINE SMOOTH",
"53 1322 OFFCURVE",
"117 1518 OFFCURVE",
"364 1518 CURVE SMOOTH",
"454 1518 OFFCURVE",
"526 1485 OFFCURVE",
"579 1419 CURVE",
"579 1500 LINE",
"944 1500 LINE",
"944 -300 LINE",
"579 -300 LINE",
"579 90 LINE",
"536 32 OFFCURVE",
"466 -18 OFFCURVE",
"374 -18 CURVE SMOOTH",
"82 -18 OFFCURVE",
"53 191 OFFCURVE"
);
},
{
closed = 1;
nodes = (
"493 262 CURVE SMOOTH",
"569 262 OFFCURVE",
"579 335 OFFCURVE",
"579 422 CURVE SMOOTH",
"579 1079 LINE SMOOTH",
"579 1183 OFFCURVE",
"551 1235 OFFCURVE",
"495 1235 CURVE SMOOTH",
"418 1235 OFFCURVE",
"415 1152 OFFCURVE",
"415 1075 CURVE SMOOTH",
"415 438 LINE SMOOTH",
"415 346 OFFCURVE",
"420 262 OFFCURVE"
);
}
);
width = 1006;
}
);
unicode = 0071;
userData = {
com.typemytype.robofont.layerData = {
};
};
},
{
glyphname = r;
lastChange = "2016-07-01 10:14:26 +0000";
layers = (
{
anchors = (
{
name = bottom;
position = "{351, 0}";
},
{
name = top;
position = "{351, 1500}";
}
);
layerId = "32DFA59F-C132-4587-B43B-6A11C46F7A16";
paths = (
{
closed = 1;
nodes = (
"420 1147 CURVE SMOOTH",
"420 0 LINE",
"62 0 LINE",
"62 1500 LINE",
"420 1500 LINE",
"420 1333 LINE",
"454 1449 OFFCURVE",
"542 1518 OFFCURVE",
"675 1518 CURVE SMOOTH",
"680 1518 OFFCURVE",
"678 1215 OFFCURVE",
"678 1219 CURVE",
"590 1219 OFFCURVE",
"420 1187 OFFCURVE"
);
}
);
width = 702;
}
);
unicode = 0072;
userData = {
com.typemytype.robofont.layerData = {
};
};
},
{
glyphname = s;
lastChange = "2016-07-01 10:14:26 +0000";
layers = (
{
anchors = (
{
name = bottom;
position = "{486, 0}";
},
{
name = top;
position = "{486, 1500}";
}
);
layerId = "32DFA59F-C132-4587-B43B-6A11C46F7A16";
paths = (
{
closed = 1;
nodes = (
"489 1518 CURVE SMOOTH",
"776 1518 OFFCURVE",
"925 1372 OFFCURVE",
"925 1081 CURVE SMOOTH",
"925 1053 LINE",
"557 1053 LINE",
"555 1110 LINE SMOOTH",
"555 1170 OFFCURVE",
"539 1239 OFFCURVE",
"479 1239 CURVE SMOOTH",
"429 1239 OFFCURVE",
"403 1209 OFFCURVE",
"403 1159 CURVE SMOOTH",
"403 1106 OFFCURVE",
"424 1063 OFFCURVE",
"467 1032 CURVE SMOOTH",
"688 870 LINE SMOOTH",
"825 768 OFFCURVE",
"934 646 OFFCURVE",
"934 418 CURVE SMOOTH",
"934 135 OFFCURVE",
"763 -18 OFFCURVE",
"483 -18 CURVE SMOOTH",
"187 -18 OFFCURVE",
"39 133 OFFCURVE",
"39 434 CURVE SMOOTH",
"41 553 LINE",
"399 553 LINE",
"401 377 LINE SMOOTH",
"401 309 OFFCURVE",
"424 268 OFFCURVE",
"489 268 CURVE SMOOTH",
"537 268 OFFCURVE",
"561 307 OFFCURVE",
"561 385 CURVE SMOOTH",
"561 515 OFFCURVE",
"498 566 OFFCURVE",
"420 625 CURVE SMOOTH",
"229 772 LINE SMOOTH",
"109 865 OFFCURVE",
"45 951 OFFCURVE",
"45 1157 CURVE SMOOTH",
"45 1394 OFFCURVE",
"252 1518 OFFCURVE"
);
}
);
width = 972;
}
);
unicode = 0073;
userData = {
com.typemytype.robofont.layerData = {
};
};
},
{
glyphname = t;
lastChange = "2016-07-01 10:14:26 +0000";
layers = (
{
anchors = (
{
name = bottom;
position = "{313, 0}";
},
{
name = center;
position = "{313, 750}";
},
{
name = top;
position = "{313, 1500}";
},
{
name = topright;
position = "{605, 1500}";
}
);
layerId = "32DFA59F-C132-4587-B43B-6A11C46F7A16";
paths = (
{
closed = 1;
nodes = (
"134 231 CURVE SMOOTH",
"134 1169 LINE",
"33 1169 LINE",
"33 1442 LINE",
"134 1442 LINE",
"134 1761 LINE",
"482 1761 LINE",
"482 1442 LINE",
"583 1442 LINE",
"583 1169 LINE",
"482 1169 LINE",
"482 325 LINE",
"482 323 LINE SMOOTH",
"482 285 OFFCURVE",
"482 248 OFFCURVE",
"520 248 CURVE SMOOTH",
"529 248 OFFCURVE",
"574 249 OFFCURVE",
"583 252 CURVE",
"583 8 LINE",
"567 3 OFFCURVE",
"467 -19 OFFCURVE",
"380 -19 CURVE SMOOTH",
"187 -19 OFFCURVE",
"134 62 OFFCURVE"
);
}
);
width = 625;
}
);
unicode = 0074;
userData = {
com.typemytype.robofont.layerData = {
};
};
},
{
glyphname = u;
lastChange = "2016-07-01 10:14:26 +0000";
layers = (
{
anchors = (
{
name = bottom;
position = "{502, 0}";
},
{
name = ogonek;
position = "{903, 10}";
},
{
name = top;
position = "{502, 1500}";
},
{
name = topright;
position = "{983, 1500}";
}
);
layerId = "32DFA59F-C132-4587-B43B-6A11C46F7A16";
paths = (
{
closed = 1;
nodes = (
"419 342 OFFCURVE",
"411 264 OFFCURVE",
"499 264 CURVE SMOOTH",
"582 264 OFFCURVE",
"583 360 OFFCURVE",
"583 443 CURVE SMOOTH",
"583 455 LINE",
"585 1500 LINE",
"941 1500 LINE",
"941 0 LINE",
"583 0 LINE",
"583 160 LINE",
"537 45 OFFCURVE",
"488 -18 OFFCURVE",
"352 -18 CURVE SMOOTH",
"111 -18 OFFCURVE",
"59 143 OFFCURVE",
"59 383 CURVE SMOOTH",
"59 1500 LINE",
"419 1500 LINE",
"419 455 LINE SMOOTH"
);
}
);
width = 1003;
}
);
unicode = 0075;
userData = {
com.typemytype.robofont.layerData = {
};
};
},
{
glyphname = v;
lastChange = "2016-07-01 10:14:26 +0000";
layers = (
{
anchors = (
{
name = bottom;
position = "{476, 0}";
},
{
name = top;
position = "{476, 1500}";
}
);
layerId = "32DFA59F-C132-4587-B43B-6A11C46F7A16";
paths = (
{
closed = 1;
nodes = (
"568 1500 LINE",
"926 1500 LINE",
"681 0 LINE",
"267 0 LINE",
"26 1500 LINE",
"385 1500 LINE",
"459 741 LINE",
"471 498 LINE",
"485 743 LINE"
);
}
);
width = 952;
}
);
unicode = 0076;
userData = {
com.typemytype.robofont.layerData = {
};
};
},
{
glyphname = w;
lastChange = "2016-07-01 10:14:26 +0000";
layers = (
{
anchors = (
{
name = bottom;
position = "{742, 0}";
},
{
name = top;
position = "{742, 1500}";
}
);
layerId = "32DFA59F-C132-4587-B43B-6A11C46F7A16";
paths = (
{
closed = 1;
nodes = (
"475 694 LINE",
"562 1500 LINE",
"922 1500 LINE",
"1006 694 LINE",
"1098 1500 LINE",
"1455 1500 LINE",
"1244 0 LINE",
"828 0 LINE",
"740 801 LINE",
"656 0 LINE",
"240 0 LINE",
"29 1500 LINE",
"386 1500 LINE"
);
}
);
width = 1484;
}
);
unicode = 0077;
userData = {
com.typemytype.robofont.layerData = {
};
};
},
{
glyphname = x;
lastChange = "2016-07-01 10:14:26 +0000";
layers = (
{
anchors = (
{
name = bottom;
position = "{501, 0}";
},
{
name = top;
position = "{501, 1500}";
}
);
layerId = "32DFA59F-C132-4587-B43B-6A11C46F7A16";
paths = (
{
closed = 1;
nodes = (
"968 0 LINE",
"617 0 LINE",
"502 684 LINE",
"381 0 LINE",
"31 0 LINE",
"195 843 LINE",
"67 1501 LINE",
"415 1501 LINE",
"503 989 LINE",
"591 1501 LINE",
"945 1501 LINE",
"818 834 LINE"
);
}
);
width = 1002;
}
);
unicode = 0078;
userData = {
com.typemytype.robofont.layerData = {
};
};
},
{
glyphname = y;
lastChange = "2016-07-01 10:14:26 +0000";
layers = (
{
anchors = (
{
name = bottom;
position = "{480, 0}";
},
{
name = top;
position = "{480, 1500}";
}
);
layerId = "32DFA59F-C132-4587-B43B-6A11C46F7A16";
paths = (
{
closed = 1;
nodes = (
"56 -250 LINE",
"56 -23 LINE",
"168 -23 LINE SMOOTH",
"230 -23 OFFCURVE",
"265 -15 OFFCURVE",
"265 39 CURVE SMOOTH",
"265 52 OFFCURVE",
"263 69 OFFCURVE",
"260 91 CURVE SMOOTH",
"29 1501 LINE",
"382 1501 LINE",
"448 757 LINE",
"472 425 LINE",
"500 757 LINE",
"580 1501 LINE",
"935 1501 LINE",
"657 -78 LINE SMOOTH",
"641 -192 OFFCURVE",
"589 -250 OFFCURVE",
"460 -250 CURVE SMOOTH"
);
}
);
width = 959;
}
);
unicode = 0079;
userData = {
com.typemytype.robofont.layerData = {
};
};
},
{
glyphname = z;
lastChange = "2016-07-01 10:14:26 +0000";
layers = (
{
anchors = (
{
name = bottom;
position = "{440, 0}";
},
{
name = top;
position = "{440, 1500}";
}
);
layerId = "32DFA59F-C132-4587-B43B-6A11C46F7A16";
paths = (
{
closed = 1;
nodes = (
"817 301 LINE",
"817 0 LINE",
"33 0 LINE",
"33 272 LINE",
"446 1194 LINE",
"72 1194 LINE",
"72 1500 LINE",
"842 1500 LINE",
"842 1194 LINE",
"440 301 LINE"
);
}
);
width = 879;
}
);
unicode = 007A;
userData = {
com.typemytype.robofont.layerData = {
};
};
},
{
glyphname = AE;
lastChange = "2016-07-01 10:49:00 +0000";
layers = (
{
anchors = (
{
name = bottom;
position = "{748, 0}";
},
{
name = top;
position = "{790, 1593}";
}
);
layerId = "32DFA59F-C132-4587-B43B-6A11C46F7A16";
paths = (
{
closed = 1;
nodes = (
"1272 311 LINE",
"1272 0 LINE",
"605 0 LINE",
"604 120 LINE",
"604 240 LINE",
"396 240 LINE",
"357 0 LINE",
"16 0 LINE",
"337 1593 LINE",
"1249 1593 LINE",
"1249 1284 LINE",
"963 1284 LINE",
"963 973 LINE",
"1235 973 LINE",
"1235 674 LINE",
"963 674 LINE",
"963 311 LINE"
);
},
{
closed = 1;
nodes = (
"442 530 LINE",
"600 530 LINE",
"600 1294 LINE",
"572 1294 LINE"
);
}
);
width = 1311;
}
);
unicode = 00C6;
userData = {
com.typemytype.robofont.layerData = {
};
};
},
{
glyphname = ae;
lastChange = "2016-07-01 10:52:20 +0000";
layers = (
{
anchors = (
{
name = bottom;
position = "{749, 0}";
},
{
name = top;
position = "{749, 1518}";
}
);
layerId = "32DFA59F-C132-4587-B43B-6A11C46F7A16";
paths = (
{
closed = 1;
nodes = (
"1090 579 CURVE",
"1446 579 LINE",
"1446 494 LINE SMOOTH",
"1446 172 OFFCURVE",
"1358 -18 OFFCURVE",
"1036 -18 CURVE SMOOTH",
"896 -18 OFFCURVE",
"789 53 OFFCURVE",
"748 148 CURVE",
"702 51 OFFCURVE",
"598 -18 OFFCURVE",
"449 -18 CURVE SMOOTH",
"182 -18 OFFCURVE",
"38 154 OFFCURVE",
"38 430 CURVE SMOOTH",
"38 839 OFFCURVE",
"224 865 OFFCURVE",
"560 980 CURVE",
"560 983 LINE SMOOTH",
"560 1079 OFFCURVE",
"578 1239 OFFCURVE",
"483 1239 CURVE SMOOTH",
"434 1239 OFFCURVE",
"409 1212 OFFCURVE",
"409 1157 CURVE SMOOTH",
"409 1056 LINE",
"61 1056 LINE",
"60 1067 OFFCURVE",
"60 1084 OFFCURVE",
"60 1105 CURVE SMOOTH",
"60 1403 OFFCURVE",
"195 1518 OFFCURVE",
"501 1518 CURVE SMOOTH",
"610 1518 OFFCURVE",
"692 1477 OFFCURVE",
"747 1396 CURVE",
"800 1477 OFFCURVE",
"889 1518 OFFCURVE",
"1014 1518 CURVE SMOOTH",
"1302 1518 OFFCURVE",
"1446 1376 OFFCURVE",
"1446 1092 CURVE SMOOTH",
"1446 983 LINE SMOOTH",
"1446 848 OFFCURVE",
"1445 755 OFFCURVE",
"1442 704 CURVE",
"921 704 LINE",
"921 494 LINE SMOOTH",
"921 338 OFFCURVE",
"950 260 OFFCURVE",
"1008 260 CURVE SMOOTH",
"1094 260 OFFCURVE",
"1092 394 OFFCURVE",
"1092 483 CURVE SMOOTH",
"1092 542 OFFCURVE",
"1091 574 OFFCURVE"
);
},
{
closed = 1;
nodes = (
"559 379 CURVE SMOOTH",
"559 774 LINE",
"460 734 OFFCURVE",
"403 687 OFFCURVE",
"403 570 CURVE SMOOTH",
"403 395 LINE SMOOTH",
"403 306 OFFCURVE",
"430 262 OFFCURVE",
"483 262 CURVE SMOOTH",
"541 262 OFFCURVE",
"559 322 OFFCURVE"
);
},
{
closed = 1;
nodes = (
"1010 1249 CURVE SMOOTH",
"921 1249 OFFCURVE",
"921 1167 OFFCURVE",
"921 1052 CURVE SMOOTH",
"921 931 LINE",
"1090 931 LINE",
"1090 1087 LINE SMOOTH",
"1090 1195 OFFCURVE",
"1063 1249 OFFCURVE"
);
}
);
width = 1497;
}
);
unicode = 00E6;
userData = {
com.typemytype.robofont.layerData = {
};
};
},
{
glyphname = Dcroat;
lastChange = "2016-07-01 07:12:46 +0000";
layers = (
{
components = (
{
name = D;
}
);
layerId = "32DFA59F-C132-4587-B43B-6A11C46F7A16";
paths = (
{
closed = 1;
nodes = (
"506 1091 LINE",
"506 791 LINE",
"-8 791 LINE",
"-8 1091 LINE"
);
}
);
width = 983;
}
);
unicode = 0110;
},
{
glyphname = dcroat;
lastChange = "2016-07-01 07:15:13 +0000";
layers = (
{
components = (
{
name = d;
}
);
layerId = "32DFA59F-C132-4587-B43B-6A11C46F7A16";
paths = (
{
closed = 1;
nodes = (
"1006 1707 LINE",
"1006 1556 LINE",
"518 1556 LINE",
"518 1707 LINE"
);
}
);
width = 998;
}
);
unicode = 0111;
},
{
glyphname = eth;
lastChange = "2016-07-01 06:32:11 +0000";
layers = (
{
layerId = "32DFA59F-C132-4587-B43B-6A11C46F7A16";
paths = (
{
closed = 1;
nodes = (
"633 1458 OFFCURVE",
"712 1408 OFFCURVE",
"761 1357 CURVE",
"586 1246 LINE",
"580 1410 OFFCURVE",
"463 1604 OFFCURVE",
"308 1763 CURVE",
"615 1811 LINE",
"827 1586 OFFCURVE",
"945 1311 OFFCURVE",
"945 1041 CURVE SMOOTH",
"945 449 LINE SMOOTH",
"945 143 OFFCURVE",
"797 -18 OFFCURVE",
"496 -18 CURVE SMOOTH",
"197 -18 OFFCURVE",
"48 138 OFFCURVE",
"48 449 CURVE SMOOTH",
"48 991 LINE SMOOTH",
"48 1273 OFFCURVE",
"216 1458 OFFCURVE",
"496 1458 CURVE SMOOTH"
);
},
{
closed = 1;
nodes = (
"412 308 OFFCURVE",
"436 260 OFFCURVE",
"496 260 CURVE SMOOTH",
"556 260 OFFCURVE",
"580 308 OFFCURVE",
"580 375 CURVE SMOOTH",
"580 1048 LINE SMOOTH",
"580 1135 OFFCURVE",
"552 1179 OFFCURVE",
"496 1179 CURVE SMOOTH",
"440 1179 OFFCURVE",
"412 1135 OFFCURVE",
"412 1048 CURVE SMOOTH",
"412 375 LINE SMOOTH"
);
},
{
closed = 1;
nodes = (
"851 1761 LINE",
"877 1613 LINE",
"289 1506 LINE",
"261 1654 LINE"
);
}
);
width = 995;
},
{
associatedMasterId = "32DFA59F-C132-4587-B43B-6A11C46F7A16";
layerId = "E38351B2-C9B3-47A5-831E-9AF8967DBC91";
name = "Condensed Jul 1 16, 11:51";
paths = (
{
closed = 1;
nodes = (
"945 1051 CURVE SMOOTH",
"945 449 LINE SMOOTH",
"945 143 OFFCURVE",
"797 -18 OFFCURVE",
"496 -18 CURVE SMOOTH",
"197 -18 OFFCURVE",
"48 138 OFFCURVE",
"48 449 CURVE SMOOTH",
"48 1051 LINE SMOOTH",
"48 1333 OFFCURVE",
"216 1518 OFFCURVE",
"496 1518 CURVE SMOOTH",
"777 1518 OFFCURVE",
"945 1334 OFFCURVE"
);
},
{
closed = 1;
nodes = (
"496 260 CURVE SMOOTH",
"556 260 OFFCURVE",
"580 308 OFFCURVE",
"580 375 CURVE SMOOTH",
"580 1108 LINE SMOOTH",
"580 1195 OFFCURVE",
"552 1239 OFFCURVE",
"496 1239 CURVE SMOOTH",
"440 1239 OFFCURVE",
"412 1195 OFFCURVE",
"412 1108 CURVE SMOOTH",
"412 375 LINE SMOOTH",
"412 308 OFFCURVE",
"436 260 OFFCURVE"
);
}
);
width = 995;
visible = 1;
}
);
unicode = 00F0;
},
{
glyphname = Hbar;
lastChange = "2016-07-01 07:13:47 +0000";
layers = (
{
components = (
{
name = H;
}
);
layerId = "32DFA59F-C132-4587-B43B-6A11C46F7A16";
paths = (
{
closed = 1;
nodes = (
"998 1606 LINE",
"998 1306 LINE",
"-8 1306 LINE",
"-8 1606 LINE"
);
}
);
width = 990;
}
);
unicode = 0126;
},
{
glyphname = hbar;
lastChange = "2016-07-01 07:15:47 +0000";
layers = (
{
components = (
{
name = h;
}
);
layerId = "32DFA59F-C132-4587-B43B-6A11C46F7A16";
paths = (
{
closed = 1;
nodes = (
"500 1707 LINE",
"500 1556 LINE",
"-8 1556 LINE",
"-8 1707 LINE"
);
}
);
width = 1011;
}
);
unicode = 0127;
},
{
glyphname = idotaccent;
lastChange = "2016-07-01 08:05:06 +0000";
layers = (
{
layerId = "32DFA59F-C132-4587-B43B-6A11C46F7A16";
paths = (
{
closed = 1;
nodes = (
"420 1500 LINE",
"420 0 LINE",
"62 0 LINE",
"62 1500 LINE"
);
}
);
width = 482;
}
);
userData = {
com.typemytype.robofont.layerData = {
};
};
},
{
glyphname = dotlessj;
lastChange = "2016-07-01 08:06:35 +0000";
layers = (
{
layerId = "32DFA59F-C132-4587-B43B-6A11C46F7A16";
paths = (
{
closed = 1;
nodes = (
"45 87 OFFCURVE",
"56 85 OFFCURVE",
"67 85 CURVE SMOOTH",
"105 85 OFFCURVE",
"110 115 OFFCURVE",
"110 156 CURVE SMOOTH",
"110 1500 LINE",
"468 1500 LINE",
"468 166 LINE SMOOTH",
"468 -47 OFFCURVE",
"392 -176 OFFCURVE",
"186 -176 CURVE SMOOTH",
"109 -176 OFFCURVE",
"59 -167 OFFCURVE",
"34 -150 CURVE",
"34 90 LINE"
);
}
);
width = 530;
}
);
},
{
glyphname = kgreenlandic;
lastChange = "2016-07-01 04:47:39 +0000";
layers = (
{
layerId = "32DFA59F-C132-4587-B43B-6A11C46F7A16";
paths = (
{
closed = 1;
nodes = (
"416 674 LINE",
"416 0 LINE",
"62 0 LINE",
"62 1500 LINE",
"416 1500 LINE",
"416 950 LINE",
"588 1500 LINE",
"959 1500 LINE",
"734 815 LINE",
"1020 0 LINE",
"639 0 LINE"
);
}
);
width = 1040;
}
);
unicode = 0138;
userData = {
com.typemytype.robofont.layerData = {
};
};
},
{
glyphname = Lslash;
lastChange = "2016-07-01 04:47:39 +0000";
layers = (
{
layerId = "32DFA59F-C132-4587-B43B-6A11C46F7A16";
paths = (
{
closed = 1;
nodes = (
"823 311 LINE",
"823 0 LINE",
"109 0 LINE",
"109 1593 LINE",
"461 1593 LINE",
"461 311 LINE"
);
},
{
closed = 1;
nodes = (
"726 973 LINE",
"726 741 LINE",
"39 509 LINE",
"39 741 LINE"
);
}
);
width = 853;
}
);
unicode = 0141;
userData = {
com.typemytype.robofont.layerData = {
};
};
},
{
glyphname = lslash;
lastChange = "2016-07-01 04:47:39 +0000";
layers = (
{
layerId = "32DFA59F-C132-4587-B43B-6A11C46F7A16";
paths = (
{
closed = 1;
nodes = (
"112 1767 LINE",
"476 1767 LINE",
"476 0 LINE",
"112 0 LINE"
);
},
{
closed = 1;
nodes = (
"553 973 LINE",
"553 741 LINE",
"37 509 LINE",
"37 741 LINE"
);
}
);
width = 590;
}
);
unicode = 0142;
userData = {
com.typemytype.robofont.layerData = {
};
};
},
{
glyphname = Eng;
lastChange = "2016-07-01 06:44:02 +0000";
layers = (
{
layerId = "32DFA59F-C132-4587-B43B-6A11C46F7A16";
paths = (
{
closed = 1;
nodes = (
"932 -218 OFFCURVE",
"842 -317 OFFCURVE",
"658 -317 CURVE SMOOTH",
"577 -317 OFFCURVE",
"481 -303 OFFCURVE",
"443 -290 CURVE",
"443 -50 LINE",
"465 -54 OFFCURVE",
"485 -56 OFFCURVE",
"510 -56 CURVE SMOOTH",
"560 -56 OFFCURVE",
"582 -35 OFFCURVE",
"582 15 CURVE SMOOTH",
"582 1380 LINE SMOOTH",
"582 1439 OFFCURVE",
"560 1499 OFFCURVE",
"502 1499 CURVE SMOOTH",
"419 1499 OFFCURVE",
"412 1398 OFFCURVE",
"412 1315 CURVE SMOOTH",
"412 0 LINE",
"62 0 LINE",
"62 1761 LINE",
"412 1761 LINE",
"412 1569 LINE",
"443 1682 OFFCURVE",
"522 1777 OFFCURVE",
"678 1777 CURVE SMOOTH",
"866 1777 OFFCURVE",
"932 1638 OFFCURVE",
"932 1417 CURVE SMOOTH",
"932 -17 LINE SMOOTH"
);
}
);
width = 996;
}
);
unicode = 014A;
},
{
glyphname = eng;
lastChange = "2016-07-01 06:44:59 +0000";
layers = (
{
layerId = "32DFA59F-C132-4587-B43B-6A11C46F7A16";
paths = (
{
closed = 1;
nodes = (
"943 -218 OFFCURVE",
"852 -317 OFFCURVE",
"666 -317 CURVE SMOOTH",
"585 -317 OFFCURVE",
"489 -303 OFFCURVE",
"451 -290 CURVE",
"451 -50 LINE",
"473 -54 OFFCURVE",
"493 -56 OFFCURVE",
"518 -56 CURVE SMOOTH",
"568 -56 OFFCURVE",
"590 -35 OFFCURVE",
"590 15 CURVE SMOOTH",
"590 1120 LINE SMOOTH",
"590 1179 OFFCURVE",
"568 1239 OFFCURVE",
"510 1239 CURVE SMOOTH",
"427 1239 OFFCURVE",
"420 1138 OFFCURVE",
"420 1055 CURVE SMOOTH",
"420 0 LINE",
"62 0 LINE",
"62 1501 LINE",
"420 1501 LINE",
"420 1309 LINE",
"446 1423 OFFCURVE",
"517 1518 OFFCURVE",
"646 1518 CURVE SMOOTH",
"854 1518 OFFCURVE",
"943 1379 OFFCURVE",
"943 1157 CURVE SMOOTH",
"943 -17 LINE SMOOTH"
);
}
);
width = 1002;
}
);
unicode = 014B;
},
{
glyphname = Oacute;
lastChange = "2016-07-01 04:47:39 +0000";
layers = (
{
layerId = "32DFA59F-C132-4587-B43B-6A11C46F7A16";
paths = (
{
closed = 1;
nodes = (
"484 -18 CURVE SMOOTH",
"196 -18 OFFCURVE",
"50 146 OFFCURVE",
"50 430 CURVE SMOOTH",
"50 1189 LINE SMOOTH",
"50 1464 OFFCURVE",
"202 1607 OFFCURVE",
"484 1607 CURVE SMOOTH",
"766 1607 OFFCURVE",
"918 1464 OFFCURVE",
"918 1189 CURVE SMOOTH",
"918 430 LINE SMOOTH",
"918 146 OFFCURVE",
"772 -18 OFFCURVE"
);
},
{
closed = 1;
nodes = (
"398 1166 CURVE SMOOTH",
"398 477 LINE SMOOTH",
"398 395 OFFCURVE",
"402 297 OFFCURVE",
"484 297 CURVE SMOOTH",
"561 297 OFFCURVE",
"564 388 OFFCURVE",
"564 465 CURVE SMOOTH",
"564 1113 LINE SMOOTH",
"564 1198 OFFCURVE",
"571 1295 OFFCURVE",
"484 1295 CURVE SMOOTH",
"416 1295 OFFCURVE",
"398 1233 OFFCURVE"
);
},
{
closed = 1;
nodes = (
"691 2086 LINE",
"691 1739 LINE",
"216 1645 LINE",
"216 1868 LINE"
);
}
);
width = 969;
}
);
unicode = 00D3;
userData = {
com.typemytype.robofont.layerData = {
};
};
},
{
glyphname = Ocircumflex;
lastChange = "2016-07-01 04:47:39 +0000";
layers = (
{
layerId = "32DFA59F-C132-4587-B43B-6A11C46F7A16";
paths = (
{
closed = 1;
nodes = (
"495 -18 CURVE SMOOTH",
"207 -18 OFFCURVE",
"61 146 OFFCURVE",
"61 430 CURVE SMOOTH",
"61 1189 LINE SMOOTH",
"61 1464 OFFCURVE",
"213 1607 OFFCURVE",
"495 1607 CURVE SMOOTH",
"777 1607 OFFCURVE",
"929 1464 OFFCURVE",
"929 1189 CURVE SMOOTH",
"929 430 LINE SMOOTH",
"929 146 OFFCURVE",
"783 -18 OFFCURVE"
);
},
{
closed = 1;
nodes = (
"409 1166 CURVE SMOOTH",
"409 477 LINE SMOOTH",
"409 395 OFFCURVE",
"413 297 OFFCURVE",
"495 297 CURVE SMOOTH",
"572 297 OFFCURVE",
"575 388 OFFCURVE",
"575 465 CURVE SMOOTH",
"575 1113 LINE SMOOTH",
"575 1198 OFFCURVE",
"582 1295 OFFCURVE",
"495 1295 CURVE SMOOTH",
"427 1295 OFFCURVE",
"409 1233 OFFCURVE"
);
},
{
closed = 1;
nodes = (
"46 1683 LINE",
"287 2086 LINE",
"695 2086 LINE",
"936 1683 LINE",
"577 1683 LINE",
"491 1968 LINE",
"405 1683 LINE"
);
}
);
width = 986;
}
);
unicode = 00D4;
userData = {
com.typemytype.robofont.layerData = {
};
};
},
{
glyphname = Otilde;
lastChange = "2016-07-01 04:47:39 +0000";
layers = (
{
layerId = "32DFA59F-C132-4587-B43B-6A11C46F7A16";
paths = (
{
closed = 1;
nodes = (
"488 -18 CURVE SMOOTH",
"200 -18 OFFCURVE",
"54 146 OFFCURVE",
"54 430 CURVE SMOOTH",
"54 1189 LINE SMOOTH",
"54 1464 OFFCURVE",
"206 1607 OFFCURVE",
"488 1607 CURVE SMOOTH",
"770 1607 OFFCURVE",
"922 1464 OFFCURVE",
"922 1189 CURVE SMOOTH",
"922 430 LINE SMOOTH",
"922 146 OFFCURVE",
"776 -18 OFFCURVE"
);
},
{
closed = 1;
nodes = (
"402 1166 CURVE SMOOTH",
"402 477 LINE SMOOTH",
"402 395 OFFCURVE",
"406 297 OFFCURVE",
"488 297 CURVE SMOOTH",
"565 297 OFFCURVE",
"568 388 OFFCURVE",
"568 465 CURVE SMOOTH",
"568 1113 LINE SMOOTH",
"568 1198 OFFCURVE",
"575 1295 OFFCURVE",
"488 1295 CURVE SMOOTH",
"420 1295 OFFCURVE",
"402 1233 OFFCURVE"
);
},
{
closed = 1;
nodes = (
"589 1694 CURVE SMOOTH",
"479 1694 OFFCURVE",
"446 1804 OFFCURVE",
"347 1804 CURVE SMOOTH",
"326 1804 OFFCURVE",
"306 1774 OFFCURVE",
"289 1715 CURVE",
"67 1821 LINE",
"121 1953 OFFCURVE",
"191 2080 OFFCURVE",
"347 2080 CURVE SMOOTH",
"441 2080 OFFCURVE",
"501 1972 OFFCURVE",
"590 1972 CURVE SMOOTH",
"612 1972 OFFCURVE",
"632 1998 OFFCURVE",
"649 2051 CURVE",
"881 1995 LINE",
"827 1848 OFFCURVE",
"754 1694 OFFCURVE"
);
}
);
width = 974;
}
);
unicode = 00D5;
userData = {
com.typemytype.robofont.layerData = {
};
};
},
{
glyphname = Odieresis;
lastChange = "2016-07-01 04:47:39 +0000";
layers = (
{
layerId = "32DFA59F-C132-4587-B43B-6A11C46F7A16";
paths = (
{
closed = 1;
nodes = (
"486 -18 CURVE SMOOTH",
"198 -18 OFFCURVE",
"52 146 OFFCURVE",
"52 430 CURVE SMOOTH",
"52 1189 LINE SMOOTH",
"52 1464 OFFCURVE",
"204 1607 OFFCURVE",
"486 1607 CURVE SMOOTH",
"768 1607 OFFCURVE",
"920 1464 OFFCURVE",
"920 1189 CURVE SMOOTH",
"920 430 LINE SMOOTH",
"920 146 OFFCURVE",
"774 -18 OFFCURVE"
);
},
{
closed = 1;
nodes = (
"400 1166 CURVE SMOOTH",
"400 477 LINE SMOOTH",
"400 395 OFFCURVE",
"404 297 OFFCURVE",
"486 297 CURVE SMOOTH",
"563 297 OFFCURVE",
"566 388 OFFCURVE",
"566 465 CURVE SMOOTH",
"566 1113 LINE SMOOTH",
"566 1198 OFFCURVE",
"573 1295 OFFCURVE",
"486 1295 CURVE SMOOTH",
"418 1295 OFFCURVE",
"400 1233 OFFCURVE"
);
},
{
closed = 1;
nodes = (
"419 1981 LINE",
"419 1683 LINE",
"61 1683 LINE",
"61 1981 LINE"
);
},
{
closed = 1;
nodes = (
"903 1981 LINE",
"903 1683 LINE",
"545 1683 LINE",
"545 1981 LINE"
);
}
);
width = 973;
}
);
unicode = 00D6;
userData = {
com.typemytype.robofont.layerData = {
};
};
},
{
glyphname = Oslash;
lastChange = "2016-07-01 04:47:39 +0000";
layers = (
{
components = (
{
name = O;
}
);
layerId = "32DFA59F-C132-4587-B43B-6A11C46F7A16";
paths = (
{
closed = 1;
nodes = (
"20 -122 LINE",
"147 326 LINE",
"246 240 LINE",
"132 -162 LINE"
);
},
{
closed = 1;
nodes = (
"741 1981 LINE",
"607 1510 LINE",
"496 1560 LINE",
"624 2014 LINE"
);
}
);
width = 750;
}
);
unicode = 00D8;
userData = {
com.typemytype.robofont.layerData = {
};
};
},
{
glyphname = oslash;
lastChange = "2016-07-01 04:47:39 +0000";
layers = (
{
layerId = "32DFA59F-C132-4587-B43B-6A11C46F7A16";
paths = (
{
closed = 1;
nodes = (
"942 1051 CURVE SMOOTH",
"942 449 LINE SMOOTH",
"942 143 OFFCURVE",
"794 -18 OFFCURVE",
"493 -18 CURVE SMOOTH",
"433 -18 OFFCURVE",
"377 -11 OFFCURVE",
"326 2 CURVE",
"277 -173 LINE",
"177 -145 LINE",
"229 42 LINE",
"106 115 OFFCURVE",
"45 250 OFFCURVE",
"45 449 CURVE SMOOTH",
"45 1051 LINE SMOOTH",
"45 1333 OFFCURVE",
"213 1518 OFFCURVE",
"493 1518 CURVE SMOOTH",
"542 1518 OFFCURVE",
"590 1512 OFFCURVE",
"637 1499 CURVE",
"686 1672 LINE",
"787 1644 LINE",
"735 1459 LINE",
"863 1386 OFFCURVE",
"942 1247 OFFCURVE"
);
},
{
closed = 1;
nodes = (
"493 260 CURVE SMOOTH",
"553 260 OFFCURVE",
"577 308 OFFCURVE",
"577 375 CURVE SMOOTH",
"577 895 LINE",
"416 321 LINE",
"428 280 OFFCURVE",
"454 260 OFFCURVE"
);
},
{
closed = 1;
nodes = (
"493 1239 CURVE SMOOTH",
"437 1239 OFFCURVE",
"409 1195 OFFCURVE",
"409 1108 CURVE SMOOTH",
"409 683 LINE",
"555 1206 LINE",
"541 1228 OFFCURVE",
"520 1239 OFFCURVE"
);
}
);
width = 989;
}
);
unicode = 00F8;
userData = {
com.typemytype.robofont.layerData = {
};
};
},
{
glyphname = OE;
lastChange = "2016-07-01 04:47:39 +0000";
layers = (
{
layerId = "32DFA59F-C132-4587-B43B-6A11C46F7A16";
paths = (
{
closed = 1;
nodes = (
"50 430 CURVE SMOOTH",
"50 1189 LINE SMOOTH",
"50 1498 OFFCURVE",
"273 1593 OFFCURVE",
"598 1593 CURVE SMOOTH",
"1268 1593 LINE",
"1268 1284 LINE",
"931 1284 LINE",
"931 973 LINE",
"1254 973 LINE",
"1254 674 LINE",
"931 674 LINE",
"931 311 LINE",
"1291 311 LINE",
"1291 0 LINE",
"606 0 LINE SMOOTH",
"235 0 OFFCURVE",
"50 143 OFFCURVE"
);
},
{
closed = 1;
nodes = (
"519 1289 CURVE SMOOTH",
"440 1289 OFFCURVE",
"398 1232 OFFCURVE",
"398 1147 CURVE SMOOTH",
"398 477 LINE SMOOTH",
"398 384 OFFCURVE",
"431 308 OFFCURVE",
"513 308 CURVE SMOOTH",
"533 308 OFFCURVE",
"553 313 OFFCURVE",
"574 322 CURVE",
"574 1280 LINE",
"556 1286 OFFCURVE",
"538 1289 OFFCURVE"
);
}
);
width = 1330;
}
);
unicode = 0152;
userData = {
com.typemytype.robofont.layerData = {
};
};
},
{
glyphname = oe;
lastChange = "2016-07-01 04:47:39 +0000";
layers = (
{
layerId = "32DFA59F-C132-4587-B43B-6A11C46F7A16";
paths = (
{
closed = 1;
nodes = (
"1106 579 CURVE",
"1462 579 LINE",
"1462 494 LINE SMOOTH",
"1462 157 OFFCURVE",
"1352 -18 OFFCURVE",
"1012 -18 CURVE SMOOTH",
"911 -18 OFFCURVE",
"829 11 OFFCURVE",
"766 69 CURVE",
"696 11 OFFCURVE",
"606 -18 OFFCURVE",
"496 -18 CURVE SMOOTH",
"197 -18 OFFCURVE",
"48 138 OFFCURVE",
"48 449 CURVE SMOOTH",
"48 1051 LINE SMOOTH",
"48 1333 OFFCURVE",
"216 1518 OFFCURVE",
"496 1518 CURVE SMOOTH",
"598 1518 OFFCURVE",
"686 1486 OFFCURVE",
"761 1422 CURVE",
"829 1486 OFFCURVE",
"919 1518 OFFCURVE",
"1030 1518 CURVE SMOOTH",
"1318 1518 OFFCURVE",
"1462 1376 OFFCURVE",
"1462 1092 CURVE SMOOTH",
"1462 983 LINE SMOOTH",
"1462 848 OFFCURVE",
"1461 755 OFFCURVE",
"1458 704 CURVE",
"938 704 LINE",
"938 494 LINE SMOOTH",
"938 482 OFFCURVE",
"937 439 OFFCURVE",
"937 427 CURVE SMOOTH",
"937 346 OFFCURVE",
"944 260 OFFCURVE",
"1024 260 CURVE SMOOTH",
"1110 260 OFFCURVE",
"1108 395 OFFCURVE",
"1108 483 CURVE SMOOTH",
"1108 542 OFFCURVE",
"1107 574 OFFCURVE"
);
},
{
closed = 1;
nodes = (
"496 260 CURVE SMOOTH",
"556 260 OFFCURVE",
"580 308 OFFCURVE",
"580 375 CURVE SMOOTH",
"580 1108 LINE SMOOTH",
"580 1195 OFFCURVE",
"552 1239 OFFCURVE",
"496 1239 CURVE SMOOTH",
"440 1239 OFFCURVE",
"412 1195 OFFCURVE",
"412 1108 CURVE SMOOTH",
"412 375 LINE SMOOTH",
"412 308 OFFCURVE",
"436 260 OFFCURVE"
);
},
{
closed = 1;
nodes = (
"936 1057 CURVE SMOOTH",
"936 1033 OFFCURVE",
"938 955 OFFCURVE",
"938 931 CURVE",
"1106 931 LINE",
"1106 1087 LINE SMOOTH",
"1106 1195 OFFCURVE",
"1079 1249 OFFCURVE",
"1026 1249 CURVE SMOOTH",
"939 1249 OFFCURVE",
"936 1146 OFFCURVE"
);
}
);
width = 1513;
}
);
unicode = 0153;
userData = {
com.typemytype.robofont.layerData = {
};
};
},
{
glyphname = Germandbls;
lastChange = "2016-07-01 07:06:05 +0000";
layers = (
{
layerId = "32DFA59F-C132-4587-B43B-6A11C46F7A16";
paths = (
{
closed = 1;
nodes = (
"474 823 CURVE",
"474 1043 LINE",
"655 1560 LINE",
"676 1418 LINE",
"637 1450 OFFCURVE",
"575 1470 OFFCURVE",
"514 1470 CURVE SMOOTH",
"444 1470 OFFCURVE",
"408 1433 OFFCURVE",
"408 1358 CURVE SMOOTH",
"408 0 LINE",
"58 0 LINE",
"58 1403 LINE SMOOTH",
"58 1654 OFFCURVE",
"213 1777 OFFCURVE",
"491 1777 CURVE SMOOTH",
"690 1777 OFFCURVE",
"837 1716 OFFCURVE",
"934 1647 CURVE",
"934 1404 LINE",
"772 935 LINE",
"727 1053 LINE",
"923 1026 OFFCURVE",
"969 865 OFFCURVE",
"969 538 CURVE SMOOTH",
"969 174 OFFCURVE",
"882 0 OFFCURVE",
"582 0 CURVE SMOOTH",
"478 0 LINE",
"478 281 LINE",
"573 281 OFFCURVE",
"621 320 OFFCURVE",
"621 399 CURVE SMOOTH",
"621 676 LINE SMOOTH",
"621 784 OFFCURVE",
"583 823 OFFCURVE"
);
}
);
width = 1019;
},
{
associatedMasterId = "32DFA59F-C132-4587-B43B-6A11C46F7A16";
layerId = "B1AC1EE3-C7F4-49F5-AC77-6FCE0C5BEB98";
name = "Condensed Jul 1 16, 12:16";
paths = (
{
closed = 1;
nodes = (
"474 745 CURVE",
"474 993 LINE",
"544 993 OFFCURVE",
"558 1044 OFFCURVE",
"558 1112 CURVE SMOOTH",
"558 1270 LINE SMOOTH",
"558 1321 OFFCURVE",
"533 1346 OFFCURVE",
"483 1346 CURVE SMOOTH",
"433 1346 OFFCURVE",
"408 1321 OFFCURVE",
"408 1270 CURVE SMOOTH",
"408 0 LINE",
"58 0 LINE",
"58 1229 LINE SMOOTH",
"58 1472 OFFCURVE",
"200 1593 OFFCURVE",
"483 1593 CURVE SMOOTH",
"742 1593 OFFCURVE",
"909 1490 OFFCURVE",
"909 1229 CURVE SMOOTH",
"909 1162 LINE SMOOTH",
"909 1022 OFFCURVE",
"867 922 OFFCURVE",
"759 887 CURVE",
"928 847 OFFCURVE",
"969 684 OFFCURVE",
"969 476 CURVE SMOOTH",
"969 177 OFFCURVE",
"882 0 OFFCURVE",
"582 0 CURVE SMOOTH",
"478 0 LINE",
"478 281 LINE",
"573 281 OFFCURVE",
"621 320 OFFCURVE",
"621 399 CURVE SMOOTH",
"621 598 LINE SMOOTH",
"621 706 OFFCURVE",
"583 745 OFFCURVE"
);
}
);
width = 600;
visible = 1;
}
);
unicode = 1E9E;
},
{
glyphname = germandbls;
lastChange = "2016-07-01 04:47:39 +0000";
layers = (
{
layerId = "32DFA59F-C132-4587-B43B-6A11C46F7A16";
paths = (
{
closed = 1;
nodes = (
"474 745 CURVE",
"474 993 LINE",
"544 993 OFFCURVE",
"558 1044 OFFCURVE",
"558 1112 CURVE SMOOTH",
"558 1270 LINE SMOOTH",
"558 1321 OFFCURVE",
"533 1346 OFFCURVE",
"483 1346 CURVE SMOOTH",
"433 1346 OFFCURVE",
"408 1321 OFFCURVE",
"408 1270 CURVE SMOOTH",
"408 0 LINE",
"58 0 LINE",
"58 1229 LINE SMOOTH",
"58 1472 OFFCURVE",
"200 1593 OFFCURVE",
"483 1593 CURVE SMOOTH",
"742 1593 OFFCURVE",
"909 1490 OFFCURVE",
"909 1229 CURVE SMOOTH",
"909 1162 LINE SMOOTH",
"909 1022 OFFCURVE",
"867 922 OFFCURVE",
"759 887 CURVE",
"928 847 OFFCURVE",
"969 684 OFFCURVE",
"969 476 CURVE SMOOTH",
"969 177 OFFCURVE",
"882 0 OFFCURVE",
"582 0 CURVE SMOOTH",
"478 0 LINE",
"478 281 LINE",
"573 281 OFFCURVE",
"621 320 OFFCURVE",
"621 399 CURVE SMOOTH",
"621 598 LINE SMOOTH",
"621 706 OFFCURVE",
"583 745 OFFCURVE"
);
}
);
width = 1007;
}
);
unicode = 00DF;
userData = {
com.typemytype.robofont.layerData = {
};
};
},
{
glyphname = Tbar;
lastChange = "2016-07-01 07:10:50 +0000";
layers = (
{
components = (
{
name = T;
}
);
layerId = "32DFA59F-C132-4587-B43B-6A11C46F7A16";
paths = (
{
closed = 1;
nodes = (
"701 1101 LINE",
"701 801 LINE",
"109 801 LINE",
"109 1101 LINE"
);
}
);
width = 811;
}
);
unicode = 0166;
},
{
glyphname = tbar;
lastChange = "2016-07-01 07:10:04 +0000";
layers = (
{
components = (
{
name = t;
}
);
layerId = "32DFA59F-C132-4587-B43B-6A11C46F7A16";
paths = (
{
closed = 1;
nodes = (
"567 987 LINE",
"567 836 LINE",
"49 836 LINE",
"49 987 LINE"
);
}
);
width = 625;
}
);
unicode = 0167;
},
{
glyphname = Thorn;
lastChange = "2016-07-01 04:47:39 +0000";
layers = (
{
layerId = "32DFA59F-C132-4587-B43B-6A11C46F7A16";
paths = (
{
closed = 1;
nodes = (
"918 875 CURVE SMOOTH",
"918 568 OFFCURVE",
"856 336 OFFCURVE",
"551 336 CURVE SMOOTH",
"408 336 LINE",
"408 0 LINE",
"62 0 LINE",
"62 1593 LINE",
"407 1593 LINE",
"407 1418 LINE",
"527 1418 LINE SMOOTH",
"835 1418 OFFCURVE",
"918 1193 OFFCURVE"
);
},
{
closed = 1;
nodes = (
"570 881 CURVE SMOOTH",
"570 1023 OFFCURVE",
"562 1128 OFFCURVE",
"447 1128 CURVE SMOOTH",
"408 1128 LINE",
"408 623 LINE",
"428 623 LINE SMOOTH",
"572 623 OFFCURVE",
"570 735 OFFCURVE"
);
}
);
width = 947;
}
);
unicode = 00DE;
userData = {
com.typemytype.robofont.layerData = {
};
};
},
{
glyphname = thorn;
lastChange = "2016-07-01 04:47:39 +0000";
layers = (
{
layerId = "32DFA59F-C132-4587-B43B-6A11C46F7A16";
paths = (
{
closed = 1;
nodes = (
"957 1114 CURVE SMOOTH",
"957 391 LINE SMOOTH",
"957 160 OFFCURVE",
"865 -18 OFFCURVE",
"641 -18 CURVE SMOOTH",
"544 -18 OFFCURVE",
"474 41 OFFCURVE",
"430 160 CURVE",
"430 -185 LINE",
"62 -185 LINE",
"62 1769 LINE",
"430 1769 LINE",
"430 1427 LINE",
"490 1488 OFFCURVE",
"557 1519 OFFCURVE",
"630 1519 CURVE SMOOTH",
"874 1519 OFFCURVE",
"957 1360 OFFCURVE"
);
},
{
closed = 1;
nodes = (
"518 1239 CURVE SMOOTH",
"446 1239 OFFCURVE",
"430 1175 OFFCURVE",
"430 1085 CURVE SMOOTH",
"430 457 LINE SMOOTH",
"430 349 OFFCURVE",
"437 263 OFFCURVE",
"520 263 CURVE SMOOTH",
"599 263 OFFCURVE",
"594 347 OFFCURVE",
"594 457 CURVE SMOOTH",
"594 1081 LINE SMOOTH",
"594 1171 OFFCURVE",
"588 1239 OFFCURVE"
);
}
);
width = 1007;
}
);
unicode = 00FE;
userData = {
com.typemytype.robofont.layerData = {
};
};
},
{
glyphname = Schwa;
lastChange = "2016-07-01 07:25:14 +0000";
layers = (
{
layerId = "32DFA59F-C132-4587-B43B-6A11C46F7A16";
paths = (
{
closed = 1;
nodes = (
"414 1051 LINE",
"58 1051 LINE",
"58 1265 LINE SMOOTH",
"58 1602 OFFCURVE",
"168 1777 OFFCURVE",
"508 1777 CURVE SMOOTH",
"837 1777 OFFCURVE",
"940 1602 OFFCURVE",
"940 1265 CURVE SMOOTH",
"940 408 LINE SMOOTH",
"940 129 OFFCURVE",
"770 -18 OFFCURVE",
"490 -18 CURVE SMOOTH",
"202 -18 OFFCURVE",
"58 124 OFFCURVE",
"58 408 CURVE SMOOTH",
"58 893 LINE",
"582 893 LINE",
"582 1306 LINE SMOOTH",
"582 1441 OFFCURVE",
"567 1499 OFFCURVE",
"498 1499 CURVE SMOOTH",
"425 1499 OFFCURVE",
"412 1432 OFFCURVE",
"412 1276 CURVE SMOOTH",
"412 1088 OFFCURVE",
"413 1056 OFFCURVE"
);
},
{
closed = 1;
nodes = (
"584 443 CURVE SMOOTH",
"584 715 LINE",
"414 715 LINE",
"414 413 LINE SMOOTH",
"414 305 OFFCURVE",
"441 251 OFFCURVE",
"494 251 CURVE SMOOTH",
"581 251 OFFCURVE",
"584 354 OFFCURVE"
);
}
);
width = 998;
}
);
unicode = 018F;
},
{
glyphname = schwa;
lastChange = "2016-07-01 07:26:08 +0000";
layers = (
{
layerId = "32DFA59F-C132-4587-B43B-6A11C46F7A16";
paths = (
{
closed = 1;
nodes = (
"407 921 LINE",
"51 921 LINE",
"51 1006 LINE SMOOTH",
"51 1343 OFFCURVE",
"161 1518 OFFCURVE",
"501 1518 CURVE SMOOTH",
"822 1518 OFFCURVE",
"933 1330 OFFCURVE",
"933 1011 CURVE SMOOTH",
"933 408 LINE SMOOTH",
"933 129 OFFCURVE",
"763 -18 OFFCURVE",
"483 -18 CURVE SMOOTH",
"195 -18 OFFCURVE",
"51 124 OFFCURVE",
"51 408 CURVE SMOOTH",
"51 517 LINE SMOOTH",
"51 652 OFFCURVE",
"52 732 OFFCURVE",
"55 783 CURVE",
"575 783 LINE",
"575 1005 OFFCURVE",
"575 1061 OFFCURVE",
"575 1073 CURVE SMOOTH",
"575 1154 OFFCURVE",
"569 1240 OFFCURVE",
"489 1240 CURVE SMOOTH",
"403 1240 OFFCURVE",
"405 1105 OFFCURVE",
"405 1017 CURVE SMOOTH",
"405 958 OFFCURVE",
"406 926 OFFCURVE"
);
},
{
closed = 1;
nodes = (
"577 443 CURVE SMOOTH",
"577 467 OFFCURVE",
"577 581 OFFCURVE",
"577 605 CURVE",
"407 605 LINE",
"407 413 LINE SMOOTH",
"407 305 OFFCURVE",
"434 251 OFFCURVE",
"487 251 CURVE SMOOTH",
"574 251 OFFCURVE",
"577 354 OFFCURVE"
);
}
);
width = 982;
}
);
unicode = 0259;
},
{
glyphname = fi;
lastChange = "2016-07-01 05:27:15 +0000";
layers = (
{
layerId = "32DFA59F-C132-4587-B43B-6A11C46F7A16";
paths = (
{
closed = 1;
nodes = (
"498 1533 CURVE SMOOTH",
"456 1533 OFFCURVE",
"453 1500 OFFCURVE",
"453 1453 CURVE SMOOTH",
"453 1434 LINE",
"531 1434 LINE",
"531 1157 LINE",
"460 1157 LINE",
"460 0 LINE",
"105 0 LINE",
"105 1161 LINE",
"40 1161 LINE",
"40 1192 OFFCURVE",
"41 1283 OFFCURVE",
"44 1434 CURVE",
"105 1434 LINE",
"105 1536 LINE SMOOTH",
"105 1697 OFFCURVE",
"186 1778 OFFCURVE",
"347 1778 CURVE SMOOTH",
"424 1778 OFFCURVE",
"485 1768 OFFCURVE",
"531 1749 CURVE",
"531 1528 LINE",
"516 1531 OFFCURVE",
"505 1533 OFFCURVE"
);
},
{
closed = 1;
nodes = (
"1026 1500 LINE",
"1026 0 LINE",
"668 0 LINE",
"668 1500 LINE"
);
},
{
closed = 1;
nodes = (
"1026 1769 LINE",
"1026 1567 LINE",
"668 1567 LINE",
"668 1769 LINE"
);
}
);
width = 1088;
}
);
unicode = FB01;
userData = {
com.typemytype.robofont.layerData = {
};
};
},
{
glyphname = fl;
lastChange = "2016-07-01 05:31:22 +0000";
layers = (
{
layerId = "32DFA59F-C132-4587-B43B-6A11C46F7A16";
paths = (
{
closed = 1;
nodes = (
"498 1533 CURVE SMOOTH",
"456 1533 OFFCURVE",
"453 1500 OFFCURVE",
"453 1453 CURVE SMOOTH",
"453 1434 LINE",
"531 1434 LINE",
"531 1157 LINE",
"460 1157 LINE",
"460 0 LINE",
"105 0 LINE",
"105 1161 LINE",
"40 1161 LINE",
"40 1192 OFFCURVE",
"41 1283 OFFCURVE",
"44 1434 CURVE",
"105 1434 LINE",
"105 1536 LINE SMOOTH",
"105 1697 OFFCURVE",
"186 1778 OFFCURVE",
"347 1778 CURVE SMOOTH",
"424 1778 OFFCURVE",
"485 1768 OFFCURVE",
"531 1749 CURVE",
"531 1528 LINE",
"516 1531 OFFCURVE",
"505 1533 OFFCURVE"
);
},
{
closed = 1;
nodes = (
"675 1767 LINE",
"1039 1767 LINE",
"1039 0 LINE",
"675 0 LINE"
);
}
);
width = 1101;
}
);
unicode = FB02;
userData = {
com.typemytype.robofont.layerData = {
};
};
},
{
glyphname = ampersand;
lastChange = "2016-07-01 04:47:39 +0000";
layers = (
{
layerId = "32DFA59F-C132-4587-B43B-6A11C46F7A16";
paths = (
{
closed = 1;
nodes = (
"356 -21 CURVE SMOOTH",
"137 -21 OFFCURVE",
"35 158 OFFCURVE",
"35 386 CURVE SMOOTH",
"35 661 OFFCURVE",
"114 804 OFFCURVE",
"273 921 CURVE",
"228 1010 OFFCURVE",
"173 1143 OFFCURVE",
"173 1262 CURVE SMOOTH",
"173 1464 OFFCURVE",
"322 1582 OFFCURVE",
"521 1582 CURVE SMOOTH",
"717 1582 OFFCURVE",
"866 1472 OFFCURVE",
"866 1273 CURVE SMOOTH",
"866 1133 OFFCURVE",
"788 1000 OFFCURVE",
"631 875 CURVE",
"694 726 LINE",
"733 827 OFFCURVE",
"791 906 OFFCURVE",
"866 961 CURVE",
"1005 744 LINE",
"927 682 OFFCURVE",
"861 578 OFFCURVE",
"808 432 CURVE",
"987 0 LINE",
"647 0 LINE",
"610 97 LINE",
"558 32 OFFCURVE",
"466 -21 OFFCURVE"
);
},
{
closed = 1;
nodes = (
"341 423 CURVE SMOOTH",
"341 413 LINE SMOOTH",
"341 341 OFFCURVE",
"341 235 OFFCURVE",
"412 235 CURVE SMOOTH",
"469 235 OFFCURVE",
"502 289 OFFCURVE",
"513 334 CURVE",
"391 625 LINE",
"379 606 LINE",
"355 572 OFFCURVE",
"341 488 OFFCURVE"
);
},
{
closed = 1;
nodes = (
"551 1336 CURVE SMOOTH",
"517 1336 OFFCURVE",
"497 1307 OFFCURVE",
"497 1273 CURVE SMOOTH",
"497 1237 OFFCURVE",
"511 1183 OFFCURVE",
"540 1110 CURVE",
"557 1128 LINE SMOOTH",
"582 1155 OFFCURVE",
"610 1219 OFFCURVE",
"610 1273 CURVE SMOOTH",
"610 1315 OFFCURVE",
"590 1336 OFFCURVE"
);
}
);
width = 1035;
}
);
unicode = 0026;
userData = {
com.typemytype.robofont.layerData = {
};
};
},
{
glyphname = at;
lastChange = "2016-07-01 04:47:39 +0000";
layers = (
{
layerId = "32DFA59F-C132-4587-B43B-6A11C46F7A16";
paths = (
{
closed = 1;
nodes = (
"974 687 CURVE SMOOTH",
"974 972 LINE",
"822 972 OFFCURVE",
"818 869 OFFCURVE",
"818 718 CURVE SMOOTH",
"818 644 OFFCURVE",
"835 570 OFFCURVE",
"898 570 CURVE SMOOTH",
"956 570 OFFCURVE",
"974 630 OFFCURVE"
);
},
{
closed = 1;
nodes = (
"354 723 CURVE SMOOTH",
"354 351 OFFCURVE",
"503 206 OFFCURVE",
"871 206 CURVE SMOOTH",
"945 206 OFFCURVE",
"1037 212 OFFCURVE",
"1147 224 CURVE",
"1191 -37 LINE",
"1066 -55 OFFCURVE",
"958 -64 OFFCURVE",
"866 -64 CURVE SMOOTH",
"316 -64 OFFCURVE",
"37 187 OFFCURVE",
"37 726 CURVE SMOOTH",
"37 1377 OFFCURVE",
"358 1630 OFFCURVE",
"1008 1630 CURVE SMOOTH",
"1492 1630 OFFCURVE",
"1777 1343 OFFCURVE",
"1777 867 CURVE SMOOTH",
"1777 535 OFFCURVE",
"1665 268 OFFCURVE",
"1361 268 CURVE SMOOTH",
"1157 268 OFFCURVE",
"1048 337 OFFCURVE",
"1000 494 CURVE",
"960 382 OFFCURVE",
"875 326 OFFCURVE",
"744 326 CURVE SMOOTH",
"549 326 OFFCURVE",
"483 512 OFFCURVE",
"483 718 CURVE SMOOTH",
"483 978 OFFCURVE",
"555 1209 OFFCURVE",
"782 1209 CURVE SMOOTH",
"852 1209 OFFCURVE",
"923 1177 OFFCURVE",
"995 1114 CURVE",
"1035 1226 LINE",
"1296 1226 LINE",
"1296 621 LINE SMOOTH",
"1296 563 OFFCURVE",
"1326 497 OFFCURVE",
"1377 497 CURVE SMOOTH",
"1471 497 OFFCURVE",
"1491 763 OFFCURVE",
"1491 888 CURVE SMOOTH",
"1491 1193 OFFCURVE",
"1322 1365 OFFCURVE",
"1011 1365 CURVE SMOOTH",
"546 1365 OFFCURVE",
"354 1191 OFFCURVE"
);
}
);
width = 1811;
}
);
unicode = 0040;
userData = {
com.typemytype.robofont.layerData = {
};
};
},
{
glyphname = asterisk;
lastChange = "2016-07-01 04:47:39 +0000";
layers = (
{
layerId = "32DFA59F-C132-4587-B43B-6A11C46F7A16";
paths = (
{
closed = 1;
nodes = (
"310 1171 LINE",
"36 1280 LINE",
"152 1480 LINE",
"390 1301 LINE",
"347 1593 LINE",
"579 1593 LINE",
"544 1307 LINE",
"774 1480 LINE",
"890 1280 LINE",
"615 1171 LINE",
"890 1054 LINE",
"774 854 LINE",
"543 1036 LINE",
"579 741 LINE",
"347 741 LINE",
"391 1043 LINE",
"152 854 LINE",
"36 1054 LINE"
);
}
);
width = 926;
}
);
unicode = 002A;
userData = {
com.typemytype.robofont.layerData = {
};
};
},
{
glyphname = copyright;
lastChange = "2016-07-01 04:47:39 +0000";
layers = (
{
layerId = "32DFA59F-C132-4587-B43B-6A11C46F7A16";
paths = (
{
closed = 1;
nodes = (
"691 1390 CURVE SMOOTH",
"402 1390 OFFCURVE",
"193 1153 OFFCURVE",
"193 862 CURVE SMOOTH",
"193 571 OFFCURVE",
"402 334 OFFCURVE",
"691 334 CURVE SMOOTH",
"980 334 OFFCURVE",
"1189 571 OFFCURVE",
"1189 862 CURVE SMOOTH",
"1189 1153 OFFCURVE",
"980 1390 OFFCURVE"
);
},
{
closed = 1;
nodes = (
"691 205 CURVE SMOOTH",
"318 205 OFFCURVE",
"34 489 OFFCURVE",
"34 862 CURVE SMOOTH",
"34 1235 OFFCURVE",
"318 1519 OFFCURVE",
"691 1519 CURVE SMOOTH",
"1064 1519 OFFCURVE",
"1348 1235 OFFCURVE",
"1348 862 CURVE SMOOTH",
"1348 489 OFFCURVE",
"1064 205 OFFCURVE"
);
},
{
closed = 1;
nodes = (
"645 1066 CURVE SMOOTH",
"645 657 LINE SMOOTH",
"645 627 OFFCURVE",
"661 592 OFFCURVE",
"689 592 CURVE SMOOTH",
"720 592 OFFCURVE",
"735 614 OFFCURVE",
"735 657 CURVE SMOOTH",
"735 806 LINE",
"928 806 LINE",
"928 643 LINE SMOOTH",
"928 497 OFFCURVE",
"847 424 OFFCURVE",
"685 424 CURVE SMOOTH",
"546 424 OFFCURVE",
"455 507 OFFCURVE",
"455 648 CURVE SMOOTH",
"455 1049 LINE SMOOTH",
"455 1217 OFFCURVE",
"524 1305 OFFCURVE",
"689 1305 CURVE SMOOTH",
"823 1305 OFFCURVE",
"924 1239 OFFCURVE",
"924 1105 CURVE SMOOTH",
"924 952 LINE",
"735 952 LINE",
"735 1053 LINE SMOOTH",
"735 1104 OFFCURVE",
"720 1130 OFFCURVE",
"689 1130 CURVE SMOOTH",
"652 1130 OFFCURVE",
"645 1104 OFFCURVE"
);
}
);
width = 1382;
}
);
unicode = 00A9;
userData = {
com.typemytype.robofont.layerData = {
};
};
},
{
glyphname = registered;
lastChange = "2016-07-01 04:47:39 +0000";
layers = (
{
layerId = "32DFA59F-C132-4587-B43B-6A11C46F7A16";
paths = (
{
closed = 1;
nodes = (
"691 205 CURVE SMOOTH",
"318 205 OFFCURVE",
"34 489 OFFCURVE",
"34 862 CURVE SMOOTH",
"34 1235 OFFCURVE",
"318 1519 OFFCURVE",
"691 1519 CURVE SMOOTH",
"1064 1519 OFFCURVE",
"1348 1235 OFFCURVE",
"1348 862 CURVE SMOOTH",
"1348 489 OFFCURVE",
"1064 205 OFFCURVE"
);
},
{
closed = 1;
nodes = (
"691 1390 CURVE SMOOTH",
"402 1390 OFFCURVE",
"193 1153 OFFCURVE",
"193 862 CURVE SMOOTH",
"193 571 OFFCURVE",
"402 334 OFFCURVE",
"691 334 CURVE SMOOTH",
"980 334 OFFCURVE",
"1189 571 OFFCURVE",
"1189 862 CURVE SMOOTH",
"1189 1153 OFFCURVE",
"980 1390 OFFCURVE"
);
},
{
closed = 1;
nodes = (
"929 1043 CURVE SMOOTH",
"929 951 OFFCURVE",
"908 896 OFFCURVE",
"836 873 CURVE",
"889 863 OFFCURVE",
"915 822 OFFCURVE",
"915 751 CURVE SMOOTH",
"915 430 LINE",
"731 430 LINE",
"731 762 LINE SMOOTH",
"731 812 OFFCURVE",
"709 818 OFFCURVE",
"659 818 CURVE",
"659 430 LINE",
"469 430 LINE",
"469 1282 LINE",
"758 1282 LINE SMOOTH",
"903 1282 OFFCURVE",
"929 1187 OFFCURVE"
);
},
{
closed = 1;
nodes = (
"660 1124 CURVE",
"660 965 LINE",
"708 965 LINE SMOOTH",
"733 965 OFFCURVE",
"745 991 OFFCURVE",
"745 1043 CURVE SMOOTH",
"745 1114 OFFCURVE",
"730 1124 OFFCURVE"
);
}
);
width = 1382;
}
);
unicode = 00AE;
userData = {
com.typemytype.robofont.layerData = {
};
};
},
{
glyphname = trademark;
lastChange = "2016-07-01 04:47:39 +0000";
layers = (
{
layerId = "32DFA59F-C132-4587-B43B-6A11C46F7A16";
paths = (
{
closed = 1;
nodes = (
"188 1361 LINE",
"30 1361 LINE",
"30 1593 LINE",
"614 1593 LINE",
"614 1361 LINE",
"455 1361 LINE",
"455 386 LINE",
"188 386 LINE"
);
},
{
closed = 1;
nodes = (
"1504 386 LINE",
"1504 1257 LINE",
"1366 386 LINE",
"1126 386 LINE",
"979 1257 LINE",
"979 386 LINE",
"723 386 LINE",
"723 1593 LINE",
"1129 1593 LINE",
"1242 963 LINE",
"1354 1593 LINE",
"1763 1593 LINE",
"1763 386 LINE"
);
}
);
width = 1825;
}
);
unicode = 2122;
userData = {
com.typemytype.robofont.layerData = {
};
};
},
{
glyphname = asciicircum;
lastChange = "2016-07-01 04:47:39 +0000";
layers = (
{
layerId = "32DFA59F-C132-4587-B43B-6A11C46F7A16";
paths = (
{
closed = 1;
nodes = (
"689 1355 LINE",
"930 432 LINE",
"571 432 LINE",
"485 1027 LINE",
"399 432 LINE",
"40 432 LINE",
"281 1355 LINE"
);
}
);
width = 970;
}
);
unicode = 005E;
userData = {
com.typemytype.robofont.layerData = {
};
};
},
{
glyphname = asciitilde;
lastChange = "2016-07-01 04:47:39 +0000";
layers = (
{
layerId = "32DFA59F-C132-4587-B43B-6A11C46F7A16";
paths = (
{
closed = 1;
nodes = (
"639 776 CURVE SMOOTH",
"514 776 OFFCURVE",
"470 886 OFFCURVE",
"357 886 CURVE SMOOTH",
"328 886 OFFCURVE",
"302 860 OFFCURVE",
"279 807 CURVE",
"37 923 LINE",
"118 1122 OFFCURVE",
"228 1222 OFFCURVE",
"367 1222 CURVE SMOOTH",
"475 1222 OFFCURVE",
"548 1114 OFFCURVE",
"650 1114 CURVE SMOOTH",
"679 1114 OFFCURVE",
"706 1140 OFFCURVE",
"729 1193 CURVE",
"971 1077 LINE",
"889 876 OFFCURVE",
"778 776 OFFCURVE"
);
}
);
width = 1009;
}
);
unicode = 007E;
userData = {
com.typemytype.robofont.layerData = {
};
};
},
{
glyphname = grave;
lastChange = "2016-07-01 04:47:39 +0000";
layers = (
{
layerId = "32DFA59F-C132-4587-B43B-6A11C46F7A16";
paths = (
{
closed = 1;
nodes = (
"526 1553 LINE",
"51 1647 LINE",
"51 1994 LINE",
"526 1776 LINE"
);
}
);
width = 650;
}
);
unicode = 0060;
userData = {
com.typemytype.robofont.layerData = {
};
};
},
{
glyphname = acute;
lastChange = "2016-07-01 04:47:39 +0000";
layers = (
{
layerId = "32DFA59F-C132-4587-B43B-6A11C46F7A16";
paths = (
{
closed = 1;
nodes = (
"41 1553 LINE",
"41 1776 LINE",
"516 1994 LINE",
"516 1647 LINE"
);
}
);
width = 650;
}
);
unicode = 00B4;
userData = {
com.typemytype.robofont.layerData = {
};
};
},
{
glyphname = circumflex;
lastChange = "2016-07-01 04:47:39 +0000";
layers = (
{
layerId = "32DFA59F-C132-4587-B43B-6A11C46F7A16";
paths = (
{
closed = 1;
nodes = (
"689 1994 LINE",
"930 1591 LINE",
"571 1591 LINE",
"485 1876 LINE",
"399 1591 LINE",
"40 1591 LINE",
"281 1994 LINE"
);
}
);
width = 970;
}
);
unicode = 02C6;
userData = {
com.typemytype.robofont.layerData = {
};
};
},
{
glyphname = caron;
lastChange = "2016-07-01 04:47:39 +0000";
layers = (
{
layerId = "32DFA59F-C132-4587-B43B-6A11C46F7A16";
paths = (
{
closed = 1;
nodes = (
"689 1591 LINE",
"281 1591 LINE",
"40 1994 LINE",
"399 1994 LINE",
"485 1709 LINE",
"571 1994 LINE",
"930 1994 LINE"
);
}
);
width = 970;
}
);
unicode = 02C7;
userData = {
com.typemytype.robofont.layerData = {
};
};
},
{
glyphname = tilde;
lastChange = "2016-07-01 07:32:32 +0000";
layers = (
{
layerId = "32DFA59F-C132-4587-B43B-6A11C46F7A16";
paths = (
{
closed = 1;
nodes = (
"642 1602 CURVE SMOOTH",
"523 1602 OFFCURVE",
"513 1712 OFFCURVE",
"410 1712 CURVE SMOOTH",
"369 1712 OFFCURVE",
"341 1682 OFFCURVE",
"312 1623 CURVE",
"90 1729 LINE",
"140 1861 OFFCURVE",
"205 1988 OFFCURVE",
"350 1988 CURVE SMOOTH",
"476 1988 OFFCURVE",
"481 1880 OFFCURVE",
"593 1880 CURVE SMOOTH",
"635 1880 OFFCURVE",
"649 1906 OFFCURVE",
"672 1959 CURVE",
"904 1903 LINE",
"856 1756 OFFCURVE",
"782 1602 OFFCURVE"
);
}
);
width = 1015;
},
{
associatedMasterId = "32DFA59F-C132-4587-B43B-6A11C46F7A16";
layerId = "14A5F121-E7E2-41C3-86CD-764BC7BD7049";
name = "Condensed Jul 1 16, 13:01";
paths = (
{
closed = 1;
nodes = (
"612 1602 CURVE SMOOTH",
"501.876 1602 OFFCURVE",
"468.757 1712 OFFCURVE",
"370 1712 CURVE SMOOTH",
"348.667 1712 OFFCURVE",
"329.333 1682.33 OFFCURVE",
"312 1623 CURVE",
"90 1729 LINE",
"143.726 1860.78 OFFCURVE",
"214.273 1988 OFFCURVE",
"370 1988 CURVE SMOOTH",
"463.558 1988 OFFCURVE",
"523.727 1880 OFFCURVE",
"613 1880 CURVE SMOOTH",
"635 1880 OFFCURVE",
"654.667 1906.33 OFFCURVE",
"672 1959 CURVE",
"904 1903 LINE",
"850.217 1756.32 OFFCURVE",
"776.696 1602 OFFCURVE"
);
}
);
width = 1015;
}
);
unicode = 02DC;
userData = {
com.typemytype.robofont.layerData = {
};
};
},
{
glyphname = dieresis;
lastChange = "2016-07-01 04:47:39 +0000";
layers = (
{
layerId = "32DFA59F-C132-4587-B43B-6A11C46F7A16";
paths = (
{
closed = 1;
nodes = (
"67 1591 LINE",
"67 1889 LINE",
"425 1889 LINE",
"425 1591 LINE"
);
},
{
closed = 1;
nodes = (
"551 1591 LINE",
"551 1889 LINE",
"909 1889 LINE",
"909 1591 LINE"
);
}
);
width = 976;
}
);
unicode = 00A8;
userData = {
com.typemytype.robofont.layerData = {
};
};
},
{
glyphname = macron;
lastChange = "2016-07-01 07:27:17 +0000";
layers = (
{
layerId = "32DFA59F-C132-4587-B43B-6A11C46F7A16";
paths = (
{
closed = 1;
nodes = (
"100 1591 LINE",
"100 1889 LINE",
"960 1889 LINE",
"960 1591 LINE"
);
}
);
width = 1060;
}
);
unicode = 00AF;
userData = {
com.typemytype.robofont.layerData = {
};
};
},
{
glyphname = breve;
lastChange = "2016-07-01 04:47:39 +0000";
layers = (
{
layerId = "32DFA59F-C132-4587-B43B-6A11C46F7A16";
paths = (
{
closed = 1;
nodes = (
"503 1832 CURVE SMOOTH",
"576.076 1832 OFFCURVE",
"618 1869.07 OFFCURVE",
"618 1944 CURVE SMOOTH",
"618 1944.67 OFFCURVE",
"723.333 1945 OFFCURVE",
"934 1945 CURVE",
"935.333 1929 OFFCURVE",
"936 1917.33 OFFCURVE",
"936 1910 CURVE SMOOTH",
"936 1687.29 OFFCURVE",
"740.732 1592 OFFCURVE",
"501 1592 CURVE SMOOTH",
"266.92 1592 OFFCURVE",
"69 1685.74 OFFCURVE",
"69 1903 CURVE SMOOTH",
"69 1917 OFFCURVE",
"70 1931 OFFCURVE",
"72 1945 CURVE",
"388 1944 LINE",
"388 1869.06 OFFCURVE",
"429.915 1832 OFFCURVE"
);
}
);
width = 1015;
}
);
unicode = 02D8;
userData = {
com.typemytype.robofont.layerData = {
};
};
},
{
glyphname = ring;
lastChange = "2016-07-01 04:47:39 +0000";
layers = (
{
layerId = "32DFA59F-C132-4587-B43B-6A11C46F7A16";
paths = (
{
closed = 1;
nodes = (
"403 607 CURVE SMOOTH",
"313.858 607 OFFCURVE",
"261 537.146 OFFCURVE",
"261 450 CURVE SMOOTH",
"261 363.433 OFFCURVE",
"314.041 293 OFFCURVE",
"403 293 CURVE SMOOTH",
"491.97 293 OFFCURVE",
"545 363.42 OFFCURVE",
"545 450 CURVE SMOOTH",
"545 536.567 OFFCURVE",
"491.959 607 OFFCURVE"
);
},
{
closed = 1;
nodes = (
"402 112 CURVE SMOOTH",
"188.096 112 OFFCURVE",
"49 238.073 OFFCURVE",
"49 450 CURVE SMOOTH",
"49 661.401 OFFCURVE",
"188.246 788 OFFCURVE",
"402 788 CURVE SMOOTH",
"615.74 788 OFFCURVE",
"756 661.408 OFFCURVE",
"756 450 CURVE SMOOTH",
"756 238.605 OFFCURVE",
"615.72 112 OFFCURVE"
);
}
);
width = 804;
}
);
unicode = 02DA;
userData = {
com.typemytype.robofont.layerData = {
};
};
},
{
glyphname = hungarumlaut;
lastChange = "2016-07-01 04:47:39 +0000";
layers = (
{
layerId = "32DFA59F-C132-4587-B43B-6A11C46F7A16";
paths = (
{
closed = 1;
nodes = (
"423 1236 LINE",
"257 1294 LINE",
"441 1773 LINE",
"671 1665 LINE"
);
},
{
closed = 1;
nodes = (
"725 1236 LINE",
"559 1294 LINE",
"780 1773 LINE",
"1014 1665 LINE"
);
}
);
width = 1300;
}
);
unicode = 02DD;
userData = {
com.typemytype.robofont.layerData = {
};
};
},
{
glyphname = dotaccent;
lastChange = "2016-07-01 04:47:39 +0000";
layers = (
{
layerId = "32DFA59F-C132-4587-B43B-6A11C46F7A16";
paths = (
{
closed = 1;
nodes = (
"67 1592 LINE",
"67 1890 LINE",
"425 1890 LINE",
"425 1592 LINE"
);
}
);
width = 491;
}
);
unicode = 02D9;
userData = {
com.typemytype.robofont.layerData = {
};
};
},
{
glyphname = cedilla;
lastChange = "2016-07-01 04:47:39 +0000";
layers = (
{
layerId = "32DFA59F-C132-4587-B43B-6A11C46F7A16";
paths = (
{
closed = 1;
nodes = (
"852 -330 CURVE SMOOTH",
"852 -518.601 OFFCURVE",
"694.03 -631 OFFCURVE",
"504 -631 CURVE SMOOTH",
"436 -631 OFFCURVE",
"370 -617.667 OFFCURVE",
"306 -591 CURVE",
"306 -368 LINE",
"350 -383.333 OFFCURVE",
"388.667 -391 OFFCURVE",
"422 -391 CURVE SMOOTH",
"495.076 -391 OFFCURVE",
"537 -353.935 OFFCURVE",
"537 -279 CURVE SMOOTH",
"537 -188.756 OFFCURVE",
"459.208 -123.538 OFFCURVE",
"377 -106 CURVE",
"377 0 LINE",
"588 0 LINE",
"588 -76 LINE",
"730.506 -95.076 OFFCURVE",
"852 -183.122 OFFCURVE"
);
}
);
width = 1015;
}
);
unicode = 00B8;
userData = {
com.typemytype.robofont.layerData = {
};
};
},
{
glyphname = ogonek;
lastChange = "2016-07-01 04:47:39 +0000";
layers = (
{
layerId = "32DFA59F-C132-4587-B43B-6A11C46F7A16";
paths = (
{
closed = 1;
nodes = (
"621 -279 CURVE SMOOTH",
"621 -353.943 OFFCURVE",
"662.915 -391 OFFCURVE",
"736 -391 CURVE SMOOTH",
"769.333 -391 OFFCURVE",
"808 -383.333 OFFCURVE",
"852 -368 CURVE",
"852 -591 LINE",
"788 -617.667 OFFCURVE",
"722 -631 OFFCURVE",
"654 -631 CURVE SMOOTH",
"463.943 -631 OFFCURVE",
"306 -518.613 OFFCURVE",
"306 -330 CURVE SMOOTH",
"306 -209.333 OFFCURVE",
"394 -99.333 OFFCURVE",
"570 0 CURVE",
"781 0 LINE",
"706.889 -89.992 OFFCURVE",
"621 -168.689 OFFCURVE"
);
}
);
width = 1015;
}
);
unicode = 02DB;
userData = {
com.typemytype.robofont.layerData = {
};
};
},
{
glyphname = gravecomb;
lastChange = "2016-07-01 10:18:11 +0000";
layers = (
{
anchors = (
{
name = _top;
position = "{1, 1500}";
},
{
name = top;
position = "{1, 1994}";
}
);
layerId = "32DFA59F-C132-4587-B43B-6A11C46F7A16";
paths = (
{
closed = 1;
nodes = (
"238 1553 LINE",
"-237 1647 LINE",
"-237 1994 LINE",
"238 1776 LINE"
);
}
);
width = 0;
}
);
unicode = 0300;
},
{
glyphname = gravecomb.case;
lastChange = "2016-07-01 10:49:28 +0000";
layers = (
{
anchors = (
{
name = _top;
position = "{1, 1761}";
},
{
name = top;
position = "{1, 2256}";
}
);
layerId = "32DFA59F-C132-4587-B43B-6A11C46F7A16";
paths = (
{
closed = 1;
nodes = (
"242 1792 LINE",
"-233 1886 LINE",
"-233 2233 LINE",
"242 2015 LINE"
);
}
);
width = 0;
}
);
},
{
glyphname = acutecomb;
lastChange = "2016-07-01 10:50:33 +0000";
layers = (
{
anchors = (
{
name = _top;
position = "{0, 1500}";
},
{
name = top;
position = "{-2, 1914}";
}
);
layerId = "32DFA59F-C132-4587-B43B-6A11C46F7A16";
paths = (
{
closed = 1;
nodes = (
"-239 1543 LINE",
"-239 1766 LINE",
"236 1984 LINE",
"236 1637 LINE"
);
}
);
width = 0;
}
);
unicode = 0301;
},
{
glyphname = acutecomb.case;
lastChange = "2016-07-01 11:38:19 +0000";
layers = (
{
anchors = (
{
name = _top_case;
position = "{1, 1500}";
}
);
layerId = "32DFA59F-C132-4587-B43B-6A11C46F7A16";
paths = (
{
closed = 1;
nodes = (
"-242 1789 LINE",
"-242 2012 LINE",
"233 2230 LINE",
"233 1883 LINE"
);
}
);
width = 0;
}
);
},
{
glyphname = circumflexcomb;
lastChange = "2016-07-01 11:45:32 +0000";
layers = (
{
anchors = (
{
name = _top;
position = "{0, 1500}";
},
{
name = top;
position = "{0, 1994}";
}
);
layerId = "32DFA59F-C132-4587-B43B-6A11C46F7A16";
paths = (
{
closed = 1;
nodes = (
"204 1964 LINE",
"445 1561 LINE",
"86 1561 LINE",
"0 1846 LINE",
"-86 1561 LINE",
"-445 1561 LINE",
"-204 1964 LINE"
);
}
);
width = 0;
}
);
unicode = 0302;
},
{
glyphname = circumflexcomb.case;
lastChange = "2016-07-01 10:49:28 +0000";
layers = (
{
anchors = (
{
name = _top;
position = "{-4, 1761}";
},
{
name = top;
position = "{-4, 1994}";
}
);
layerId = "32DFA59F-C132-4587-B43B-6A11C46F7A16";
paths = (
{
closed = 1;
nodes = (
"200 1994 LINE",
"441 1591 LINE",
"82 1591 LINE",
"-4 1876 LINE",
"-90 1591 LINE",
"-449 1591 LINE",
"-208 1994 LINE"
);
}
);
width = 0;
}
);
},
{
glyphname = tildecomb;
lastChange = "2016-07-01 10:35:18 +0000";
layers = (
{
anchors = (
{
name = _top;
position = "{-3, 1500}";
},
{
name = top;
position = "{-3, 1988}";
}
);
layerId = "32DFA59F-C132-4587-B43B-6A11C46F7A16";
paths = (
{
closed = 1;
nodes = (
"142 1602 CURVE SMOOTH",
"23 1602 OFFCURVE",
"13 1712 OFFCURVE",
"-90 1712 CURVE SMOOTH",
"-131 1712 OFFCURVE",
"-159 1682 OFFCURVE",
"-188 1623 CURVE",
"-410 1729 LINE",
"-360 1861 OFFCURVE",
"-295 1988 OFFCURVE",
"-150 1988 CURVE SMOOTH",
"-24 1988 OFFCURVE",
"-19 1880 OFFCURVE",
"93 1880 CURVE SMOOTH",
"135 1880 OFFCURVE",
"149 1906 OFFCURVE",
"172 1959 CURVE",
"404 1903 LINE",
"356 1756 OFFCURVE",
"282 1602 OFFCURVE"
);
}
);
width = 0;
}
);
unicode = 0303;
},
{
glyphname = tildecomb.case;
lastChange = "2016-07-01 10:49:28 +0000";
layers = (
{
anchors = (
{
name = _top;
position = "{-3, 1761}";
},
{
name = top;
position = "{-3, 1988}";
}
);
layerId = "32DFA59F-C132-4587-B43B-6A11C46F7A16";
paths = (
{
closed = 1;
nodes = (
"142 1602 CURVE SMOOTH",
"23 1602 OFFCURVE",
"13 1712 OFFCURVE",
"-90 1712 CURVE SMOOTH",
"-131 1712 OFFCURVE",
"-159 1682 OFFCURVE",
"-188 1623 CURVE",
"-410 1729 LINE",
"-360 1861 OFFCURVE",
"-295 1988 OFFCURVE",
"-150 1988 CURVE SMOOTH",
"-24 1988 OFFCURVE",
"-19 1880 OFFCURVE",
"93 1880 CURVE SMOOTH",
"135 1880 OFFCURVE",
"149 1906 OFFCURVE",
"172 1959 CURVE",
"404 1903 LINE",
"356 1756 OFFCURVE",
"282 1602 OFFCURVE"
);
}
);
width = 0;
}
);
},
{
glyphname = macroncomb;
lastChange = "2016-07-01 10:35:28 +0000";
layers = (
{
anchors = (
{
name = _top;
position = "{17, 1500}";
},
{
name = top;
position = "{17, 1889}";
}
);
layerId = "32DFA59F-C132-4587-B43B-6A11C46F7A16";
paths = (
{
closed = 1;
nodes = (
"-413 1591 LINE",
"-413 1889 LINE",
"447 1889 LINE",
"447 1591 LINE"
);
}
);
width = 0;
}
);
unicode = 0304;
},
{
glyphname = macroncomb.case;
lastChange = "2016-07-01 10:49:28 +0000";
layers = (
{
anchors = (
{
name = _top;
position = "{17, 1761}";
},
{
name = top;
position = "{17, 1889}";
}
);
layerId = "32DFA59F-C132-4587-B43B-6A11C46F7A16";
paths = (
{
closed = 1;
nodes = (
"-413 1591 LINE",
"-413 1889 LINE",
"447 1889 LINE",
"447 1591 LINE"
);
}
);
width = 0;
}
);
},
{
glyphname = brevecomb;
lastChange = "2016-07-01 11:43:28 +0000";
layers = (
{
anchors = (
{
name = _top;
position = "{0, 1500}";
},
{
name = top;
position = "{0, 1926}";
}
);
layerId = "32DFA59F-C132-4587-B43B-6A11C46F7A16";
paths = (
{
closed = 1;
nodes = (
"2 1798 CURVE SMOOTH",
"75 1798 OFFCURVE",
"117 1835 OFFCURVE",
"117 1910 CURVE SMOOTH",
"117 1911 OFFCURVE",
"222 1911 OFFCURVE",
"433 1911 CURVE",
"434 1895 OFFCURVE",
"435 1883 OFFCURVE",
"435 1876 CURVE SMOOTH",
"435 1653 OFFCURVE",
"240 1558 OFFCURVE",
"0 1558 CURVE SMOOTH",
"-234 1558 OFFCURVE",
"-432 1652 OFFCURVE",
"-432 1869 CURVE SMOOTH",
"-432 1883 OFFCURVE",
"-431 1897 OFFCURVE",
"-429 1911 CURVE",
"-113 1910 LINE",
"-113 1835 OFFCURVE",
"-71 1798 OFFCURVE"
);
}
);
width = 0;
}
);
unicode = 0306;
},
{
glyphname = brevecomb.case;
lastChange = "2016-07-01 12:59:48 +0000";
layers = (
{
anchors = (
{
name = _top_UC;
position = "{0, 1761}";
},
{
name = top_UC;
position = "{0, 2126}";
}
);
layerId = "32DFA59F-C132-4587-B43B-6A11C46F7A16";
paths = (
{
closed = 1;
nodes = (
"-113 2085 OFFCURVE",
"-71 2048 OFFCURVE",
"2 2048 CURVE SMOOTH",
"75 2048 OFFCURVE",
"117 2085 OFFCURVE",
"117 2160 CURVE SMOOTH",
"117 2161 OFFCURVE",
"222 2161 OFFCURVE",
"433 2161 CURVE",
"434 2145 OFFCURVE",
"435 2133 OFFCURVE",
"435 2126 CURVE SMOOTH",
"435 1903 OFFCURVE",
"240 1808 OFFCURVE",
"0 1808 CURVE SMOOTH",
"-234 1808 OFFCURVE",
"-432 1902 OFFCURVE",
"-432 2119 CURVE SMOOTH",
"-432 2133 OFFCURVE",
"-431 2147 OFFCURVE",
"-429 2161 CURVE",
"-113 2160 LINE"
);
}
);
width = 0;
}
);
},
{
glyphname = dotaccentcomb;
lastChange = "2016-07-01 10:35:45 +0000";
layers = (
{
anchors = (
{
name = _top;
position = "{7, 1500}";
},
{
name = top;
position = "{7, 1890}";
}
);
layerId = "32DFA59F-C132-4587-B43B-6A11C46F7A16";
paths = (
{
closed = 1;
nodes = (
"-177 1592 LINE",
"-177 1890 LINE",
"181 1890 LINE",
"181 1592 LINE"
);
}
);
width = 0;
}
);
unicode = 0307;
},
{
glyphname = dotaccentcomb.case;
lastChange = "2016-07-01 10:49:28 +0000";
layers = (
{
anchors = (
{
name = _top;
position = "{7, 1761}";
},
{
name = top;
position = "{7, 1890}";
}
);
layerId = "32DFA59F-C132-4587-B43B-6A11C46F7A16";
paths = (
{
closed = 1;
nodes = (
"-177 1592 LINE",
"-177 1890 LINE",
"181 1890 LINE",
"181 1592 LINE"
);
}
);
width = 0;
}
);
},
{
glyphname = dieresiscomb;
lastChange = "2016-07-01 10:35:57 +0000";
layers = (
{
anchors = (
{
name = _top;
position = "{-1, 1500}";
},
{
name = top;
position = "{-1, 1889}";
}
);
layerId = "32DFA59F-C132-4587-B43B-6A11C46F7A16";
paths = (
{
closed = 1;
nodes = (
"-422 1591 LINE",
"-422 1889 LINE",
"-64 1889 LINE",
"-64 1591 LINE"
);
},
{
closed = 1;
nodes = (
"62 1591 LINE",
"62 1889 LINE",
"420 1889 LINE",
"420 1591 LINE"
);
}
);
width = 0;
}
);
unicode = 0308;
},
{
glyphname = dieresiscomb.case;
lastChange = "2016-07-01 10:49:28 +0000";
layers = (
{
anchors = (
{
name = _top;
position = "{-1, 1761}";
},
{
name = top;
position = "{-1, 1889}";
}
);
layerId = "32DFA59F-C132-4587-B43B-6A11C46F7A16";
paths = (
{
closed = 1;
nodes = (
"-422 1591 LINE",
"-422 1889 LINE",
"-64 1889 LINE",
"-64 1591 LINE"
);
},
{
closed = 1;
nodes = (
"62 1591 LINE",
"62 1889 LINE",
"420 1889 LINE",
"420 1591 LINE"
);
}
);
width = 0;
}
);
},
{
glyphname = hookabovecomb;
lastChange = "2016-07-01 11:41:08 +0000";
layers = (
{
anchors = (
{
name = _top;
position = "{0, 1500}";
},
{
name = top;
position = "{14, 2249}";
}
);
layerId = "32DFA59F-C132-4587-B43B-6A11C46F7A16";
paths = (
{
closed = 1;
nodes = (
"244 1675 OFFCURVE",
"101 1655 CURVE",
"101 1539 LINE",
"-110 1539 LINE",
"-110 1715 LINE",
"-19 1715 OFFCURVE",
"50 1752 OFFCURVE",
"50 1845 CURVE SMOOTH",
"50 1922 OFFCURVE",
"3 1960 OFFCURVE",
"-80 1960 CURVE SMOOTH",
"-116 1960 OFFCURVE",
"-152 1954 OFFCURVE",
"-181 1944 CURVE",
"-181 2167 LINE",
"-111 2189 OFFCURVE",
"-38 2200 OFFCURVE",
"37 2200 CURVE SMOOTH",
"229 2200 OFFCURVE",
"365 2088 OFFCURVE",
"365 1929 CURVE SMOOTH",
"365 1761 OFFCURVE"
);
}
);
width = 0;
}
);
unicode = 0309;
},
{
glyphname = hookabovecomb.case;
lastChange = "2016-07-01 10:49:28 +0000";
layers = (
{
anchors = (
{
name = _top;
position = "{79, 1761}";
},
{
name = top;
position = "{79, 2000}";
}
);
layerId = "32DFA59F-C132-4587-B43B-6A11C46F7A16";
paths = (
{
closed = 1;
nodes = (
"231 1475 OFFCURVE",
"88 1455 CURVE",
"88 1339 LINE",
"-123 1339 LINE",
"-123 1515 LINE",
"-32 1515 OFFCURVE",
"37 1552 OFFCURVE",
"37 1645 CURVE SMOOTH",
"37 1722 OFFCURVE",
"-10 1760 OFFCURVE",
"-93 1760 CURVE SMOOTH",
"-129 1760 OFFCURVE",
"-165 1754 OFFCURVE",
"-194 1744 CURVE",
"-194 1967 LINE",
"-124 1989 OFFCURVE",
"-51 2000 OFFCURVE",
"24 2000 CURVE SMOOTH",
"216 2000 OFFCURVE",
"352 1888 OFFCURVE",
"352 1729 CURVE SMOOTH",
"352 1561 OFFCURVE"
);
}
);
width = 0;
}
);
},
{
glyphname = ringcomb;
lastChange = "2016-07-01 10:33:53 +0000";
layers = (
{
anchors = (
{
name = _top;
position = "{0, 1285}";
},
{
name = top;
position = "{-14, 1986}";
}
);
layerId = "32DFA59F-C132-4587-B43B-6A11C46F7A16";
paths = (
{
closed = 1;
nodes = (
"-3 1805 CURVE SMOOTH",
"-92 1805 OFFCURVE",
"-145 1735 OFFCURVE",
"-145 1648 CURVE SMOOTH",
"-145 1561 OFFCURVE",
"-92 1491 OFFCURVE",
"-3 1491 CURVE SMOOTH",
"86 1491 OFFCURVE",
"139 1561 OFFCURVE",
"139 1648 CURVE SMOOTH",
"139 1735 OFFCURVE",
"86 1805 OFFCURVE"
);
},
{
closed = 1;
nodes = (
"-4 1310 CURVE SMOOTH",
"-218 1310 OFFCURVE",
"-357 1436 OFFCURVE",
"-357 1648 CURVE SMOOTH",
"-357 1859 OFFCURVE",
"-218 1986 OFFCURVE",
"-4 1986 CURVE SMOOTH",
"210 1986 OFFCURVE",
"350 1859 OFFCURVE",
"350 1648 CURVE SMOOTH",
"350 1437 OFFCURVE",
"210 1310 OFFCURVE"
);
}
);
width = 0;
}
);
unicode = 030A;
},
{
glyphname = ringcomb.case;
lastChange = "2016-07-01 10:32:50 +0000";
layers = (
{
anchors = (
{
name = _top;
position = "{0, 1761}";
},
{
name = top;
position = "{0, 2411}";
}
);
layerId = "32DFA59F-C132-4587-B43B-6A11C46F7A16";
paths = (
{
closed = 1;
nodes = (
"1 2205 CURVE SMOOTH",
"-88 2205 OFFCURVE",
"-141 2153 OFFCURVE",
"-141 2088 CURVE SMOOTH",
"-141 2023 OFFCURVE",
"-88 1971 OFFCURVE",
"1 1971 CURVE SMOOTH",
"90 1971 OFFCURVE",
"143 2023 OFFCURVE",
"143 2088 CURVE SMOOTH",
"143 2153 OFFCURVE",
"90 2205 OFFCURVE"
);
},
{
closed = 1;
nodes = (
"0 1790 CURVE SMOOTH",
"-214 1790 OFFCURVE",
"-353 1901 OFFCURVE",
"-353 2088 CURVE SMOOTH",
"-353 2274 OFFCURVE",
"-214 2386 OFFCURVE",
"0 2386 CURVE SMOOTH",
"214 2386 OFFCURVE",
"354 2274 OFFCURVE",
"354 2088 CURVE SMOOTH",
"354 1902 OFFCURVE",
"214 1790 OFFCURVE"
);
}
);
width = 0;
}
);
},
{
glyphname = hungarumlautcomb;
lastChange = "2016-07-01 10:49:28 +0000";
layers = (
{
anchors = (
{
name = _top;
position = "{6, 1500}";
},
{
name = top;
position = "{6, 1773}";
}
);
layerId = "32DFA59F-C132-4587-B43B-6A11C46F7A16";
paths = (
{
closed = 1;
nodes = (
"-207 1236 LINE",
"-373 1294 LINE",
"-189 1773 LINE",
"41 1665 LINE"
);
},
{
closed = 1;
nodes = (
"95 1236 LINE",
"-71 1294 LINE",
"150 1773 LINE",
"384 1665 LINE"
);
}
);
width = 0;
}
);
unicode = 030B;
},
{
glyphname = hungarumlautcomb.case;
lastChange = "2016-07-01 10:49:28 +0000";
layers = (
{
anchors = (
{
name = _top;
position = "{6, 1761}";
},
{
name = top;
position = "{6, 1773}";
}
);
layerId = "32DFA59F-C132-4587-B43B-6A11C46F7A16";
paths = (
{
closed = 1;
nodes = (
"-207 1236 LINE",
"-373 1294 LINE",
"-189 1773 LINE",
"41 1665 LINE"
);
},
{
closed = 1;
nodes = (
"95 1236 LINE",
"-71 1294 LINE",
"150 1773 LINE",
"384 1665 LINE"
);
}
);
width = 0;
}
);
},
{
glyphname = caroncomb;
lastChange = "2016-07-01 10:36:07 +0000";
layers = (
{
anchors = (
{
name = _top;
position = "{0, 1500}";
},
{
name = top;
position = "{0, 1994}";
}
);
layerId = "32DFA59F-C132-4587-B43B-6A11C46F7A16";
paths = (
{
closed = 1;
nodes = (
"204 1591 LINE",
"-204 1591 LINE",
"-445 1994 LINE",
"-86 1994 LINE",
"0 1709 LINE",
"86 1994 LINE",
"445 1994 LINE"
);
}
);
width = 0;
}
);
unicode = 030C;
},
{
glyphname = caroncomb.case;
lastChange = "2016-07-01 10:49:28 +0000";
layers = (
{
anchors = (
{
name = _top;
position = "{0, 1761}";
},
{
name = top;
position = "{0, 1994}";
}
);
layerId = "32DFA59F-C132-4587-B43B-6A11C46F7A16";
paths = (
{
closed = 1;
nodes = (
"204 1591 LINE",
"-204 1591 LINE",
"-445 1994 LINE",
"-86 1994 LINE",
"0 1709 LINE",
"86 1994 LINE",
"445 1994 LINE"
);
}
);
width = 0;
}
);
},
{
glyphname = caroncomb.alt;
lastChange = "2016-07-01 05:56:21 +0000";
layers = (
{
anchors = (
{
name = _topright;
position = "{0, 1767}";
}
);
layerId = "32DFA59F-C132-4587-B43B-6A11C46F7A16";
paths = (
{
closed = 1;
nodes = (
"359 1769 LINE",
"295 1294 LINE",
"82 1294 LINE",
"82 1769 LINE"
);
}
);
width = 0;
}
);
},
{
glyphname = breveinvertedcomb;
lastChange = "2016-07-01 10:14:47 +0000";
layers = (
{
anchors = (
{
name = _top;
position = "{1, 1500}";
},
{
name = top;
position = "{1, 1945}";
}
);
layerId = "32DFA59F-C132-4587-B43B-6A11C46F7A16";
paths = (
{
closed = 1;
nodes = (
"-114 1668 OFFCURVE",
"-114 1593 CURVE",
"-430 1592 LINE",
"-432 1606 OFFCURVE",
"-433 1620 OFFCURVE",
"-433 1634 CURVE SMOOTH",
"-433 1851 OFFCURVE",
"-235 1945 OFFCURVE",
"-1 1945 CURVE SMOOTH",
"239 1945 OFFCURVE",
"434 1850 OFFCURVE",
"434 1627 CURVE SMOOTH",
"434 1620 OFFCURVE",
"433 1608 OFFCURVE",
"432 1592 CURVE",
"221 1592 OFFCURVE",
"116 1592 OFFCURVE",
"116 1593 CURVE SMOOTH",
"116 1668 OFFCURVE",
"74 1705 OFFCURVE",
"1 1705 CURVE SMOOTH",
"-72 1705 OFFCURVE"
);
}
);
width = 0;
}
);
unicode = 0311;
},
{
glyphname = breveinvertedcomb.case;
lastChange = "2016-07-01 10:49:28 +0000";
layers = (
{
anchors = (
{
name = _top;
position = "{1, 1761}";
},
{
name = top;
position = "{1, 1945}";
}
);
layerId = "32DFA59F-C132-4587-B43B-6A11C46F7A16";
paths = (
{
closed = 1;
nodes = (
"-114 1668 OFFCURVE",
"-114 1593 CURVE",
"-430 1592 LINE",
"-432 1606 OFFCURVE",
"-433 1620 OFFCURVE",
"-433 1634 CURVE SMOOTH",
"-433 1851 OFFCURVE",
"-235 1945 OFFCURVE",
"-1 1945 CURVE SMOOTH",
"239 1945 OFFCURVE",
"434 1850 OFFCURVE",
"434 1627 CURVE SMOOTH",
"434 1620 OFFCURVE",
"433 1608 OFFCURVE",
"432 1592 CURVE",
"221 1592 OFFCURVE",
"116 1592 OFFCURVE",
"116 1593 CURVE SMOOTH",
"116 1668 OFFCURVE",
"74 1705 OFFCURVE",
"1 1705 CURVE SMOOTH",
"-72 1705 OFFCURVE"
);
}
);
width = 0;
}
);
},
{
glyphname = dblgravecomb;
lastChange = "2016-07-01 10:14:47 +0000";
layers = (
{
anchors = (
{
name = _top;
position = "{-94, 1500}";
},
{
name = top;
position = "{-94, 1773}";
}
);
layerId = "32DFA59F-C132-4587-B43B-6A11C46F7A16";
paths = (
{
closed = 1;
nodes = (
"101 1773 LINE",
"285 1294 LINE",
"119 1236 LINE",
"-129 1665 LINE"
);
},
{
closed = 1;
nodes = (
"-238 1773 LINE",
"-17 1294 LINE",
"-183 1236 LINE",
"-472 1665 LINE"
);
}
);
width = 0;
}
);
unicode = 030F;
userData = {
com.typemytype.robofont.layerData = {
};
};
},
{
glyphname = dblgravecomb.case;
lastChange = "2016-07-01 10:49:28 +0000";
layers = (
{
anchors = (
{
name = _top;
position = "{-94, 1761}";
},
{
name = top;
position = "{-94, 1773}";
}
);
layerId = "32DFA59F-C132-4587-B43B-6A11C46F7A16";
paths = (
{
closed = 1;
nodes = (
"101 1773 LINE",
"285 1294 LINE",
"119 1236 LINE",
"-129 1665 LINE"
);
},
{
closed = 1;
nodes = (
"-238 1773 LINE",
"-17 1294 LINE",
"-183 1236 LINE",
"-472 1665 LINE"
);
}
);
width = 0;
}
);
},
{
glyphname = horncomb;
lastChange = "2016-07-01 10:14:47 +0000";
layers = (
{
anchors = (
{
name = _topright;
position = "{0, 1503}";
},
{
name = topright;
position = "{272, 1500}";
}
);
layerId = "32DFA59F-C132-4587-B43B-6A11C46F7A16";
paths = (
{
closed = 1;
nodes = (
"118 1551 OFFCURVE",
"77 1558 OFFCURVE",
"37 1572 CURVE",
"37 1761 LINE",
"114 1761 LINE SMOOTH",
"189 1761 OFFCURVE",
"229 1800 OFFCURVE",
"229 1886 CURVE SMOOTH",
"229 2013 LINE",
"507 2014 LINE",
"507 1894 LINE SMOOTH",
"507 1644 OFFCURVE",
"357 1551 OFFCURVE",
"172 1551 CURVE"
);
}
);
width = 0;
},
{
anchors = (
{
name = _topright;
position = "{0, 1503}";
}
);
associatedMasterId = "32DFA59F-C132-4587-B43B-6A11C46F7A16";
layerId = "5BAE9A37-F246-42F7-959C-5E92FF64401A";
name = "Condensed Jul 1 16, 13:23";
paths = (
{
closed = 1;
nodes = (
"359 1482 OFFCURVE",
"509 1610 OFFCURVE",
"509 1910 CURVE SMOOTH",
"509 1917 OFFCURVE",
"508 1929 OFFCURVE",
"507 1945 CURVE",
"231 1944 LINE",
"231 1775 OFFCURVE",
"188 1692 OFFCURVE",
"86 1692 CURVE SMOOTH",
"57 1692 OFFCURVE",
"29 1696 OFFCURVE",
"0 1705 CURVE",
"0 1503 LINE",
"52 1489 OFFCURVE",
"105 1482 OFFCURVE",
"174 1482 CURVE"
);
}
);
width = 0;
}
);
unicode = 031B;
},
{
glyphname = horncomb.case;
lastChange = "2016-07-01 10:49:28 +0000";
layers = (
{
anchors = (
{
name = _topright;
position = "{231, 1500}";
},
{
name = topright;
position = "{231, 1500}";
}
);
layerId = "32DFA59F-C132-4587-B43B-6A11C46F7A16";
paths = (
{
closed = 1;
nodes = (
"77 1551 OFFCURVE",
"36 1558 OFFCURVE",
"-4 1572 CURVE",
"-4 1761 LINE",
"73 1761 LINE SMOOTH",
"148 1761 OFFCURVE",
"188 1800 OFFCURVE",
"188 1886 CURVE SMOOTH",
"188 2013 LINE",
"466 2014 LINE",
"466 1894 LINE SMOOTH",
"466 1644 OFFCURVE",
"316 1551 OFFCURVE",
"131 1551 CURVE"
);
}
);
width = 0;
}
);
},
{
glyphname = dotbelowcomb;
lastChange = "2016-07-01 10:55:49 +0000";
layers = (
{
anchors = (
{
name = _bottom;
position = "{9, 0}";
},
{
name = bottom;
position = "{9, -526}";
}
);
layerId = "32DFA59F-C132-4587-B43B-6A11C46F7A16";
paths = (
{
closed = 1;
nodes = (
"-170 -397 LINE",
"-170 -99 LINE",
"188 -99 LINE",
"188 -397 LINE"
);
}
);
width = 0;
}
);
unicode = 0323;
},
{
glyphname = dotbelowcomb.case;
lastChange = "2016-07-01 10:49:28 +0000";
layers = (
{
anchors = (
{
name = _bottom;
position = "{9, 0}";
},
{
name = bottom;
position = "{9, -526}";
}
);
layerId = "32DFA59F-C132-4587-B43B-6A11C46F7A16";
paths = (
{
closed = 1;
nodes = (
"-170 -526 LINE",
"-170 -228 LINE",
"188 -228 LINE",
"188 -526 LINE"
);
}
);
width = 0;
}
);
},
{
glyphname = dieresisbelowcomb;
lastChange = "2016-07-01 10:36:35 +0000";
layers = (
{
anchors = (
{
name = _bottom;
position = "{-1, 0}";
},
{
name = bottom;
position = "{-1, -513}";
}
);
layerId = "32DFA59F-C132-4587-B43B-6A11C46F7A16";
paths = (
{
closed = 1;
nodes = (
"-422 -513 LINE",
"-422 -215 LINE",
"-64 -215 LINE",
"-64 -513 LINE"
);
},
{
closed = 1;
nodes = (
"62 -513 LINE",
"62 -215 LINE",
"420 -215 LINE",
"420 -513 LINE"
);
}
);
width = 0;
}
);
unicode = 0324;
},
{
glyphname = dieresisbelowcomb.case;
lastChange = "2016-07-01 10:49:28 +0000";
layers = (
{
anchors = (
{
name = _bottom;
position = "{-1, 0}";
},
{
name = bottom;
position = "{-1, -513}";
}
);
layerId = "32DFA59F-C132-4587-B43B-6A11C46F7A16";
paths = (
{
closed = 1;
nodes = (
"-422 -513 LINE",
"-422 -215 LINE",
"-64 -215 LINE",
"-64 -513 LINE"
);
},
{
closed = 1;
nodes = (
"62 -513 LINE",
"62 -215 LINE",
"420 -215 LINE",
"420 -513 LINE"
);
}
);
width = 0;
}
);
},
{
glyphname = commaaccentcomb;
lastChange = "2016-07-01 10:14:47 +0000";
layers = (
{
anchors = (
{
name = _bottom;
position = "{3, 0}";
},
{
name = bottom;
position = "{3, -692}";
}
);
layerId = "32DFA59F-C132-4587-B43B-6A11C46F7A16";
paths = (
{
closed = 1;
nodes = (
"-64 -692 LINE",
"-18 -490 LINE",
"-134 -490 LINE",
"-134 -253 LINE",
"140 -253 LINE",
"140 -481 LINE",
"58 -692 LINE"
);
}
);
width = 0;
}
);
unicode = 0326;
},
{
glyphname = commaaccentcomb.case;
lastChange = "2016-07-01 10:49:28 +0000";
layers = (
{
anchors = (
{
name = _bottom;
position = "{3, 0}";
},
{
name = bottom;
position = "{3, -692}";
}
);
layerId = "32DFA59F-C132-4587-B43B-6A11C46F7A16";
paths = (
{
closed = 1;
nodes = (
"-64 -692 LINE",
"-18 -490 LINE",
"-134 -490 LINE",
"-134 -253 LINE",
"140 -253 LINE",
"140 -481 LINE",
"58 -692 LINE"
);
}
);
width = 0;
}
);
},
{
glyphname = commaaccentcomb.alt;
lastChange = "2016-07-01 10:14:47 +0000";
layers = (
{
anchors = (
{
name = _bottom;
position = "{3, 0}";
},
{
name = bottom;
position = "{3, 1508}";
}
);
layerId = "32DFA59F-C132-4587-B43B-6A11C46F7A16";
paths = (
{
closed = 1;
nodes = (
"70 1947 LINE",
"24 1745 LINE",
"140 1745 LINE",
"140 1508 LINE",
"-134 1508 LINE",
"-134 1736 LINE",
"-52 1947 LINE"
);
}
);
width = 0;
}
);
},
{
glyphname = cedillacomb;
lastChange = "2016-07-01 10:37:05 +0000";
layers = (
{
anchors = (
{
name = _bottom;
position = "{0, 0}";
},
{
name = bottom;
position = "{0, -668}";
}
);
layerId = "32DFA59F-C132-4587-B43B-6A11C46F7A16";
paths = (
{
closed = 1;
nodes = (
"367 -330 CURVE SMOOTH",
"367 -519 OFFCURVE",
"209 -631 OFFCURVE",
"19 -631 CURVE SMOOTH",
"-49 -631 OFFCURVE",
"-115 -618 OFFCURVE",
"-179 -591 CURVE",
"-179 -368 LINE",
"-135 -383 OFFCURVE",
"-96 -391 OFFCURVE",
"-63 -391 CURVE SMOOTH",
"10 -391 OFFCURVE",
"52 -354 OFFCURVE",
"52 -279 CURVE SMOOTH",
"52 -189 OFFCURVE",
"-26 -124 OFFCURVE",
"-108 -106 CURVE",
"-108 0 LINE",
"103 0 LINE",
"103 -76 LINE",
"246 -95 OFFCURVE",
"367 -183 OFFCURVE"
);
}
);
width = 0;
}
);
unicode = 0327;
},
{
glyphname = cedillacomb.case;
lastChange = "2016-07-01 10:49:28 +0000";
layers = (
{
anchors = (
{
name = _bottom;
position = "{0, 0}";
},
{
name = bottom;
position = "{0, -668}";
}
);
layerId = "32DFA59F-C132-4587-B43B-6A11C46F7A16";
paths = (
{
closed = 1;
nodes = (
"367 -330 CURVE SMOOTH",
"367 -519 OFFCURVE",
"209 -631 OFFCURVE",
"19 -631 CURVE SMOOTH",
"-49 -631 OFFCURVE",
"-115 -618 OFFCURVE",
"-179 -591 CURVE",
"-179 -368 LINE",
"-135 -383 OFFCURVE",
"-96 -391 OFFCURVE",
"-63 -391 CURVE SMOOTH",
"10 -391 OFFCURVE",
"52 -354 OFFCURVE",
"52 -279 CURVE SMOOTH",
"52 -189 OFFCURVE",
"-26 -124 OFFCURVE",
"-108 -106 CURVE",
"-108 0 LINE",
"103 0 LINE",
"103 -76 LINE",
"246 -95 OFFCURVE",
"367 -183 OFFCURVE"
);
}
);
width = 0;
}
);
},
{
glyphname = ogonekcomb;
lastChange = "2016-07-01 10:56:37 +0000";
layers = (
{
anchors = (
{
name = _ogonek;
position = "{131, 0}";
}
);
layerId = "32DFA59F-C132-4587-B43B-6A11C46F7A16";
paths = (
{
closed = 1;
nodes = (
"-29 -279 CURVE SMOOTH",
"-29 -354 OFFCURVE",
"13 -391 OFFCURVE",
"86 -391 CURVE SMOOTH",
"119 -391 OFFCURVE",
"158 -383 OFFCURVE",
"202 -368 CURVE",
"202 -591 LINE",
"138 -618 OFFCURVE",
"72 -631 OFFCURVE",
"4 -631 CURVE SMOOTH",
"-186 -631 OFFCURVE",
"-344 -519 OFFCURVE",
"-344 -330 CURVE SMOOTH",
"-344 -209 OFFCURVE",
"-256 -99 OFFCURVE",
"-80 0 CURVE",
"131 0 LINE",
"57 -90 OFFCURVE",
"-29 -169 OFFCURVE"
);
}
);
width = 0;
}
);
unicode = 0328;
},
{
glyphname = ogonekcomb.case;
lastChange = "2016-07-01 10:57:01 +0000";
layers = (
{
layerId = "32DFA59F-C132-4587-B43B-6A11C46F7A16";
paths = (
{
closed = 1;
nodes = (
"57 -90 OFFCURVE",
"-29 -169 OFFCURVE",
"-29 -279 CURVE SMOOTH",
"-29 -354 OFFCURVE",
"13 -391 OFFCURVE",
"86 -391 CURVE SMOOTH",
"119 -391 OFFCURVE",
"158 -383 OFFCURVE",
"202 -368 CURVE",
"202 -591 LINE",
"138 -618 OFFCURVE",
"72 -631 OFFCURVE",
"4 -631 CURVE SMOOTH",
"-186 -631 OFFCURVE",
"-344 -519 OFFCURVE",
"-344 -330 CURVE SMOOTH",
"-344 -209 OFFCURVE",
"-256 -99 OFFCURVE",
"-80 0 CURVE",
"131 0 LINE"
);
}
);
width = 0;
}
);
},
{
glyphname = brevebelowcomb;
lastChange = "2016-07-01 10:37:19 +0000";
layers = (
{
anchors = (
{
name = _bottom;
position = "{-4, 0}";
},
{
name = bottom;
position = "{-4, -561}";
}
);
layerId = "32DFA59F-C132-4587-B43B-6A11C46F7A16";
paths = (
{
closed = 1;
nodes = (
"-3 -321 CURVE SMOOTH",
"70 -321 OFFCURVE",
"112 -284 OFFCURVE",
"112 -209 CURVE SMOOTH",
"112 -208 OFFCURVE",
"217 -208 OFFCURVE",
"428 -208 CURVE",
"429 -224 OFFCURVE",
"430 -236 OFFCURVE",
"430 -243 CURVE SMOOTH",
"430 -466 OFFCURVE",
"235 -561 OFFCURVE",
"-5 -561 CURVE SMOOTH",
"-239 -561 OFFCURVE",
"-437 -467 OFFCURVE",
"-437 -250 CURVE SMOOTH",
"-437 -236 OFFCURVE",
"-436 -222 OFFCURVE",
"-434 -208 CURVE",
"-118 -209 LINE",
"-118 -284 OFFCURVE",
"-76 -321 OFFCURVE"
);
}
);
width = 0;
}
);
unicode = 032E;
},
{
glyphname = brevebelowcomb.case;
lastChange = "2016-07-01 10:49:28 +0000";
layers = (
{
anchors = (
{
name = _bottom;
position = "{-4, 0}";
},
{
name = bottom;
position = "{-4, -561}";
}
);
layerId = "32DFA59F-C132-4587-B43B-6A11C46F7A16";
paths = (
{
closed = 1;
nodes = (
"-3 -321 CURVE SMOOTH",
"70 -321 OFFCURVE",
"112 -284 OFFCURVE",
"112 -209 CURVE SMOOTH",
"112 -208 OFFCURVE",
"217 -208 OFFCURVE",
"428 -208 CURVE",
"429 -224 OFFCURVE",
"430 -236 OFFCURVE",
"430 -243 CURVE SMOOTH",
"430 -466 OFFCURVE",
"235 -561 OFFCURVE",
"-5 -561 CURVE SMOOTH",
"-239 -561 OFFCURVE",
"-437 -467 OFFCURVE",
"-437 -250 CURVE SMOOTH",
"-437 -236 OFFCURVE",
"-436 -222 OFFCURVE",
"-434 -208 CURVE",
"-118 -209 LINE",
"-118 -284 OFFCURVE",
"-76 -321 OFFCURVE"
);
}
);
width = 0;
}
);
},
{
glyphname = macronbelowcomb;
lastChange = "2016-07-01 10:37:27 +0000";
layers = (
{
anchors = (
{
name = _bottom;
position = "{17, 0}";
},
{
name = bottom;
position = "{17, -625}";
}
);
layerId = "32DFA59F-C132-4587-B43B-6A11C46F7A16";
paths = (
{
closed = 1;
nodes = (
"-413 -625 LINE",
"-413 -327 LINE",
"447 -327 LINE",
"447 -625 LINE"
);
}
);
width = 0;
}
);
unicode = 0331;
},
{
glyphname = macronbelowcomb.case;
lastChange = "2016-07-01 10:49:28 +0000";
layers = (
{
anchors = (
{
name = _bottom;
position = "{17, 0}";
},
{
name = bottom;
position = "{17, -625}";
}
);
layerId = "32DFA59F-C132-4587-B43B-6A11C46F7A16";
paths = (
{
closed = 1;
nodes = (
"-413 -625 LINE",
"-413 -327 LINE",
"447 -327 LINE",
"447 -625 LINE"
);
}
);
width = 0;
}
);
},
{
glyphname = hyphen;
lastChange = "2016-07-01 04:47:39 +0000";
layers = (
{
layerId = "32DFA59F-C132-4587-B43B-6A11C46F7A16";
paths = (
{
closed = 1;
nodes = (
"576 741 LINE",
"576 509 LINE",
"60 509 LINE",
"60 741 LINE"
);
}
);
width = 637;
}
);
unicode = 002D;
userData = {
com.typemytype.robofont.layerData = {
};
};
},
{
glyphname = endash;
lastChange = "2016-07-01 04:47:39 +0000";
layers = (
{
layerId = "32DFA59F-C132-4587-B43B-6A11C46F7A16";
paths = (
{
closed = 1;
nodes = (
"576 741 LINE",
"576 509 LINE",
"60 509 LINE",
"60 741 LINE"
);
}
);
width = 637;
}
);
unicode = 2013;
userData = {
com.typemytype.robofont.layerData = {
};
};
},
{
glyphname = emdash;
lastChange = "2016-07-01 04:47:39 +0000";
layers = (
{
layerId = "32DFA59F-C132-4587-B43B-6A11C46F7A16";
paths = (
{
closed = 1;
nodes = (
"1092 509 LINE",
"60 509 LINE",
"60 741 LINE",
"1092 741 LINE"
);
}
);
width = 1153;
}
);
unicode = 2014;
userData = {
com.typemytype.robofont.layerData = {
};
};
},
{
glyphname = underscore;
lastChange = "2016-07-01 04:47:39 +0000";
layers = (
{
layerId = "32DFA59F-C132-4587-B43B-6A11C46F7A16";
paths = (
{
closed = 1;
nodes = (
"699 0 LINE",
"699 -232 LINE",
"48 -232 LINE",
"48 0 LINE"
);
}
);
width = 748;
}
);
unicode = 005F;
userData = {
com.typemytype.robofont.layerData = {
};
};
},
{
glyphname = period;
lastChange = "2016-07-01 04:47:39 +0000";
layers = (
{
layerId = "32DFA59F-C132-4587-B43B-6A11C46F7A16";
paths = (
{
closed = 1;
nodes = (
"413 299 LINE",
"413 1 LINE",
"55 1 LINE",
"55 299 LINE"
);
}
);
width = 468;
}
);
unicode = 002E;
userData = {
com.typemytype.robofont.layerData = {
};
};
},
{
glyphname = comma;
lastChange = "2016-07-01 04:47:39 +0000";
layers = (
{
layerId = "32DFA59F-C132-4587-B43B-6A11C46F7A16";
paths = (
{
closed = 1;
nodes = (
"116 -235 LINE",
"182 1 LINE",
"55 1 LINE",
"55 299 LINE",
"429 299 LINE",
"429 10 LINE",
"327 -235 LINE"
);
}
);
width = 484;
}
);
unicode = 002C;
userData = {
com.typemytype.robofont.layerData = {
};
};
},
{
glyphname = colon;
lastChange = "2016-07-01 04:47:39 +0000";
layers = (
{
layerId = "32DFA59F-C132-4587-B43B-6A11C46F7A16";
paths = (
{
closed = 1;
nodes = (
"426 535 LINE",
"426 237 LINE",
"68 237 LINE",
"68 535 LINE"
);
},
{
closed = 1;
nodes = (
"426 1274 LINE",
"426 976 LINE",
"68 976 LINE",
"68 1274 LINE"
);
}
);
width = 495;
}
);
unicode = 003A;
userData = {
com.typemytype.robofont.layerData = {
};
};
},
{
glyphname = semicolon;
lastChange = "2016-07-01 04:47:39 +0000";
layers = (
{
layerId = "32DFA59F-C132-4587-B43B-6A11C46F7A16";
paths = (
{
closed = 1;
nodes = (
"127 0 LINE",
"193 236 LINE",
"66 236 LINE",
"66 534 LINE",
"440 534 LINE",
"440 245 LINE",
"338 0 LINE"
);
},
{
closed = 1;
nodes = (
"424 1274 LINE",
"424 976 LINE",
"66 976 LINE",
"66 1274 LINE"
);
}
);
width = 502;
}
);
unicode = 003B;
userData = {
com.typemytype.robofont.layerData = {
};
};
},
{
glyphname = exclam;
lastChange = "2016-07-01 04:47:39 +0000";
layers = (
{
layerId = "32DFA59F-C132-4587-B43B-6A11C46F7A16";
paths = (
{
closed = 1;
nodes = (
"343 439 LINE",
"125 439 LINE",
"55 1593 LINE",
"413 1593 LINE"
);
},
{
closed = 1;
nodes = (
"413 299 LINE",
"413 1 LINE",
"55 1 LINE",
"55 299 LINE"
);
}
);
width = 469;
}
);
unicode = 0021;
userData = {
com.typemytype.robofont.layerData = {
};
};
},
{
glyphname = exclamdown;
lastChange = "2016-07-01 04:47:39 +0000";
layers = (
{
layerId = "32DFA59F-C132-4587-B43B-6A11C46F7A16";
paths = (
{
closed = 1;
nodes = (
"341 1155 LINE",
"411 1 LINE",
"53 1 LINE",
"123 1155 LINE"
);
},
{
closed = 1;
nodes = (
"411 1295 LINE",
"53 1295 LINE",
"53 1593 LINE",
"411 1593 LINE"
);
}
);
width = 464;
}
);
unicode = 00A1;
userData = {
com.typemytype.robofont.layerData = {
};
};
},
{
glyphname = question;
lastChange = "2016-07-01 04:47:39 +0000";
layers = (
{
layerId = "32DFA59F-C132-4587-B43B-6A11C46F7A16";
paths = (
{
closed = 1;
nodes = (
"408 1039 LINE",
"42 1039 LINE",
"42 1293 LINE SMOOTH",
"42 1562 OFFCURVE",
"231 1690 OFFCURVE",
"502 1690 CURVE SMOOTH",
"857 1690 OFFCURVE",
"972 1493 OFFCURVE",
"972 1140 CURVE SMOOTH",
"972 794 OFFCURVE",
"804 579 OFFCURVE",
"454 579 CURVE",
"454 409 LINE",
"121 409 LINE",
"121 825 LINE",
"454 825 OFFCURVE",
"595 866 OFFCURVE",
"595 1208 CURVE SMOOTH",
"595 1295 OFFCURVE",
"582 1371 OFFCURVE",
"502 1371 CURVE SMOOTH",
"415 1371 OFFCURVE",
"408 1277 OFFCURVE",
"408 1185 CURVE SMOOTH"
);
},
{
closed = 1;
nodes = (
"468 299 LINE",
"468 1 LINE",
"110 1 LINE",
"110 299 LINE"
);
}
);
width = 1008;
}
);
unicode = 003F;
userData = {
com.typemytype.robofont.layerData = {
};
};
},
{
glyphname = questiondown;
lastChange = "2016-07-01 04:47:39 +0000";
layers = (
{
layerId = "32DFA59F-C132-4587-B43B-6A11C46F7A16";
paths = (
{
closed = 1;
nodes = (
"601 634 LINE",
"967 634 LINE",
"967 380 LINE SMOOTH",
"967 111 OFFCURVE",
"778 -17 OFFCURVE",
"507 -17 CURVE SMOOTH",
"152 -17 OFFCURVE",
"37 180 OFFCURVE",
"37 533 CURVE SMOOTH",
"37 879 OFFCURVE",
"205 1094 OFFCURVE",
"555 1094 CURVE",
"555 1264 LINE",
"888 1264 LINE",
"888 848 LINE",
"555 848 OFFCURVE",
"414 807 OFFCURVE",
"414 465 CURVE SMOOTH",
"414 378 OFFCURVE",
"427 302 OFFCURVE",
"507 302 CURVE SMOOTH",
"594 302 OFFCURVE",
"601 396 OFFCURVE",
"601 488 CURVE SMOOTH"
);
},
{
closed = 1;
nodes = (
"541 1374 LINE",
"541 1672 LINE",
"899 1672 LINE",
"899 1374 LINE"
);
}
);
width = 1009;
}
);
unicode = 00BF;
userData = {
com.typemytype.robofont.layerData = {
};
};
},
{
glyphname = ellipsis;
lastChange = "2016-07-01 04:47:39 +0000";
layers = (
{
layerId = "32DFA59F-C132-4587-B43B-6A11C46F7A16";
paths = (
{
closed = 1;
nodes = (
"413 299 LINE",
"413 1 LINE",
"55 1 LINE",
"55 299 LINE"
);
},
{
closed = 1;
nodes = (
"904 299 LINE",
"904 1 LINE",
"546 1 LINE",
"546 299 LINE"
);
},
{
closed = 1;
nodes = (
"1395 299 LINE",
"1395 1 LINE",
"1037 1 LINE",
"1037 299 LINE"
);
}
);
width = 1450;
}
);
unicode = 2026;
userData = {
com.typemytype.robofont.layerData = {
};
};
},
{
glyphname = periodcentered;
lastChange = "2016-07-01 04:47:39 +0000";
layers = (
{
layerId = "32DFA59F-C132-4587-B43B-6A11C46F7A16";
paths = (
{
closed = 1;
nodes = (
"419 1021 LINE",
"419 723 LINE",
"61 723 LINE",
"61 1021 LINE"
);
}
);
width = 480;
}
);
unicode = 00B7;
userData = {
com.typemytype.robofont.layerData = {
};
};
},
{
glyphname = bullet;
lastChange = "2016-07-01 04:47:39 +0000";
layers = (
{
layerId = "32DFA59F-C132-4587-B43B-6A11C46F7A16";
paths = (
{
closed = 1;
nodes = (
"360 403 CURVE SMOOTH",
"161 403 OFFCURVE",
"47 539 OFFCURVE",
"47 741 CURVE SMOOTH",
"47 943 OFFCURVE",
"161 1079 OFFCURVE",
"360 1079 CURVE SMOOTH",
"559 1079 OFFCURVE",
"674 943 OFFCURVE",
"674 741 CURVE SMOOTH",
"674 539 OFFCURVE",
"559 403 OFFCURVE"
);
}
);
width = 721;
}
);
unicode = 2022;
userData = {
com.typemytype.robofont.layerData = {
};
};
},
{
glyphname = slash;
lastChange = "2016-07-01 04:47:39 +0000";
layers = (
{
layerId = "32DFA59F-C132-4587-B43B-6A11C46F7A16";
paths = (
{
closed = 1;
nodes = (
"439 1767 LINE",
"803 1767 LINE",
"392 0 LINE",
"29 0 LINE"
);
}
);
width = 830;
}
);
unicode = 002F;
userData = {
com.typemytype.robofont.layerData = {
};
};
},
{
glyphname = backslash;
lastChange = "2016-07-01 04:47:39 +0000";
layers = (
{
layerId = "32DFA59F-C132-4587-B43B-6A11C46F7A16";
paths = (
{
closed = 1;
nodes = (
"391 1767 LINE",
"801 0 LINE",
"438 0 LINE",
"27 1767 LINE"
);
}
);
width = 830;
}
);
unicode = 005C;
userData = {
com.typemytype.robofont.layerData = {
};
};
},
{
glyphname = bar;
lastChange = "2016-07-01 04:47:39 +0000";
layers = (
{
layerId = "32DFA59F-C132-4587-B43B-6A11C46F7A16";
paths = (
{
closed = 1;
nodes = (
"62 1683 LINE",
"381 1683 LINE",
"381 -84 LINE",
"62 -84 LINE"
);
}
);
width = 443;
}
);
unicode = 007C;
userData = {
com.typemytype.robofont.layerData = {
};
};
},
{
glyphname = brokenbar;
lastChange = "2016-07-01 04:47:39 +0000";
layers = (
{
layerId = "32DFA59F-C132-4587-B43B-6A11C46F7A16";
paths = (
{
closed = 1;
nodes = (
"68 676 LINE",
"387 676 LINE",
"387 -84 LINE",
"68 -84 LINE"
);
},
{
closed = 1;
nodes = (
"68 1683 LINE",
"387 1683 LINE",
"387 923 LINE",
"68 923 LINE"
);
}
);
width = 455;
}
);
unicode = 00A6;
userData = {
com.typemytype.robofont.layerData = {
};
};
},
{
glyphname = parenleft;
lastChange = "2016-07-01 04:47:39 +0000";
layers = (
{
layerId = "32DFA59F-C132-4587-B43B-6A11C46F7A16";
paths = (
{
closed = 1;
nodes = (
"421 1297 CURVE SMOOTH",
"421 450 LINE SMOOTH",
"421 350 OFFCURVE",
"481 289 OFFCURVE",
"560 268 CURVE",
"560 -17 LINE",
"244 -4 OFFCURVE",
"49 227 OFFCURVE",
"49 562 CURVE SMOOTH",
"49 1183 LINE SMOOTH",
"49 1546 OFFCURVE",
"215 1751 OFFCURVE",
"560 1761 CURVE",
"560 1494 LINE",
"459 1476 OFFCURVE",
"421 1415 OFFCURVE"
);
}
);
width = 596;
}
);
unicode = 0028;
userData = {
com.typemytype.robofont.layerData = {
};
};
},
{
glyphname = parenright;
lastChange = "2016-07-01 04:47:39 +0000";
layers = (
{
layerId = "32DFA59F-C132-4587-B43B-6A11C46F7A16";
paths = (
{
closed = 1;
nodes = (
"36 1494 CURVE",
"36 1761 LINE",
"381 1751 OFFCURVE",
"547 1546 OFFCURVE",
"547 1183 CURVE SMOOTH",
"547 562 LINE SMOOTH",
"547 225 OFFCURVE",
"352 -4 OFFCURVE",
"36 -17 CURVE",
"36 268 LINE",
"115 289 OFFCURVE",
"175 350 OFFCURVE",
"175 450 CURVE SMOOTH",
"175 1297 LINE SMOOTH",
"175 1415 OFFCURVE",
"137 1476 OFFCURVE"
);
}
);
width = 596;
}
);
unicode = 0029;
userData = {
com.typemytype.robofont.layerData = {
};
};
},
{
glyphname = bracketleft;
lastChange = "2016-07-01 04:47:39 +0000";
layers = (
{
layerId = "32DFA59F-C132-4587-B43B-6A11C46F7A16";
paths = (
{
closed = 1;
nodes = (
"616 1761 LINE",
"616 1480 LINE",
"414 1480 LINE",
"414 281 LINE",
"616 281 LINE",
"616 0 LINE",
"62 0 LINE",
"62 1761 LINE"
);
}
);
width = 651;
}
);
unicode = 005B;
userData = {
com.typemytype.robofont.layerData = {
};
};
},
{
glyphname = bracketright;
lastChange = "2016-07-01 04:47:39 +0000";
layers = (
{
layerId = "32DFA59F-C132-4587-B43B-6A11C46F7A16";
paths = (
{
closed = 1;
nodes = (
"35 281 LINE",
"237 281 LINE",
"237 1480 LINE",
"35 1480 LINE",
"35 1761 LINE",
"589 1761 LINE",
"589 0 LINE",
"35 0 LINE"
);
}
);
width = 651;
}
);
unicode = 005D;
userData = {
com.typemytype.robofont.layerData = {
};
};
},
{
glyphname = braceleft;
lastChange = "2016-07-01 04:47:39 +0000";
layers = (
{
layerId = "32DFA59F-C132-4587-B43B-6A11C46F7A16";
paths = (
{
closed = 1;
nodes = (
"31 669 CURVE",
"31 936 LINE",
"143 957 OFFCURVE",
"170 1007 OFFCURVE",
"170 1140 CURVE SMOOTH",
"170 1225 LINE SMOOTH",
"170 1504 OFFCURVE",
"374 1615 OFFCURVE",
"661 1623 CURVE",
"661 1356 LINE",
"589 1351 OFFCURVE",
"522 1343 OFFCURVE",
"522 1272 CURVE SMOOTH",
"522 1027 OFFCURVE",
"479 914 OFFCURVE",
"352 802 CURVE",
"476 693 OFFCURVE",
"522 582 OFFCURVE",
"522 338 CURVE",
"517 263 OFFCURVE",
"591 254 OFFCURVE",
"661 249 CURVE",
"661 -18 LINE",
"376 -10 OFFCURVE",
"170 95 OFFCURVE",
"170 370 CURVE SMOOTH",
"170 445 LINE SMOOTH",
"170 585 OFFCURVE",
"149 646 OFFCURVE"
);
}
);
width = 696;
}
);
unicode = 007B;
userData = {
com.typemytype.robofont.layerData = {
};
};
},
{
glyphname = braceright;
lastChange = "2016-07-01 04:47:39 +0000";
layers = (
{
layerId = "32DFA59F-C132-4587-B43B-6A11C46F7A16";
paths = (
{
closed = 1;
nodes = (
"36 1356 CURVE",
"36 1623 LINE",
"323 1615 OFFCURVE",
"527 1504 OFFCURVE",
"527 1225 CURVE SMOOTH",
"527 1140 LINE SMOOTH",
"527 1007 OFFCURVE",
"554 957 OFFCURVE",
"666 936 CURVE",
"666 669 LINE",
"548 646 OFFCURVE",
"527 585 OFFCURVE",
"527 445 CURVE SMOOTH",
"527 370 LINE SMOOTH",
"527 95 OFFCURVE",
"321 -10 OFFCURVE",
"36 -18 CURVE",
"36 249 LINE",
"110 254 OFFCURVE",
"175 262 OFFCURVE",
"175 338 CURVE SMOOTH",
"175 582 OFFCURVE",
"219 691 OFFCURVE",
"345 802 CURVE",
"220 912 OFFCURVE",
"175 1026 OFFCURVE",
"175 1272 CURVE SMOOTH",
"175 1343 OFFCURVE",
"108 1351 OFFCURVE"
);
}
);
width = 697;
}
);
unicode = 007D;
userData = {
com.typemytype.robofont.layerData = {
};
};
},
{
glyphname = quotesingle;
lastChange = "2016-07-01 04:47:39 +0000";
layers = (
{
layerId = "32DFA59F-C132-4587-B43B-6A11C46F7A16";
paths = (
{
closed = 1;
nodes = (
"41 1593 LINE",
"393 1593 LINE",
"317 957 LINE",
"141 957 LINE"
);
}
);
width = 438;
}
);
unicode = 0027;
userData = {
com.typemytype.robofont.layerData = {
};
};
},
{
glyphname = quotedbl;
lastChange = "2016-07-01 04:47:39 +0000";
layers = (
{
layerId = "32DFA59F-C132-4587-B43B-6A11C46F7A16";
paths = (
{
closed = 1;
nodes = (
"41 1593 LINE",
"393 1593 LINE",
"317 957 LINE",
"141 957 LINE"
);
},
{
closed = 1;
nodes = (
"481 1593 LINE",
"833 1593 LINE",
"757 957 LINE",
"581 957 LINE"
);
}
);
width = 878;
}
);
unicode = 0022;
userData = {
com.typemytype.robofont.layerData = {
};
};
},
{
glyphname = quoteleft;
lastChange = "2016-07-01 04:47:39 +0000";
layers = (
{
layerId = "32DFA59F-C132-4587-B43B-6A11C46F7A16";
paths = (
{
closed = 1;
nodes = (
"367 1592 LINE",
"301 1356 LINE",
"428 1356 LINE",
"428 1058 LINE",
"54 1058 LINE",
"54 1347 LINE",
"156 1592 LINE"
);
}
);
width = 481;
}
);
unicode = 2018;
userData = {
com.typemytype.robofont.layerData = {
};
};
},
{
glyphname = quoteright;
lastChange = "2016-07-01 04:47:39 +0000";
layers = (
{
layerId = "32DFA59F-C132-4587-B43B-6A11C46F7A16";
paths = (
{
closed = 1;
nodes = (
"111 1058 LINE",
"177 1294 LINE",
"50 1294 LINE",
"50 1592 LINE",
"424 1592 LINE",
"424 1303 LINE",
"322 1058 LINE"
);
}
);
width = 475;
}
);
unicode = 2019;
userData = {
com.typemytype.robofont.layerData = {
};
};
},
{
glyphname = quotedblleft;
lastChange = "2016-07-01 04:47:39 +0000";
layers = (
{
layerId = "32DFA59F-C132-4587-B43B-6A11C46F7A16";
paths = (
{
closed = 1;
nodes = (
"836 1592 LINE",
"770 1356 LINE",
"897 1356 LINE",
"897 1058 LINE",
"523 1058 LINE",
"523 1347 LINE",
"625 1592 LINE"
);
},
{
closed = 1;
nodes = (
"367 1592 LINE",
"301 1356 LINE",
"428 1356 LINE",
"428 1058 LINE",
"54 1058 LINE",
"54 1347 LINE",
"156 1592 LINE"
);
}
);
width = 950;
}
);
unicode = 201C;
userData = {
com.typemytype.robofont.layerData = {
};
};
},
{
glyphname = quotedblright;
lastChange = "2016-07-01 04:47:39 +0000";
layers = (
{
layerId = "32DFA59F-C132-4587-B43B-6A11C46F7A16";
paths = (
{
closed = 1;
nodes = (
"584 1058 LINE",
"650 1294 LINE",
"523 1294 LINE",
"523 1592 LINE",
"897 1592 LINE",
"897 1303 LINE",
"795 1058 LINE"
);
},
{
closed = 1;
nodes = (
"111 1058 LINE",
"177 1294 LINE",
"50 1294 LINE",
"50 1592 LINE",
"424 1592 LINE",
"424 1303 LINE",
"322 1058 LINE"
);
}
);
width = 948;
}
);
unicode = 201D;
userData = {
com.typemytype.robofont.layerData = {
};
};
},
{
glyphname = quotesinglbase;
lastChange = "2016-07-01 04:47:39 +0000";
layers = (
{
layerId = "32DFA59F-C132-4587-B43B-6A11C46F7A16";
paths = (
{
closed = 1;
nodes = (
"116 -236 LINE",
"182 0 LINE",
"55 0 LINE",
"55 298 LINE",
"429 298 LINE",
"429 9 LINE",
"327 -236 LINE"
);
}
);
width = 484;
}
);
unicode = 201A;
userData = {
com.typemytype.robofont.layerData = {
};
};
},
{
glyphname = quotedblbase;
lastChange = "2016-07-01 04:47:39 +0000";
layers = (
{
layerId = "32DFA59F-C132-4587-B43B-6A11C46F7A16";
paths = (
{
closed = 1;
nodes = (
"589 -236 LINE",
"655 0 LINE",
"528 0 LINE",
"528 298 LINE",
"902 298 LINE",
"902 9 LINE",
"800 -236 LINE"
);
},
{
closed = 1;
nodes = (
"116 -236 LINE",
"182 0 LINE",
"55 0 LINE",
"55 298 LINE",
"429 298 LINE",
"429 9 LINE",
"327 -236 LINE"
);
}
);
width = 957;
}
);
unicode = 201E;
userData = {
com.typemytype.robofont.layerData = {
};
};
},
{
glyphname = guilsinglleft;
lastChange = "2016-07-01 04:47:39 +0000";
layers = (
{
layerId = "32DFA59F-C132-4587-B43B-6A11C46F7A16";
paths = (
{
closed = 1;
nodes = (
"548 618 LINE",
"548 260 LINE",
"38 545 LINE",
"38 959 LINE",
"548 1230 LINE",
"548 871 LINE",
"236 749 LINE"
);
}
);
width = 606;
}
);
unicode = 2039;
userData = {
com.typemytype.robofont.layerData = {
};
};
},
{
glyphname = guilsinglright;
lastChange = "2016-07-01 04:47:39 +0000";
layers = (
{
layerId = "32DFA59F-C132-4587-B43B-6A11C46F7A16";
paths = (
{
closed = 1;
nodes = (
"58 1230 LINE",
"568 959 LINE",
"568 545 LINE",
"58 260 LINE",
"58 618 LINE",
"370 749 LINE",
"58 871 LINE"
);
}
);
width = 607;
}
);
unicode = 203A;
userData = {
com.typemytype.robofont.layerData = {
};
};
},
{
glyphname = guillemetleft;
lastChange = "2016-07-01 05:31:23 +0000";
layers = (
{
layerId = "32DFA59F-C132-4587-B43B-6A11C46F7A16";
paths = (
{
closed = 1;
nodes = (
"1126 618 LINE",
"1126 260 LINE",
"616 545 LINE",
"616 959 LINE",
"1126 1230 LINE",
"1126 871 LINE",
"814 749 LINE"
);
},
{
closed = 1;
nodes = (
"548 618 LINE",
"548 260 LINE",
"38 545 LINE",
"38 959 LINE",
"548 1230 LINE",
"548 871 LINE",
"236 749 LINE"
);
}
);
width = 1184;
}
);
unicode = 00AB;
userData = {
com.typemytype.robofont.layerData = {
};
};
},
{
glyphname = guillemetright;
lastChange = "2016-07-01 05:31:23 +0000";
layers = (
{
layerId = "32DFA59F-C132-4587-B43B-6A11C46F7A16";
paths = (
{
closed = 1;
nodes = (
"58 1230 LINE",
"568 959 LINE",
"568 545 LINE",
"58 260 LINE",
"58 618 LINE",
"370 749 LINE",
"58 871 LINE"
);
},
{
closed = 1;
nodes = (
"635 1230 LINE",
"1145 959 LINE",
"1145 545 LINE",
"635 260 LINE",
"635 618 LINE",
"947 749 LINE",
"635 871 LINE"
);
}
);
width = 1184;
}
);
unicode = 00BB;
userData = {
com.typemytype.robofont.layerData = {
};
};
},
{
glyphname = paragraph;
lastChange = "2016-07-01 04:47:39 +0000";
layers = (
{
layerId = "32DFA59F-C132-4587-B43B-6A11C46F7A16";
paths = (
{
closed = 1;
nodes = (
"31 1210 CURVE SMOOTH",
"31 1516 OFFCURVE",
"274 1593 OFFCURVE",
"582 1593 CURVE SMOOTH",
"957 1593 LINE",
"957 0 LINE",
"718 0 LINE",
"718 1287 LINE",
"624 1287 LINE",
"624 0 LINE",
"378 0 LINE",
"378 797 LINE",
"139 823 OFFCURVE",
"31 949 OFFCURVE"
);
}
);
width = 1019;
}
);
unicode = 00B6;
userData = {
com.typemytype.robofont.layerData = {
};
};
},
{
glyphname = numbersign;
lastChange = "2016-07-01 04:47:39 +0000";
layers = (
{
layerId = "32DFA59F-C132-4587-B43B-6A11C46F7A16";
paths = (
{
closed = 1;
nodes = (
"182 741 LINE",
"210 886 LINE",
"100 886 LINE",
"100 1118 LINE",
"255 1118 LINE",
"348 1593 LINE",
"632 1593 LINE",
"539 1118 LINE",
"705 1118 LINE",
"798 1593 LINE",
"1082 1593 LINE",
"989 1118 LINE",
"1082 1118 LINE",
"1082 886 LINE",
"944 886 LINE",
"916 741 LINE",
"1024 741 LINE",
"1024 509 LINE",
"870 509 LINE",
"771 0 LINE",
"488 0 LINE",
"587 509 LINE",
"420 509 LINE",
"321 0 LINE",
"38 0 LINE",
"137 509 LINE",
"42 509 LINE",
"42 741 LINE"
);
},
{
closed = 1;
nodes = (
"632 741 LINE",
"660 886 LINE",
"494 886 LINE",
"466 741 LINE"
);
}
);
width = 1119;
}
);
unicode = 0023;
userData = {
com.typemytype.robofont.layerData = {
};
};
},
{
glyphname = zero;
lastChange = "2016-07-01 04:47:39 +0000";
layers = (
{
layerId = "32DFA59F-C132-4587-B43B-6A11C46F7A16";
paths = (
{
closed = 1;
nodes = (
"515 -19 CURVE SMOOTH",
"217 -19 OFFCURVE",
"49 183 OFFCURVE",
"49 496 CURVE SMOOTH",
"49 1142 LINE SMOOTH",
"49 1473 OFFCURVE",
"201 1655 OFFCURVE",
"515 1655 CURVE SMOOTH",
"829 1655 OFFCURVE",
"981 1473 OFFCURVE",
"981 1142 CURVE SMOOTH",
"981 496 LINE SMOOTH",
"981 183 OFFCURVE",
"813 -19 OFFCURVE"
);
},
{
closed = 1;
nodes = (
"515 340 CURVE SMOOTH",
"569 340 OFFCURVE",
"602 398 OFFCURVE",
"602 460 CURVE SMOOTH",
"602 1186 LINE SMOOTH",
"602 1268 OFFCURVE",
"595 1341 OFFCURVE",
"515 1341 CURVE SMOOTH",
"435 1341 OFFCURVE",
"428 1268 OFFCURVE",
"428 1186 CURVE SMOOTH",
"428 460 LINE SMOOTH",
"428 398 OFFCURVE",
"461 340 OFFCURVE"
);
}
);
width = 1031;
}
);
unicode = 0030;
userData = {
com.typemytype.robofont.layerData = {
};
};
},
{
glyphname = one;
lastChange = "2016-07-01 04:47:39 +0000";
layers = (
{
layerId = "32DFA59F-C132-4587-B43B-6A11C46F7A16";
paths = (
{
closed = 1;
nodes = (
"24 1260 CURVE",
"24 1541 LINE",
"130 1556 OFFCURVE",
"276 1629 OFFCURVE",
"332 1761 CURVE",
"615 1761 LINE",
"615 0 LINE",
"242 0 LINE",
"242 1356 LINE",
"194 1299 OFFCURVE",
"98 1260 OFFCURVE"
);
}
);
width = 677;
}
);
unicode = 0031;
userData = {
com.typemytype.robofont.layerData = {
};
};
},
{
glyphname = two;
lastChange = "2016-07-01 04:47:39 +0000";
layers = (
{
layerId = "32DFA59F-C132-4587-B43B-6A11C46F7A16";
paths = (
{
closed = 1;
nodes = (
"969 1293 CURVE SMOOTH",
"969 823 OFFCURVE",
"635 645 OFFCURVE",
"477 332 CURVE",
"957 332 LINE",
"957 0 LINE",
"44 0 LINE",
"44 84 LINE SMOOTH",
"44 337 OFFCURVE",
"123 484 OFFCURVE",
"269 689 CURVE SMOOTH",
"308 743 OFFCURVE",
"388 844 OFFCURVE",
"507 992 CURVE SMOOTH",
"567 1067 OFFCURVE",
"597 1164 OFFCURVE",
"597 1286 CURVE SMOOTH",
"597 1369 OFFCURVE",
"579 1437 OFFCURVE",
"502 1437 CURVE SMOOTH",
"443 1437 OFFCURVE",
"414 1384 OFFCURVE",
"414 1280 CURVE SMOOTH",
"414 1065 LINE",
"44 1065 LINE",
"40 1173 LINE SMOOTH",
"40 1553 OFFCURVE",
"138 1767 OFFCURVE",
"507 1767 CURVE SMOOTH",
"799 1767 OFFCURVE",
"969 1597 OFFCURVE"
);
}
);
width = 1008;
}
);
unicode = 0032;
userData = {
com.typemytype.robofont.layerData = {
};
};
},
{
glyphname = three;
lastChange = "2016-07-01 04:47:39 +0000";
layers = (
{
layerId = "32DFA59F-C132-4587-B43B-6A11C46F7A16";
paths = (
{
closed = 1;
nodes = (
"961 530 CURVE SMOOTH",
"961 178 OFFCURVE",
"825 -20 OFFCURVE",
"484 -20 CURVE SMOOTH",
"173 -20 OFFCURVE",
"39 143 OFFCURVE",
"39 474 CURVE SMOOTH",
"39 658 LINE",
"400 658 LINE",
"400 473 LINE SMOOTH",
"400 380 OFFCURVE",
"414 306 OFFCURVE",
"501 306 CURVE SMOOTH",
"596 306 OFFCURVE",
"592 418 OFFCURVE",
"592 530 CURVE SMOOTH",
"592 574 LINE SMOOTH",
"592 695 OFFCURVE",
"560 801 OFFCURVE",
"442 801 CURVE SMOOTH",
"427 801 OFFCURVE",
"416 800 OFFCURVE",
"408 799 CURVE",
"408 1115 LINE",
"529 1115 OFFCURVE",
"595 1164 OFFCURVE",
"595 1291 CURVE SMOOTH",
"595 1391 OFFCURVE",
"566 1440 OFFCURVE",
"509 1440 CURVE SMOOTH",
"415 1440 OFFCURVE",
"426 1369 OFFCURVE",
"414 1286 CURVE",
"414 1233 LINE",
"50 1233 LINE",
"48 1295 LINE SMOOTH",
"50 1618 OFFCURVE",
"196 1763 OFFCURVE",
"507 1763 CURVE SMOOTH",
"807 1763 OFFCURVE",
"957 1609 OFFCURVE",
"957 1295 CURVE SMOOTH",
"957 1122 OFFCURVE",
"918 1007 OFFCURVE",
"792 962 CURVE",
"942 889 OFFCURVE",
"961 766 OFFCURVE"
);
}
);
width = 1008;
}
);
unicode = 0033;
userData = {
com.typemytype.robofont.layerData = {
};
};
},
{
glyphname = four;
lastChange = "2016-07-01 04:47:39 +0000";
layers = (
{
layerId = "32DFA59F-C132-4587-B43B-6A11C46F7A16";
paths = (
{
closed = 1;
nodes = (
"935 1761 LINE",
"935 572 LINE",
"1005 572 LINE",
"1005 278 LINE",
"935 278 LINE",
"935 -1 LINE",
"566 -1 LINE",
"566 278 LINE",
"24 278 LINE",
"24 553 LINE",
"377 1761 LINE"
);
},
{
closed = 1;
nodes = (
"566 572 LINE",
"566 1459 LINE",
"338 572 LINE"
);
}
);
width = 1046;
}
);
unicode = 0034;
userData = {
com.typemytype.robofont.layerData = {
};
};
},
{
glyphname = five;
lastChange = "2016-07-01 04:47:39 +0000";
layers = (
{
layerId = "32DFA59F-C132-4587-B43B-6A11C46F7A16";
paths = (
{
closed = 1;
nodes = (
"977 668 CURVE SMOOTH",
"977 245 OFFCURVE",
"917 -25 OFFCURVE",
"506 -25 CURVE SMOOTH",
"235 -25 OFFCURVE",
"46 107 OFFCURVE",
"46 384 CURVE SMOOTH",
"46 646 LINE",
"412 646 LINE",
"412 495 LINE SMOOTH",
"412 400 OFFCURVE",
"419 304 OFFCURVE",
"506 304 CURVE SMOOTH",
"582 304 OFFCURVE",
"599 361 OFFCURVE",
"599 441 CURVE SMOOTH",
"599 787 LINE SMOOTH",
"599 873 OFFCURVE",
"591 970 OFFCURVE",
"508 970 CURVE SMOOTH",
"441 970 OFFCURVE",
"408 922 OFFCURVE",
"408 825 CURVE",
"85 825 LINE",
"85 1761 LINE",
"924 1761 LINE",
"924 1431 LINE",
"419 1431 LINE",
"419 1183 LINE",
"453 1226 OFFCURVE",
"514 1264 OFFCURVE",
"594 1264 CURVE SMOOTH",
"914 1264 OFFCURVE",
"977 999 OFFCURVE"
);
}
);
width = 1018;
}
);
unicode = 0035;
userData = {
com.typemytype.robofont.layerData = {
};
};
},
{
glyphname = six;
lastChange = "2016-07-01 04:47:39 +0000";
layers = (
{
layerId = "32DFA59F-C132-4587-B43B-6A11C46F7A16";
paths = (
{
closed = 1;
nodes = (
"982 533 CURVE SMOOTH",
"982 181 OFFCURVE",
"867 -22 OFFCURVE",
"523 -22 CURVE SMOOTH",
"156 -22 OFFCURVE",
"48 166 OFFCURVE",
"48 543 CURVE SMOOTH",
"48 904 LINE SMOOTH",
"48 1180 OFFCURVE",
"56 1466 OFFCURVE",
"224 1574 CURVE SMOOTH",
"297 1621 OFFCURVE",
"408 1655 OFFCURVE",
"533 1655 CURVE SMOOTH",
"755 1655 OFFCURVE",
"984 1539 OFFCURVE",
"984 1310 CURVE SMOOTH",
"984 1120 LINE",
"615 1120 LINE",
"615 1156 LINE SMOOTH",
"615 1244 OFFCURVE",
"612 1346 OFFCURVE",
"527 1346 CURVE SMOOTH",
"448 1346 OFFCURVE",
"422 1301 OFFCURVE",
"422 1220 CURVE SMOOTH",
"422 922 LINE",
"455 984 OFFCURVE",
"523 1026 OFFCURVE",
"619 1026 CURVE SMOOTH",
"910 1026 OFFCURVE",
"982 850 OFFCURVE"
);
},
{
closed = 1;
nodes = (
"510 302 CURVE SMOOTH",
"593 302 OFFCURVE",
"596 380 OFFCURVE",
"596 489 CURVE SMOOTH",
"596 571 LINE SMOOTH",
"596 667 OFFCURVE",
"569 715 OFFCURVE",
"515 715 CURVE SMOOTH",
"453 715 OFFCURVE",
"422 673 OFFCURVE",
"422 590 CURVE SMOOTH",
"422 432 LINE SMOOTH",
"422 345 OFFCURVE",
"451 302 OFFCURVE"
);
}
);
width = 1031;
}
);
unicode = 0036;
userData = {
com.typemytype.robofont.layerData = {
};
};
},
{
glyphname = seven;
lastChange = "2016-07-01 04:47:39 +0000";
layers = (
{
layerId = "32DFA59F-C132-4587-B43B-6A11C46F7A16";
paths = (
{
closed = 1;
nodes = (
"500 1 CURVE",
"267 0 LINE SMOOTH",
"238 0 OFFCURVE",
"130 1 OFFCURVE",
"102 1 CURVE",
"134 492 OFFCURVE",
"308 866 OFFCURVE",
"455 1232 CURVE SMOOTH",
"488 1313 OFFCURVE",
"511 1384 OFFCURVE",
"524 1435 CURVE",
"27 1435 LINE",
"27 1761 LINE",
"915 1761 LINE",
"915 1499 LINE",
"893 1292 OFFCURVE",
"786 1129 OFFCURVE",
"715 946 CURVE SMOOTH",
"610 676 OFFCURVE",
"523 368 OFFCURVE"
);
}
);
width = 936;
}
);
unicode = 0037;
userData = {
com.typemytype.robofont.layerData = {
};
};
},
{
glyphname = eight;
lastChange = "2016-07-01 04:47:39 +0000";
layers = (
{
layerId = "32DFA59F-C132-4587-B43B-6A11C46F7A16";
paths = (
{
closed = 1;
nodes = (
"604 592 CURVE SMOOTH",
"604 686 OFFCURVE",
"600 815 OFFCURVE",
"509 815 CURVE SMOOTH",
"418 815 OFFCURVE",
"407 674 OFFCURVE",
"414 575 CURVE",
"414 560 LINE SMOOTH",
"414 550 OFFCURVE",
"413 514 OFFCURVE",
"413 503 CURVE SMOOTH",
"413 387 OFFCURVE",
"445 329 OFFCURVE",
"509 329 CURVE SMOOTH",
"573 329 OFFCURVE",
"605 387 OFFCURVE",
"605 503 CURVE SMOOTH",
"605 525 OFFCURVE",
"604 571 OFFCURVE"
);
},
{
closed = 1;
nodes = (
"49 1289 CURVE SMOOTH",
"49 1335 LINE SMOOTH",
"49 1647 OFFCURVE",
"209 1782 OFFCURVE",
"509 1782 CURVE SMOOTH",
"817 1782 OFFCURVE",
"969 1644 OFFCURVE",
"969 1321 CURVE SMOOTH",
"969 1152 OFFCURVE",
"939 1034 OFFCURVE",
"820 984 CURVE",
"957 918 OFFCURVE",
"971 776 OFFCURVE",
"971 569 CURVE SMOOTH",
"971 550 OFFCURVE",
"971 535 OFFCURVE",
"970 525 CURVE",
"970 178 OFFCURVE",
"840 -19 OFFCURVE",
"509 -19 CURVE SMOOTH",
"178 -19 OFFCURVE",
"48 178 OFFCURVE",
"48 525 CURVE SMOOTH",
"48 642 LINE SMOOTH",
"48 820 OFFCURVE",
"83 927 OFFCURVE",
"198 986 CURVE",
"90 1030 OFFCURVE",
"49 1135 OFFCURVE"
);
},
{
closed = 1;
nodes = (
"509 1458 CURVE SMOOTH",
"437 1458 OFFCURVE",
"416 1377 OFFCURVE",
"416 1302 CURVE SMOOTH",
"416 1190 OFFCURVE",
"447 1134 OFFCURVE",
"509 1134 CURVE SMOOTH",
"571 1134 OFFCURVE",
"602 1190 OFFCURVE",
"602 1302 CURVE SMOOTH",
"602 1377 OFFCURVE",
"581 1458 OFFCURVE"
);
}
);
width = 1019;
}
);
unicode = 0038;
userData = {
com.typemytype.robofont.layerData = {
};
};
},
{
glyphname = nine;
lastChange = "2016-07-01 04:47:39 +0000";
layers = (
{
layerId = "32DFA59F-C132-4587-B43B-6A11C46F7A16";
paths = (
{
closed = 1;
nodes = (
"979 625 CURVE SMOOTH",
"979 240 OFFCURVE",
"882 -19 OFFCURVE",
"507 -19 CURVE SMOOTH",
"258 -19 OFFCURVE",
"45 102 OFFCURVE",
"45 356 CURVE SMOOTH",
"45 511 LINE",
"417 511 LINE",
"416 430 LINE",
"416 426 LINE SMOOTH",
"416 372 OFFCURVE",
"458 330 OFFCURVE",
"505 330 CURVE SMOOTH",
"561 330 OFFCURVE",
"597 379 OFFCURVE",
"597 444 CURVE SMOOTH",
"597 696 LINE",
"556 650 OFFCURVE",
"483 616 OFFCURVE",
"402 616 CURVE SMOOTH",
"92 616 OFFCURVE",
"48 875 OFFCURVE",
"48 1199 CURVE SMOOTH",
"48 1556 OFFCURVE",
"171 1777 OFFCURVE",
"520 1777 CURVE SMOOTH",
"875 1777 OFFCURVE",
"983 1552 OFFCURVE",
"983 1187 CURVE",
"980 749 LINE SMOOTH",
"979 695 OFFCURVE",
"979 653 OFFCURVE"
);
},
{
closed = 1;
nodes = (
"520 1453 CURVE SMOOTH",
"415 1453 OFFCURVE",
"428 1319 OFFCURVE",
"428 1190 CURVE SMOOTH",
"428 1078 OFFCURVE",
"412 935 OFFCURVE",
"518 935 CURVE SMOOTH",
"578 935 OFFCURVE",
"608 994 OFFCURVE",
"608 1111 CURVE SMOOTH",
"608 1277 LINE SMOOTH",
"608 1367 OFFCURVE",
"598 1453 OFFCURVE"
);
}
);
width = 1033;
}
);
unicode = 0039;
userData = {
com.typemytype.robofont.layerData = {
};
};
},
{
glyphname = zero.zero;
lastChange = "2016-07-01 08:19:50 +0000";
layers = (
{
layerId = "32DFA59F-C132-4587-B43B-6A11C46F7A16";
paths = (
{
closed = 1;
nodes = (
"657 1496 LINE",
"468 140 LINE",
"371 149 LINE",
"563 1505 LINE"
);
},
{
closed = 1;
nodes = (
"515 -19 CURVE SMOOTH",
"217 -19 OFFCURVE",
"49 183 OFFCURVE",
"49 496 CURVE SMOOTH",
"49 1142 LINE SMOOTH",
"49 1473 OFFCURVE",
"201 1655 OFFCURVE",
"515 1655 CURVE SMOOTH",
"829 1655 OFFCURVE",
"981 1473 OFFCURVE",
"981 1142 CURVE SMOOTH",
"981 496 LINE SMOOTH",
"981 183 OFFCURVE",
"813 -19 OFFCURVE"
);
},
{
closed = 1;
nodes = (
"515 330 CURVE SMOOTH",
"590 330 OFFCURVE",
"612 393 OFFCURVE",
"612 460 CURVE SMOOTH",
"612 1186 LINE SMOOTH",
"612 1273 OFFCURVE",
"604 1351 OFFCURVE",
"515 1351 CURVE SMOOTH",
"426 1351 OFFCURVE",
"418 1273 OFFCURVE",
"418 1186 CURVE SMOOTH",
"418 460 LINE SMOOTH",
"418 393 OFFCURVE",
"438 330 OFFCURVE"
);
}
);
width = 1031;
},
{
associatedMasterId = "32DFA59F-C132-4587-B43B-6A11C46F7A16";
layerId = "7895EE8B-3530-4AAB-B35A-2A8D1431D642";
name = "Condensed Jul 1 16, 13:49";
paths = (
{
closed = 1;
nodes = (
"652 1496 LINE",
"449 140 LINE",
"382 148 LINE",
"585 1504 LINE"
);
},
{
closed = 1;
nodes = (
"515 -19 CURVE SMOOTH",
"217 -19 OFFCURVE",
"49 183 OFFCURVE",
"49 496 CURVE SMOOTH",
"49 1142 LINE SMOOTH",
"49 1473 OFFCURVE",
"201 1655 OFFCURVE",
"515 1655 CURVE SMOOTH",
"829 1655 OFFCURVE",
"981 1473 OFFCURVE",
"981 1142 CURVE SMOOTH",
"981 496 LINE SMOOTH",
"981 183 OFFCURVE",
"813 -19 OFFCURVE"
);
},
{
closed = 1;
nodes = (
"515 340 CURVE SMOOTH",
"569 340 OFFCURVE",
"602 398 OFFCURVE",
"602 460 CURVE SMOOTH",
"602 1186 LINE SMOOTH",
"602 1268 OFFCURVE",
"595 1341 OFFCURVE",
"515 1341 CURVE SMOOTH",
"435 1341 OFFCURVE",
"428 1268 OFFCURVE",
"428 1186 CURVE SMOOTH",
"428 460 LINE SMOOTH",
"428 398 OFFCURVE",
"461 340 OFFCURVE"
);
}
);
width = 1031;
visible = 1;
}
);
},
{
glyphname = fraction;
lastChange = "2016-07-01 04:47:39 +0000";
layers = (
{
layerId = "32DFA59F-C132-4587-B43B-6A11C46F7A16";
paths = (
{
closed = 1;
nodes = (
"519 1767 LINE",
"803 1767 LINE",
"312 0 LINE",
"29 0 LINE"
);
}
);
width = 829;
}
);
unicode = 2044;
userData = {
com.typemytype.robofont.layerData = {
};
};
},
{
glyphname = onequarter;
lastChange = "2016-07-01 07:39:11 +0000";
layers = (
{
layerId = "32DFA59F-C132-4587-B43B-6A11C46F7A16";
paths = (
{
closed = 1;
nodes = (
"24 1469 OFFCURVE",
"23 1483 OFFCURVE",
"22 1487 CURVE",
"80 1487 OFFCURVE",
"196 1545 OFFCURVE",
"196 1607 CURVE",
"355 1607 LINE",
"355 656 LINE",
"145 656 LINE",
"145 1364 LINE",
"106 1344 OFFCURVE",
"65 1334 OFFCURVE",
"22 1334 CURVE",
"23 1377 OFFCURVE",
"24 1413 OFFCURVE",
"24 1444 CURVE SMOOTH"
);
},
{
closed = 1;
nodes = (
"803 1767 LINE",
"1087 1767 LINE",
"596 0 LINE",
"313 0 LINE"
);
},
{
closed = 1;
nodes = (
"1320 941 LINE",
"1320 322 LINE",
"1359 322 LINE",
"1359 151 LINE",
"1320 151 LINE",
"1320 -1 LINE",
"1113 -1 LINE",
"1113 151 LINE",
"810 151 LINE",
"810 300 LINE",
"997 941 LINE"
);
},
{
closed = 1;
nodes = (
"1113 322 LINE",
"1113 727 LINE",
"1003 322 LINE"
);
}
);
width = 1395;
}
);
unicode = 00BC;
userData = {
com.typemytype.robofont.layerData = {
};
};
},
{
glyphname = onehalf;
lastChange = "2016-07-01 04:47:39 +0000";
layers = (
{
layerId = "32DFA59F-C132-4587-B43B-6A11C46F7A16";
paths = (
{
closed = 1;
nodes = (
"22 1487 CURVE",
"80 1487 OFFCURVE",
"196 1545 OFFCURVE",
"196 1607 CURVE",
"355 1607 LINE",
"355 656 LINE",
"145 656 LINE",
"145 1364 LINE",
"106 1344 OFFCURVE",
"65 1334 OFFCURVE",
"22 1334 CURVE",
"23 1377 OFFCURVE",
"24 1413 OFFCURVE",
"24 1444 CURVE SMOOTH",
"24 1469 OFFCURVE",
"23 1483 OFFCURVE"
);
},
{
closed = 1;
nodes = (
"861 1767 LINE",
"1145 1767 LINE",
"654 0 LINE",
"371 0 LINE"
);
},
{
closed = 1;
nodes = (
"1526 712 CURVE SMOOTH",
"1526 453 OFFCURVE",
"1336 355 OFFCURVE",
"1246 182 CURVE",
"1519 182 LINE",
"1519 -1 LINE",
"1000 -1 LINE",
"1000 46 LINE SMOOTH",
"1000 258 OFFCURVE",
"1128 383 OFFCURVE",
"1263 546 CURVE SMOOTH",
"1297 586 OFFCURVE",
"1314 640 OFFCURVE",
"1314 709 CURVE SMOOTH",
"1314 764 OFFCURVE",
"1296 792 OFFCURVE",
"1261 792 CURVE SMOOTH",
"1227 792 OFFCURVE",
"1210 763 OFFCURVE",
"1210 705 CURVE SMOOTH",
"1210 586 LINE",
"1000 586 LINE",
"998 646 LINE SMOOTH",
"998 864 OFFCURVE",
"1052 974 OFFCURVE",
"1263 974 CURVE SMOOTH",
"1428 974 OFFCURVE",
"1526 879 OFFCURVE"
);
}
);
width = 1560;
}
);
unicode = 00BD;
userData = {
com.typemytype.robofont.layerData = {
};
};
},
{
glyphname = threequarters;
lastChange = "2016-07-01 04:47:39 +0000";
layers = (
{
layerId = "32DFA59F-C132-4587-B43B-6A11C46F7A16";
paths = (
{
closed = 1;
nodes = (
"547 935 CURVE SMOOTH",
"547 743 OFFCURVE",
"471 635 OFFCURVE",
"279 635 CURVE SMOOTH",
"105 635 OFFCURVE",
"30 725 OFFCURVE",
"30 904 CURVE SMOOTH",
"30 1004 LINE",
"232 1004 LINE",
"232 903 LINE SMOOTH",
"232 851 OFFCURVE",
"241 813 OFFCURVE",
"289 813 CURVE SMOOTH",
"340 813 OFFCURVE",
"340 865 OFFCURVE",
"340 935 CURVE SMOOTH",
"340 1011 OFFCURVE",
"332 1082 OFFCURVE",
"256 1082 CURVE SMOOTH",
"247 1082 OFFCURVE",
"241 1082 OFFCURVE",
"236 1081 CURVE",
"236 1254 LINE",
"305 1254 OFFCURVE",
"341 1279 OFFCURVE",
"341 1349 CURVE SMOOTH",
"341 1403 OFFCURVE",
"325 1430 OFFCURVE",
"293 1430 CURVE SMOOTH",
"232 1430 OFFCURVE",
"243 1373 OFFCURVE",
"240 1317 CURVE",
"36 1317 LINE",
"35 1351 LINE SMOOTH",
"36 1532 OFFCURVE",
"118 1606 OFFCURVE",
"292 1606 CURVE SMOOTH",
"460 1606 OFFCURVE",
"544 1521 OFFCURVE",
"544 1351 CURVE SMOOTH",
"544 1258 OFFCURVE",
"522 1194 OFFCURVE",
"452 1170 CURVE",
"536 1132 OFFCURVE",
"547 1066 OFFCURVE"
);
},
{
closed = 1;
nodes = (
"947 1767 LINE",
"1231 1767 LINE",
"740 0 LINE",
"457 0 LINE"
);
},
{
closed = 1;
nodes = (
"1436 943 LINE",
"1436 324 LINE",
"1475 324 LINE",
"1475 153 LINE",
"1436 153 LINE",
"1436 1 LINE",
"1229 1 LINE",
"1229 153 LINE",
"926 153 LINE",
"926 302 LINE",
"1113 943 LINE"
);
},
{
closed = 1;
nodes = (
"1229 324 LINE",
"1229 729 LINE",
"1119 324 LINE"
);
}
);
width = 1511;
}
);
unicode = 00BE;
userData = {
com.typemytype.robofont.layerData = {
};
};
},
{
glyphname = degree;
lastChange = "2016-07-01 04:47:39 +0000";
layers = (
{
layerId = "32DFA59F-C132-4587-B43B-6A11C46F7A16";
paths = (
{
closed = 1;
nodes = (
"398 1426 CURVE SMOOTH",
"309 1426 OFFCURVE",
"256 1356 OFFCURVE",
"256 1269 CURVE SMOOTH",
"256 1182 OFFCURVE",
"309 1112 OFFCURVE",
"398 1112 CURVE SMOOTH",
"487 1112 OFFCURVE",
"540 1182 OFFCURVE",
"540 1269 CURVE SMOOTH",
"540 1356 OFFCURVE",
"487 1426 OFFCURVE"
);
},
{
closed = 1;
nodes = (
"397 931 CURVE SMOOTH",
"183 931 OFFCURVE",
"44 1057 OFFCURVE",
"44 1269 CURVE SMOOTH",
"44 1480 OFFCURVE",
"183 1607 OFFCURVE",
"397 1607 CURVE SMOOTH",
"611 1607 OFFCURVE",
"751 1480 OFFCURVE",
"751 1269 CURVE SMOOTH",
"751 1058 OFFCURVE",
"611 931 OFFCURVE"
);
}
);
width = 796;
}
);
unicode = 00B0;
userData = {
com.typemytype.robofont.layerData = {
};
};
},
{
glyphname = percent;
lastChange = "2016-07-01 04:47:39 +0000";
layers = (
{
layerId = "32DFA59F-C132-4587-B43B-6A11C46F7A16";
paths = (
{
closed = 1;
nodes = (
"2122 765 CURVE SMOOTH",
"2122 402 LINE SMOOTH",
"2122 147 OFFCURVE",
"1979 -18 OFFCURVE",
"1730 -18 CURVE SMOOTH",
"1482 -18 OFFCURVE",
"1339 147 OFFCURVE",
"1339 402 CURVE SMOOTH",
"1339 765 LINE SMOOTH",
"1339 1034 OFFCURVE",
"1467 1183 OFFCURVE",
"1730 1183 CURVE SMOOTH",
"1993 1183 OFFCURVE",
"2122 1034 OFFCURVE"
);
},
{
closed = 1;
nodes = (
"1730 244 CURVE SMOOTH",
"1782 244 OFFCURVE",
"1823 287 OFFCURVE",
"1823 343 CURVE SMOOTH",
"1823 829 LINE SMOOTH",
"1823 907 OFFCURVE",
"1808 956 OFFCURVE",
"1730 956 CURVE SMOOTH",
"1652 956 OFFCURVE",
"1637 906 OFFCURVE",
"1637 829 CURVE SMOOTH",
"1637 343 LINE SMOOTH",
"1637 287 OFFCURVE",
"1678 244 OFFCURVE"
);
},
{
closed = 1;
nodes = (
"1200 1767 LINE",
"1524 1767 LINE",
"983 0 LINE",
"660 0 LINE"
);
},
{
closed = 1;
nodes = (
"825 1311 CURVE SMOOTH",
"825 948 LINE SMOOTH",
"825 693 OFFCURVE",
"682 528 OFFCURVE",
"433 528 CURVE SMOOTH",
"185 528 OFFCURVE",
"42 693 OFFCURVE",
"42 948 CURVE SMOOTH",
"42 1311 LINE SMOOTH",
"42 1580 OFFCURVE",
"170 1729 OFFCURVE",
"433 1729 CURVE SMOOTH",
"696 1729 OFFCURVE",
"825 1580 OFFCURVE"
);
},
{
closed = 1;
nodes = (
"433 790 CURVE SMOOTH",
"485 790 OFFCURVE",
"526 833 OFFCURVE",
"526 889 CURVE SMOOTH",
"526 1375 LINE SMOOTH",
"526 1453 OFFCURVE",
"511 1502 OFFCURVE",
"433 1502 CURVE SMOOTH",
"355 1502 OFFCURVE",
"340 1452 OFFCURVE",
"340 1375 CURVE SMOOTH",
"340 889 LINE SMOOTH",
"340 833 OFFCURVE",
"381 790 OFFCURVE"
);
}
);
width = 2164;
}
);
unicode = 0025;
userData = {
com.typemytype.robofont.layerData = {
};
};
},
{
glyphname = perthousand;
lastChange = "2016-07-01 04:47:39 +0000";
layers = (
{
layerId = "32DFA59F-C132-4587-B43B-6A11C46F7A16";
paths = (
{
closed = 1;
nodes = (
"2989 765 CURVE SMOOTH",
"2989 402 LINE SMOOTH",
"2989 147 OFFCURVE",
"2846 -18 OFFCURVE",
"2597 -18 CURVE SMOOTH",
"2349 -18 OFFCURVE",
"2206 147 OFFCURVE",
"2206 402 CURVE SMOOTH",
"2206 765 LINE SMOOTH",
"2206 1034 OFFCURVE",
"2334 1183 OFFCURVE",
"2597 1183 CURVE SMOOTH",
"2860 1183 OFFCURVE",
"2989 1034 OFFCURVE"
);
},
{
closed = 1;
nodes = (
"2597 244 CURVE SMOOTH",
"2649 244 OFFCURVE",
"2690 287 OFFCURVE",
"2690 343 CURVE SMOOTH",
"2690 829 LINE SMOOTH",
"2690 907 OFFCURVE",
"2675 956 OFFCURVE",
"2597 956 CURVE SMOOTH",
"2519 956 OFFCURVE",
"2504 906 OFFCURVE",
"2504 829 CURVE SMOOTH",
"2504 343 LINE SMOOTH",
"2504 287 OFFCURVE",
"2545 244 OFFCURVE"
);
},
{
closed = 1;
nodes = (
"1200 1767 LINE",
"1524 1767 LINE",
"983 0 LINE",
"660 0 LINE"
);
},
{
closed = 1;
nodes = (
"825 1311 CURVE SMOOTH",
"825 948 LINE SMOOTH",
"825 693 OFFCURVE",
"682 528 OFFCURVE",
"433 528 CURVE SMOOTH",
"185 528 OFFCURVE",
"42 693 OFFCURVE",
"42 948 CURVE SMOOTH",
"42 1311 LINE SMOOTH",
"42 1580 OFFCURVE",
"170 1729 OFFCURVE",
"433 1729 CURVE SMOOTH",
"696 1729 OFFCURVE",
"825 1580 OFFCURVE"
);
},
{
closed = 1;
nodes = (
"433 790 CURVE SMOOTH",
"485 790 OFFCURVE",
"526 833 OFFCURVE",
"526 889 CURVE SMOOTH",
"526 1375 LINE SMOOTH",
"526 1453 OFFCURVE",
"511 1502 OFFCURVE",
"433 1502 CURVE SMOOTH",
"355 1502 OFFCURVE",
"340 1452 OFFCURVE",
"340 1375 CURVE SMOOTH",
"340 889 LINE SMOOTH",
"340 833 OFFCURVE",
"381 790 OFFCURVE"
);
},
{
closed = 1;
nodes = (
"2122 765 CURVE SMOOTH",
"2122 402 LINE SMOOTH",
"2122 147 OFFCURVE",
"1979 -18 OFFCURVE",
"1730 -18 CURVE SMOOTH",
"1482 -18 OFFCURVE",
"1339 147 OFFCURVE",
"1339 402 CURVE SMOOTH",
"1339 765 LINE SMOOTH",
"1339 1034 OFFCURVE",
"1467 1183 OFFCURVE",
"1730 1183 CURVE SMOOTH",
"1993 1183 OFFCURVE",
"2122 1034 OFFCURVE"
);
},
{
closed = 1;
nodes = (
"1730 244 CURVE SMOOTH",
"1782 244 OFFCURVE",
"1823 287 OFFCURVE",
"1823 343 CURVE SMOOTH",
"1823 829 LINE SMOOTH",
"1823 907 OFFCURVE",
"1808 956 OFFCURVE",
"1730 956 CURVE SMOOTH",
"1652 956 OFFCURVE",
"1637 906 OFFCURVE",
"1637 829 CURVE SMOOTH",
"1637 343 LINE SMOOTH",
"1637 287 OFFCURVE",
"1678 244 OFFCURVE"
);
}
);
width = 3031;
}
);
unicode = 2030;
userData = {
com.typemytype.robofont.layerData = {
};
};
},
{
glyphname = plus;
lastChange = "2016-07-01 04:47:39 +0000";
layers = (
{
layerId = "32DFA59F-C132-4587-B43B-6A11C46F7A16";
paths = (
{
closed = 1;
nodes = (
"248 301 LINE",
"248 509 LINE",
"40 509 LINE",
"40 741 LINE",
"248 741 LINE",
"248 949 LINE",
"480 949 LINE",
"480 741 LINE",
"688 741 LINE",
"688 509 LINE",
"480 509 LINE",
"480 301 LINE"
);
}
);
width = 728;
}
);
unicode = 002B;
userData = {
com.typemytype.robofont.layerData = {
};
};
},
{
glyphname = minus;
lastChange = "2016-07-01 04:47:39 +0000";
layers = (
{
layerId = "32DFA59F-C132-4587-B43B-6A11C46F7A16";
paths = (
{
closed = 1;
nodes = (
"576 741 LINE",
"576 509 LINE",
"60 509 LINE",
"60 741 LINE"
);
}
);
width = 637;
}
);
unicode = 2212;
userData = {
com.typemytype.robofont.layerData = {
};
};
},
{
glyphname = plusminus;
lastChange = "2016-07-01 04:47:39 +0000";
layers = (
{
layerId = "32DFA59F-C132-4587-B43B-6A11C46F7A16";
paths = (
{
closed = 1;
nodes = (
"254 414 LINE",
"254 622 LINE",
"46 622 LINE",
"46 854 LINE",
"254 854 LINE",
"254 1062 LINE",
"486 1062 LINE",
"486 854 LINE",
"694 854 LINE",
"694 622 LINE",
"486 622 LINE",
"486 414 LINE"
);
},
{
closed = 1;
nodes = (
"603 231 LINE",
"603 -1 LINE",
"87 -1 LINE",
"87 231 LINE"
);
}
);
width = 734;
}
);
unicode = 00B1;
userData = {
com.typemytype.robofont.layerData = {
};
};
},
{
glyphname = equal;
lastChange = "2016-07-01 04:47:39 +0000";
layers = (
{
layerId = "32DFA59F-C132-4587-B43B-6A11C46F7A16";
paths = (
{
closed = 1;
nodes = (
"575 741 LINE",
"575 509 LINE",
"61 509 LINE",
"61 741 LINE"
);
},
{
closed = 1;
nodes = (
"575 1116 LINE",
"575 892 LINE",
"61 892 LINE",
"61 1116 LINE"
);
}
);
width = 637;
}
);
unicode = 003D;
userData = {
com.typemytype.robofont.layerData = {
};
};
},
{
glyphname = notequal;
lastChange = "2016-07-01 04:47:39 +0000";
layers = (
{
layerId = "32DFA59F-C132-4587-B43B-6A11C46F7A16";
paths = (
{
closed = 1;
nodes = (
"575 741 LINE",
"575 509 LINE",
"61 509 LINE",
"61 741 LINE"
);
},
{
closed = 1;
nodes = (
"575 1116 LINE",
"575 892 LINE",
"61 892 LINE",
"61 1116 LINE"
);
}
);
width = 637;
}
);
unicode = 2260;
userData = {
com.typemytype.robofont.layerData = {
};
};
},
{
glyphname = approxequal;
lastChange = "2016-07-01 04:47:39 +0000";
layers = (
{
layerId = "32DFA59F-C132-4587-B43B-6A11C46F7A16";
paths = (
{
closed = 1;
nodes = (
"639 776 CURVE SMOOTH",
"514 776 OFFCURVE",
"470 886 OFFCURVE",
"357 886 CURVE SMOOTH",
"328 886 OFFCURVE",
"302 860 OFFCURVE",
"279 807 CURVE",
"37 923 LINE",
"118 1122 OFFCURVE",
"228 1222 OFFCURVE",
"367 1222 CURVE SMOOTH",
"475 1222 OFFCURVE",
"548 1114 OFFCURVE",
"650 1114 CURVE SMOOTH",
"679 1114 OFFCURVE",
"706 1140 OFFCURVE",
"729 1193 CURVE",
"971 1077 LINE",
"889 876 OFFCURVE",
"778 776 OFFCURVE"
);
}
);
width = 1009;
}
);
unicode = 2248;
userData = {
com.typemytype.robofont.layerData = {
};
};
},
{
glyphname = multiply;
lastChange = "2016-07-01 04:47:39 +0000";
layers = (
{
layerId = "32DFA59F-C132-4587-B43B-6A11C46F7A16";
paths = (
{
closed = 1;
nodes = (
"502 314 LINE",
"355 461 LINE",
"208 314 LINE",
"44 478 LINE",
"191 625 LINE",
"44 772 LINE",
"208 936 LINE",
"355 789 LINE",
"502 936 LINE",
"666 772 LINE",
"519 625 LINE",
"666 478 LINE"
);
}
);
width = 710;
}
);
unicode = 00D7;
userData = {
com.typemytype.robofont.layerData = {
};
};
},
{
glyphname = less;
lastChange = "2016-07-01 04:47:39 +0000";
layers = (
{
layerId = "32DFA59F-C132-4587-B43B-6A11C46F7A16";
paths = (
{
closed = 1;
nodes = (
"605 558 LINE",
"605 200 LINE",
"35 545 LINE",
"35 959 LINE",
"605 1300 LINE",
"605 941 LINE",
"263 749 LINE"
);
}
);
width = 658;
}
);
unicode = 003C;
userData = {
com.typemytype.robofont.layerData = {
};
};
},
{
glyphname = greater;
lastChange = "2016-07-01 04:47:39 +0000";
layers = (
{
layerId = "32DFA59F-C132-4587-B43B-6A11C46F7A16";
paths = (
{
closed = 1;
nodes = (
"53 1300 LINE",
"623 959 LINE",
"623 545 LINE",
"53 200 LINE",
"53 558 LINE",
"395 749 LINE",
"53 941 LINE"
);
}
);
width = 658;
}
);
unicode = 003E;
userData = {
com.typemytype.robofont.layerData = {
};
};
},
{
glyphname = lessequal;
lastChange = "2016-07-01 04:47:39 +0000";
layers = (
{
layerId = "32DFA59F-C132-4587-B43B-6A11C46F7A16";
paths = (
{
closed = 1;
nodes = (
"609 650 LINE",
"609 292 LINE",
"39 637 LINE",
"39 1051 LINE",
"609 1392 LINE",
"609 1033 LINE",
"267 841 LINE"
);
},
{
closed = 1;
nodes = (
"582 232 LINE",
"582 0 LINE",
"66 0 LINE",
"66 232 LINE"
);
}
);
width = 661;
}
);
unicode = 2264;
userData = {
com.typemytype.robofont.layerData = {
};
};
},
{
glyphname = greaterequal;
lastChange = "2016-07-01 04:47:39 +0000";
layers = (
{
layerId = "32DFA59F-C132-4587-B43B-6A11C46F7A16";
paths = (
{
closed = 1;
nodes = (
"52 1392 LINE",
"622 1051 LINE",
"622 637 LINE",
"52 292 LINE",
"52 650 LINE",
"394 841 LINE",
"52 1033 LINE"
);
},
{
closed = 1;
nodes = (
"595 232 LINE",
"595 0 LINE",
"79 0 LINE",
"79 232 LINE"
);
}
);
width = 661;
}
);
unicode = 2265;
userData = {
com.typemytype.robofont.layerData = {
};
};
},
{
glyphname = divide;
lastChange = "2016-07-01 04:47:39 +0000";
layers = (
{
layerId = "32DFA59F-C132-4587-B43B-6A11C46F7A16";
paths = (
{
closed = 1;
nodes = (
"650 870 LINE",
"650 638 LINE",
"34 638 LINE",
"34 870 LINE"
);
},
{
closed = 1;
nodes = (
"491 535 LINE",
"491 237 LINE",
"193 237 LINE",
"193 535 LINE"
);
},
{
closed = 1;
nodes = (
"491 1274 LINE",
"491 976 LINE",
"193 976 LINE",
"193 1274 LINE"
);
}
);
width = 684;
}
);
unicode = 00F7;
userData = {
com.typemytype.robofont.layerData = {
};
};
},
{
glyphname = logicalnot;
lastChange = "2016-07-01 04:47:39 +0000";
layers = (
{
layerId = "32DFA59F-C132-4587-B43B-6A11C46F7A16";
paths = (
{
closed = 1;
nodes = (
"455 801 LINE",
"37 801 LINE",
"37 979 LINE",
"766 979 LINE",
"766 439 LINE",
"455 439 LINE"
);
}
);
width = 827;
}
);
unicode = 00AC;
userData = {
com.typemytype.robofont.layerData = {
};
};
},
{
glyphname = dagger;
lastChange = "2016-07-01 04:47:39 +0000";
layers = (
{
layerId = "32DFA59F-C132-4587-B43B-6A11C46F7A16";
paths = (
{
closed = 1;
nodes = (
"758 996 LINE",
"578 996 LINE",
"578 0 LINE",
"214 0 LINE",
"214 996 LINE",
"31 996 LINE",
"31 1292 LINE",
"214 1292 LINE",
"214 1592 LINE",
"578 1592 LINE",
"578 1292 LINE",
"758 1292 LINE"
);
}
);
width = 789;
}
);
unicode = 2020;
userData = {
com.typemytype.robofont.layerData = {
};
};
},
{
glyphname = daggerdbl;
lastChange = "2016-07-01 04:47:39 +0000";
layers = (
{
layerId = "32DFA59F-C132-4587-B43B-6A11C46F7A16";
paths = (
{
closed = 1;
nodes = (
"223 1236 LINE",
"223 1592 LINE",
"587 1592 LINE",
"587 1236 LINE",
"767 1236 LINE",
"767 940 LINE",
"587 940 LINE",
"587 646 LINE",
"767 646 LINE",
"767 350 LINE",
"587 350 LINE",
"587 0 LINE",
"223 0 LINE",
"223 350 LINE",
"40 350 LINE",
"40 646 LINE",
"223 646 LINE",
"223 940 LINE",
"40 940 LINE",
"40 1236 LINE"
);
}
);
width = 807;
}
);
unicode = 2021;
userData = {
com.typemytype.robofont.layerData = {
};
};
},
{
glyphname = section;
lastChange = "2016-07-01 04:47:39 +0000";
layers = (
{
layerId = "32DFA59F-C132-4587-B43B-6A11C46F7A16";
paths = (
{
closed = 1;
nodes = (
"468 242 CURVE SMOOTH",
"519 242 OFFCURVE",
"554 274 OFFCURVE",
"554 324 CURVE SMOOTH",
"554 401 OFFCURVE",
"349 460 OFFCURVE",
"296 488 CURVE SMOOTH",
"182 546 OFFCURVE",
"60 646 OFFCURVE",
"60 795 CURVE SMOOTH",
"60 883 OFFCURVE",
"106 962 OFFCURVE",
"198 1031 CURVE",
"106 1098 OFFCURVE",
"60 1180 OFFCURVE",
"60 1275 CURVE SMOOTH",
"60 1481 OFFCURVE",
"247 1607 OFFCURVE",
"466 1607 CURVE SMOOTH",
"732 1607 OFFCURVE",
"875 1488 OFFCURVE",
"875 1221 CURVE",
"570 1221 LINE",
"567 1304 OFFCURVE",
"536 1346 OFFCURVE",
"477 1346 CURVE SMOOTH",
"423 1346 OFFCURVE",
"381 1316 OFFCURVE",
"381 1264 CURVE SMOOTH",
"381 1189 OFFCURVE",
"585 1129 OFFCURVE",
"637 1101 CURVE SMOOTH",
"751 1042 OFFCURVE",
"874 941 OFFCURVE",
"874 792 CURVE SMOOTH",
"874 704 OFFCURVE",
"828 626 OFFCURVE",
"736 557 CURVE",
"829 488 OFFCURVE",
"875 407 OFFCURVE",
"875 313 CURVE SMOOTH",
"875 107 OFFCURVE",
"688 -19 OFFCURVE",
"469 -19 CURVE SMOOTH",
"195 -19 OFFCURVE",
"40 95 OFFCURVE",
"40 367 CURVE",
"375 367 LINE",
"378 284 OFFCURVE",
"409 242 OFFCURVE"
);
},
{
closed = 1;
nodes = (
"558 681 CURVE",
"585 717 OFFCURVE",
"599 750 OFFCURVE",
"599 780 CURVE SMOOTH",
"599 826 OFFCURVE",
"532 872 OFFCURVE",
"397 917 CURVE",
"364 878 OFFCURVE",
"347 843 OFFCURVE",
"347 813 CURVE SMOOTH",
"347 741 OFFCURVE",
"476 707 OFFCURVE"
);
}
);
width = 920;
}
);
unicode = 00A7;
userData = {
com.typemytype.robofont.layerData = {
};
};
},
{
glyphname = euro;
lastChange = "2016-07-01 05:31:23 +0000";
layers = (
{
layerId = "32DFA59F-C132-4587-B43B-6A11C46F7A16";
paths = (
{
closed = 1;
nodes = (
"606 -18 CURVE SMOOTH",
"308 -18 OFFCURVE",
"140 179 OFFCURVE",
"140 482 CURVE SMOOTH",
"140 559 LINE",
"40 559 LINE",
"40 791 LINE",
"140 791 LINE",
"140 942 LINE",
"40 942 LINE",
"40 1166 LINE",
"140 1166 LINE",
"140 1231 LINE SMOOTH",
"140 1552 OFFCURVE",
"292 1729 OFFCURVE",
"606 1729 CURVE SMOOTH",
"904 1729 OFFCURVE",
"1037 1549 OFFCURVE",
"1042 1245 CURVE",
"693 1246 LINE",
"693 1273 LINE SMOOTH",
"693 1353 OFFCURVE",
"686 1424 OFFCURVE",
"606 1424 CURVE SMOOTH",
"526 1424 OFFCURVE",
"519 1353 OFFCURVE",
"519 1273 CURVE SMOOTH",
"519 1166 LINE",
"834 1166 LINE",
"834 942 LINE",
"519 942 LINE",
"519 791 LINE",
"834 791 LINE",
"834 559 LINE",
"519 559 LINE",
"519 447 LINE SMOOTH",
"519 386 OFFCURVE",
"552 330 OFFCURVE",
"606 330 CURVE SMOOTH",
"660 330 OFFCURVE",
"693 386 OFFCURVE",
"693 447 CURVE SMOOTH",
"693 469 LINE",
"1042 475 LINE",
"1040 186 OFFCURVE",
"889 -18 OFFCURVE"
);
}
);
width = 1075;
}
);
unicode = 20AC;
userData = {
com.typemytype.robofont.layerData = {
};
};
},
{
glyphname = currency;
lastChange = "2016-07-01 04:47:39 +0000";
layers = (
{
layerId = "32DFA59F-C132-4587-B43B-6A11C46F7A16";
paths = (
{
closed = 1;
nodes = (
"499 545 CURVE SMOOTH",
"416 545 OFFCURVE",
"344 563 OFFCURVE",
"283 598 CURVE",
"194 509 LINE",
"45 659 LINE",
"136 750 LINE",
"101 815 OFFCURVE",
"83 887 OFFCURVE",
"83 964 CURVE SMOOTH",
"83 1042 OFFCURVE",
"100 1113 OFFCURVE",
"135 1178 CURVE",
"45 1268 LINE",
"194 1418 LINE",
"281 1330 LINE",
"346 1367 OFFCURVE",
"418 1385 OFFCURVE",
"499 1385 CURVE SMOOTH",
"579 1385 OFFCURVE",
"652 1367 OFFCURVE",
"717 1331 CURVE",
"804 1418 LINE",
"954 1269 LINE",
"864 1179 LINE",
"900 1114 OFFCURVE",
"918 1043 OFFCURVE",
"918 964 CURVE SMOOTH",
"918 885 OFFCURVE",
"900 813 OFFCURVE",
"864 748 CURVE",
"954 658 LINE",
"804 509 LINE",
"715 597 LINE",
"653 562 OFFCURVE",
"581 545 OFFCURVE"
);
},
{
closed = 1;
nodes = (
"708 966 CURVE SMOOTH",
"708 1092 OFFCURVE",
"628 1186 OFFCURVE",
"499 1186 CURVE SMOOTH",
"373 1186 OFFCURVE",
"291 1087 OFFCURVE",
"291 964 CURVE SMOOTH",
"291 840 OFFCURVE",
"372 741 OFFCURVE",
"499 741 CURVE SMOOTH",
"626 741 OFFCURVE",
"708 842 OFFCURVE"
);
}
);
width = 1000;
}
);
unicode = 00A4;
userData = {
com.typemytype.robofont.layerData = {
};
};
},
{
glyphname = dollar;
lastChange = "2016-07-01 04:47:39 +0000";
layers = (
{
layerId = "32DFA59F-C132-4587-B43B-6A11C46F7A16";
paths = (
{
closed = 1;
nodes = (
"911 413 CURVE SMOOTH",
"911 193 OFFCURVE",
"760 57 OFFCURVE",
"557 34 CURVE",
"557 -113 LINE",
"384 -113 LINE",
"384 36 LINE",
"133 65 OFFCURVE",
"34 208 OFFCURVE",
"34 488 CURVE SMOOTH",
"34 543 LINE",
"382 543 LINE",
"382 501 LINE SMOOTH",
"382 398 OFFCURVE",
"413 347 OFFCURVE",
"476 347 CURVE SMOOTH",
"532 347 OFFCURVE",
"560 397 OFFCURVE",
"560 456 CURVE SMOOTH",
"560 479 OFFCURVE",
"539 514 OFFCURVE",
"498 560 CURVE",
"210 849 LINE SMOOTH",
"105 954 OFFCURVE",
"52 1069 OFFCURVE",
"52 1192 CURVE SMOOTH",
"52 1392 OFFCURVE",
"203 1526 OFFCURVE",
"384 1558 CURVE",
"384 1679 LINE",
"557 1679 LINE",
"557 1561 LINE",
"785 1532 OFFCURVE",
"906 1366 OFFCURVE",
"906 1105 CURVE",
"549 1105 LINE",
"547 1190 LINE",
"544 1227 OFFCURVE",
"505 1259 OFFCURVE",
"465 1259 CURVE SMOOTH",
"419 1259 OFFCURVE",
"381 1228 OFFCURVE",
"381 1182 CURVE SMOOTH",
"381 1149 OFFCURVE",
"414 1099 OFFCURVE",
"480 1034 CURVE SMOOTH",
"760 758 LINE SMOOTH",
"842 677 OFFCURVE",
"911 559 OFFCURVE"
);
}
);
width = 946;
}
);
unicode = 0024;
userData = {
com.typemytype.robofont.layerData = {
};
};
},
{
glyphname = cent;
lastChange = "2016-07-01 04:47:39 +0000";
layers = (
{
layerId = "32DFA59F-C132-4587-B43B-6A11C46F7A16";
paths = (
{
closed = 1;
nodes = (
"576 614 LINE",
"941 614 LINE",
"941 379 LINE SMOOTH",
"941 155 OFFCURVE",
"795 16 OFFCURVE",
"595 -12 CURVE",
"595 -113 LINE",
"422 -113 LINE",
"422 -13 LINE",
"149 18 OFFCURVE",
"48 190 OFFCURVE",
"48 492 CURVE SMOOTH",
"48 954 LINE SMOOTH",
"48 1294 OFFCURVE",
"130 1485 OFFCURVE",
"422 1514 CURVE",
"422 1607 LINE",
"595 1607 LINE",
"595 1511 LINE",
"792 1483 OFFCURVE",
"941 1354 OFFCURVE",
"941 1135 CURVE SMOOTH",
"941 879 LINE",
"576 879 LINE",
"576 1116 LINE SMOOTH",
"576 1185 OFFCURVE",
"563 1239 OFFCURVE",
"496 1239 CURVE SMOOTH",
"437 1239 OFFCURVE",
"408 1197 OFFCURVE",
"408 1114 CURVE SMOOTH",
"408 387 LINE SMOOTH",
"408 326 OFFCURVE",
"433 264 OFFCURVE",
"494 264 CURVE SMOOTH",
"556 264 OFFCURVE",
"578 322 OFFCURVE",
"578 389 CURVE SMOOTH"
);
}
);
width = 986;
}
);
unicode = 00A2;
userData = {
com.typemytype.robofont.layerData = {
};
};
},
{
glyphname = florin;
lastChange = "2016-07-01 04:47:39 +0000";
layers = (
{
layerId = "32DFA59F-C132-4587-B43B-6A11C46F7A16";
paths = (
{
closed = 1;
nodes = (
"535 1362 CURVE SMOOTH",
"486 1362 OFFCURVE",
"480 1332 OFFCURVE",
"480 1281 CURVE SMOOTH",
"480 1263 LINE",
"578 1263 LINE",
"578 986 LINE",
"487 986 LINE",
"487 195 LINE SMOOTH",
"487 34 OFFCURVE",
"406 -47 OFFCURVE",
"245 -47 CURVE SMOOTH",
"160 -47 OFFCURVE",
"92 -37 OFFCURVE",
"41 -18 CURVE",
"41 203 LINE",
"60 200 OFFCURVE",
"74 198 OFFCURVE",
"84 198 CURVE SMOOTH",
"133 198 OFFCURVE",
"139 228 OFFCURVE",
"139 279 CURVE SMOOTH",
"139 297 LINE",
"132 986 LINE",
"47 986 LINE",
"47 1263 LINE",
"132 1263 LINE",
"132 1365 LINE SMOOTH",
"132 1526 OFFCURVE",
"213 1607 OFFCURVE",
"374 1607 CURVE SMOOTH",
"459 1607 OFFCURVE",
"527 1597 OFFCURVE",
"578 1578 CURVE",
"578 1357 LINE",
"559 1360 OFFCURVE",
"545 1362 OFFCURVE"
);
}
);
width = 620;
}
);
unicode = 0192;
userData = {
com.typemytype.robofont.layerData = {
};
};
},
{
glyphname = sterling;
lastChange = "2016-07-01 04:47:39 +0000";
layers = (
{
layerId = "32DFA59F-C132-4587-B43B-6A11C46F7A16";
paths = (
{
closed = 1;
nodes = (
"924 0 LINE",
"42 0 LINE",
"42 281 LINE",
"162 352 OFFCURVE",
"218 402 OFFCURVE",
"218 568 CURVE SMOOTH",
"218 612 OFFCURVE",
"215 647 OFFCURVE",
"209 673 CURVE",
"47 673 LINE",
"47 905 LINE",
"182 905 LINE",
"168 964 LINE SMOOTH",
"154 1023 OFFCURVE",
"127 1158 OFFCURVE",
"127 1224 CURVE SMOOTH",
"127 1489 OFFCURVE",
"282 1608 OFFCURVE",
"544 1608 CURVE SMOOTH",
"833 1608 OFFCURVE",
"933 1421 OFFCURVE",
"933 1125 CURVE",
"614 1125 LINE",
"614 1212 OFFCURVE",
"617 1312 OFFCURVE",
"550 1312 CURVE SMOOTH",
"487 1312 OFFCURVE",
"494 1250 OFFCURVE",
"494 1186 CURVE SMOOTH",
"494 1173 LINE SMOOTH",
"494 1142 OFFCURVE",
"513 1053 OFFCURVE",
"550 905 CURVE",
"834 905 LINE",
"834 673 LINE",
"585 673 LINE",
"596 541 LINE",
"589 422 OFFCURVE",
"530 337 OFFCURVE",
"454 291 CURVE",
"924 291 LINE"
);
}
);
width = 970;
}
);
unicode = 00A3;
userData = {
com.typemytype.robofont.layerData = {
};
};
},
{
glyphname = yen;
lastChange = "2016-07-01 04:47:39 +0000";
layers = (
{
layerId = "32DFA59F-C132-4587-B43B-6A11C46F7A16";
paths = (
{
closed = 1;
nodes = (
"309 408 LINE",
"309 475 LINE",
"171 475 LINE",
"171 699 LINE",
"263 699 LINE",
"28 1593 LINE",
"377 1593 LINE",
"475 1053 LINE",
"573 1593 LINE",
"921 1593 LINE",
"687 699 LINE",
"775 699 LINE",
"775 475 LINE",
"641 475 LINE",
"641 408 LINE",
"775 408 LINE",
"775 176 LINE",
"641 176 LINE",
"641 0 LINE",
"309 0 LINE",
"309 176 LINE",
"171 176 LINE",
"171 408 LINE"
);
}
);
width = 948;
}
);
unicode = 00A5;
userData = {
com.typemytype.robofont.layerData = {
};
};
},
{
glyphname = onesuperior;
lastChange = "2016-07-01 05:31:23 +0000";
layers = (
{
layerId = "32DFA59F-C132-4587-B43B-6A11C46F7A16";
paths = (
{
closed = 1;
nodes = (
"29 1487 CURVE",
"87 1487 OFFCURVE",
"203 1545 OFFCURVE",
"203 1607 CURVE",
"362 1607 LINE",
"362 656 LINE",
"152 656 LINE",
"152 1364 LINE",
"113 1344 OFFCURVE",
"72 1334 OFFCURVE",
"29 1334 CURVE",
"30 1377 OFFCURVE",
"31 1413 OFFCURVE",
"31 1444 CURVE SMOOTH",
"31 1469 OFFCURVE",
"30 1483 OFFCURVE"
);
}
);
width = 421;
}
);
unicode = 00B9;
userData = {
com.typemytype.robofont.layerData = {
};
};
},
{
glyphname = twosuperior;
lastChange = "2016-07-01 05:31:23 +0000";
layers = (
{
layerId = "32DFA59F-C132-4587-B43B-6A11C46F7A16";
paths = (
{
closed = 1;
nodes = (
"573 1344 CURVE SMOOTH",
"573 1085 OFFCURVE",
"383 987 OFFCURVE",
"293 814 CURVE",
"566 814 LINE",
"566 631 LINE",
"47 631 LINE",
"47 678 LINE SMOOTH",
"47 890 OFFCURVE",
"175 1015 OFFCURVE",
"310 1178 CURVE SMOOTH",
"344 1218 OFFCURVE",
"361 1272 OFFCURVE",
"361 1341 CURVE SMOOTH",
"361 1396 OFFCURVE",
"343 1424 OFFCURVE",
"308 1424 CURVE SMOOTH",
"274 1424 OFFCURVE",
"257 1395 OFFCURVE",
"257 1337 CURVE SMOOTH",
"257 1218 LINE",
"47 1218 LINE",
"45 1278 LINE SMOOTH",
"45 1496 OFFCURVE",
"99 1606 OFFCURVE",
"310 1606 CURVE SMOOTH",
"475 1606 OFFCURVE",
"573 1511 OFFCURVE"
);
}
);
width = 618;
}
);
unicode = 00B2;
userData = {
com.typemytype.robofont.layerData = {
};
};
},
{
glyphname = threesuperior;
lastChange = "2016-07-01 05:31:23 +0000";
layers = (
{
layerId = "32DFA59F-C132-4587-B43B-6A11C46F7A16";
paths = (
{
closed = 1;
nodes = (
"559 935 CURVE SMOOTH",
"559 743 OFFCURVE",
"483 635 OFFCURVE",
"291 635 CURVE SMOOTH",
"117 635 OFFCURVE",
"42 725 OFFCURVE",
"42 904 CURVE SMOOTH",
"42 1004 LINE",
"244 1004 LINE",
"244 903 LINE SMOOTH",
"244 851 OFFCURVE",
"253 813 OFFCURVE",
"301 813 CURVE SMOOTH",
"352 813 OFFCURVE",
"352 865 OFFCURVE",
"352 935 CURVE SMOOTH",
"352 1011 OFFCURVE",
"344 1082 OFFCURVE",
"268 1082 CURVE SMOOTH",
"259 1082 OFFCURVE",
"253 1082 OFFCURVE",
"248 1081 CURVE",
"248 1254 LINE",
"317 1254 OFFCURVE",
"353 1279 OFFCURVE",
"353 1349 CURVE SMOOTH",
"353 1403 OFFCURVE",
"337 1430 OFFCURVE",
"305 1430 CURVE SMOOTH",
"244 1430 OFFCURVE",
"255 1373 OFFCURVE",
"252 1317 CURVE",
"48 1317 LINE",
"47 1351 LINE SMOOTH",
"48 1532 OFFCURVE",
"130 1606 OFFCURVE",
"304 1606 CURVE SMOOTH",
"472 1606 OFFCURVE",
"556 1521 OFFCURVE",
"556 1351 CURVE SMOOTH",
"556 1258 OFFCURVE",
"534 1194 OFFCURVE",
"464 1170 CURVE",
"548 1132 OFFCURVE",
"559 1066 OFFCURVE"
);
}
);
width = 610;
}
);
unicode = 00B3;
userData = {
com.typemytype.robofont.layerData = {
};
};
},
{
glyphname = ordfeminine;
lastChange = "2016-07-01 04:47:39 +0000";
layers = (
{
layerId = "32DFA59F-C132-4587-B43B-6A11C46F7A16";
paths = (
{
closed = 1;
nodes = (
"286 389 CURVE SMOOTH",
"88 389 OFFCURVE",
"44 541 OFFCURVE",
"44 744 CURVE SMOOTH",
"44 1068 OFFCURVE",
"193 1090 OFFCURVE",
"459 1181 CURVE",
"459 1183 LINE SMOOTH",
"459 1259 OFFCURVE",
"474 1386 OFFCURVE",
"398 1386 CURVE SMOOTH",
"359 1386 OFFCURVE",
"339 1364 OFFCURVE",
"339 1321 CURVE SMOOTH",
"339 1241 LINE",
"63 1241 LINE",
"62 1250 OFFCURVE",
"62 1263 OFFCURVE",
"62 1280 CURVE SMOOTH",
"62 1516 OFFCURVE",
"169 1607 OFFCURVE",
"412 1607 CURVE SMOOTH",
"419 1607 LINE SMOOTH",
"606 1607 OFFCURVE",
"745 1501 OFFCURVE",
"745 1310 CURVE SMOOTH",
"745 403 LINE",
"463 403 LINE",
"463 527 LINE",
"446 461 OFFCURVE",
"368 389 OFFCURVE"
);
},
{
closed = 1;
nodes = (
"458 704 CURVE SMOOTH",
"458 1017 LINE",
"379 986 OFFCURVE",
"334 948 OFFCURVE",
"334 855 CURVE SMOOTH",
"334 716 LINE SMOOTH",
"334 646 OFFCURVE",
"355 611 OFFCURVE",
"398 611 CURVE SMOOTH",
"444 611 OFFCURVE",
"458 659 OFFCURVE"
);
}
);
width = 803;
}
);
unicode = 00AA;
userData = {
com.typemytype.robofont.layerData = {
};
};
},
{
glyphname = ordmasculine;
lastChange = "2016-07-01 04:47:39 +0000";
layers = (
{
layerId = "32DFA59F-C132-4587-B43B-6A11C46F7A16";
paths = (
{
closed = 1;
nodes = (
"762 1235 CURVE SMOOTH",
"762 757 LINE SMOOTH",
"762 515 OFFCURVE",
"645 387 OFFCURVE",
"406 387 CURVE SMOOTH",
"169 387 OFFCURVE",
"50 510 OFFCURVE",
"50 757 CURVE SMOOTH",
"50 1235 LINE SMOOTH",
"50 1456 OFFCURVE",
"182 1605 OFFCURVE",
"403 1605 CURVE SMOOTH",
"406 1605 LINE SMOOTH",
"629 1605 OFFCURVE",
"762 1460 OFFCURVE"
);
},
{
closed = 1;
nodes = (
"339 1280 CURVE SMOOTH",
"339 699 LINE SMOOTH",
"339 586 OFFCURVE",
"472 569 OFFCURVE",
"472 699 CURVE SMOOTH",
"472 1280 LINE SMOOTH",
"472 1349 OFFCURVE",
"450 1384 OFFCURVE",
"406 1384 CURVE SMOOTH",
"361 1384 OFFCURVE",
"339 1349 OFFCURVE"
);
}
);
width = 813;
}
);
unicode = 00BA;
userData = {
com.typemytype.robofont.layerData = {
};
};
},
{
glyphname = micro;
lastChange = "2016-07-01 05:31:24 +0000";
layers = (
{
layerId = "32DFA59F-C132-4587-B43B-6A11C46F7A16";
paths = (
{
closed = 1;
nodes = (
"502 264 CURVE SMOOTH",
"585 264 OFFCURVE",
"586 360 OFFCURVE",
"586 443 CURVE SMOOTH",
"586 455 LINE",
"588 1500 LINE",
"944 1500 LINE",
"944 0 LINE",
"586 0 LINE",
"586 160 LINE",
"552 72 OFFCURVE",
"509 6 OFFCURVE",
"422 -11 CURVE",
"422 -186 LINE",
"62 -186 LINE",
"62 1500 LINE",
"422 1500 LINE",
"422 455 LINE SMOOTH",
"422 342 OFFCURVE",
"414 264 OFFCURVE"
);
}
);
width = 1006;
}
);
unicode = 00B5;
userData = {
com.typemytype.robofont.layerData = {
};
};
},
{
glyphname = colonsign;
lastChange = "2016-07-01 08:39:25 +0000";
layers = (
{
layerId = "32DFA59F-C132-4587-B43B-6A11C46F7A16";
paths = (
{
closed = 1;
nodes = (
"384 294 OFFCURVE",
"418 228 OFFCURVE",
"518 228 CURVE SMOOTH",
"615 228 OFFCURVE",
"654 301 OFFCURVE",
"654 408 CURVE SMOOTH",
"654 682 LINE",
"915 682 LINE",
"915 381 LINE SMOOTH",
"915 103 OFFCURVE",
"767 -21 OFFCURVE",
"520 -21 CURVE SMOOTH",
"284 -21 OFFCURVE",
"128 134 OFFCURVE",
"128 391 CURVE SMOOTH",
"128 1129 LINE SMOOTH",
"128 1437 OFFCURVE",
"246 1600 OFFCURVE",
"528 1600 CURVE SMOOTH",
"748 1600 OFFCURVE",
"908 1482 OFFCURVE",
"908 1232 CURVE SMOOTH",
"908 952 LINE",
"654 952 LINE",
"654 1136 LINE SMOOTH",
"654 1270 OFFCURVE",
"624 1340 OFFCURVE",
"520 1340 CURVE SMOOTH",
"404 1340 OFFCURVE",
"384 1267 OFFCURVE",
"384 1161 CURVE SMOOTH",
"384 408 LINE SMOOTH"
);
},
{
closed = 1;
nodes = (
"648 1679 LINE",
"278 -113 LINE",
"173 -113 LINE",
"543 1679 LINE"
);
},
{
closed = 1;
nodes = (
"828 1679 LINE",
"458 -113 LINE",
"353 -113 LINE",
"723 1679 LINE"
);
}
);
width = 1042;
},
{
associatedMasterId = "32DFA59F-C132-4587-B43B-6A11C46F7A16";
layerId = "5DD7724E-8236-43BD-9DFD-E91206D76853";
name = "Condensed Jul 1 16, 14:07";
paths = (
{
closed = 1;
nodes = (
"454 332 OFFCURVE",
"473 288 OFFCURVE",
"528 288 CURVE SMOOTH",
"582 288 OFFCURVE",
"604 336 OFFCURVE",
"604 408 CURVE SMOOTH",
"604 682 LINE",
"925 682 LINE",
"925 381 LINE SMOOTH",
"925 103 OFFCURVE",
"777 -21 OFFCURVE",
"530 -21 CURVE SMOOTH",
"294 -21 OFFCURVE",
"138 134 OFFCURVE",
"138 391 CURVE SMOOTH",
"138 1129 LINE SMOOTH",
"138 1437 OFFCURVE",
"256 1600 OFFCURVE",
"538 1600 CURVE SMOOTH",
"758 1600 OFFCURVE",
"918 1482 OFFCURVE",
"918 1232 CURVE SMOOTH",
"918 952 LINE",
"604 952 LINE",
"604 1136 LINE SMOOTH",
"604 1230 OFFCURVE",
"588 1280 OFFCURVE",
"530 1280 CURVE SMOOTH",
"465 1280 OFFCURVE",
"454 1231 OFFCURVE",
"454 1161 CURVE SMOOTH",
"454 408 LINE SMOOTH"
);
},
{
closed = 1;
nodes = (
"708 1679 LINE",
"298 -113 LINE",
"223 -113 LINE",
"633 1679 LINE"
);
},
{
closed = 1;
nodes = (
"848 1679 LINE",
"438 -113 LINE",
"363 -113 LINE",
"773 1679 LINE"
);
}
);
width = 971;
visible = 1;
}
);
unicode = 20A1;
},
{
glyphname = franc;
lastChange = "2016-07-01 09:25:55 +0000";
layers = (
{
layerId = "32DFA59F-C132-4587-B43B-6A11C46F7A16";
paths = (
{
closed = 1;
nodes = (
"573 722 LINE",
"573 0 LINE",
"252 0 LINE",
"252 1592 LINE",
"889 1592 LINE",
"889 1282 LINE",
"573 1282 LINE",
"573 1028 LINE",
"873 1028 LINE",
"873 722 LINE"
);
},
{
closed = 1;
nodes = (
"774 325 LINE",
"152 325 LINE",
"152 505 LINE",
"774 505 LINE"
);
}
);
width = 1040;
}
);
unicode = 20A3;
},
{
glyphname = lira;
lastChange = "2016-07-01 08:22:51 +0000";
layers = (
{
layerId = "32DFA59F-C132-4587-B43B-6A11C46F7A16";
paths = (
{
closed = 1;
nodes = (
"596 541 CURVE SMOOTH",
"596 422 OFFCURVE",
"530 337 OFFCURVE",
"454 291 CURVE",
"924 291 LINE",
"924 0 LINE",
"42 0 LINE",
"42 281 LINE",
"162 352 OFFCURVE",
"218 402 OFFCURVE",
"218 568 CURVE SMOOTH",
"218 822 OFFCURVE",
"127 1082 OFFCURVE",
"127 1224 CURVE SMOOTH",
"127 1489 OFFCURVE",
"282 1608 OFFCURVE",
"544 1608 CURVE SMOOTH",
"833 1608 OFFCURVE",
"933 1421 OFFCURVE",
"933 1125 CURVE",
"614 1125 LINE",
"614 1212 OFFCURVE",
"617 1312 OFFCURVE",
"550 1312 CURVE SMOOTH",
"487 1312 OFFCURVE",
"494 1250 OFFCURVE",
"494 1186 CURVE SMOOTH",
"494 1050 OFFCURVE",
"596 794 OFFCURVE"
);
},
{
closed = 1;
nodes = (
"815 795 LINE",
"28 795 LINE",
"28 975 LINE",
"815 975 LINE"
);
},
{
closed = 1;
nodes = (
"815 495 LINE",
"28 495 LINE",
"28 675 LINE",
"815 675 LINE"
);
}
);
width = 970;
},
{
associatedMasterId = "32DFA59F-C132-4587-B43B-6A11C46F7A16";
layerId = "9EAFD2E2-BF79-4D72-BED4-B754093EFD73";
name = "Condensed Jul 1 16, 13:50";
paths = (
{
closed = 1;
nodes = (
"924 0 LINE",
"42 0 LINE",
"42 281 LINE",
"162 352 OFFCURVE",
"218 402 OFFCURVE",
"218 568 CURVE SMOOTH",
"218 612 OFFCURVE",
"215 647 OFFCURVE",
"209 673 CURVE",
"47 673 LINE",
"47 905 LINE",
"182 905 LINE",
"168 964 LINE SMOOTH",
"154 1023 OFFCURVE",
"127 1158 OFFCURVE",
"127 1224 CURVE SMOOTH",
"127 1489 OFFCURVE",
"282 1608 OFFCURVE",
"544 1608 CURVE SMOOTH",
"833 1608 OFFCURVE",
"933 1421 OFFCURVE",
"933 1125 CURVE",
"614 1125 LINE",
"614 1212 OFFCURVE",
"617 1312 OFFCURVE",
"550 1312 CURVE SMOOTH",
"487 1312 OFFCURVE",
"494 1250 OFFCURVE",
"494 1186 CURVE SMOOTH",
"494 1173 LINE SMOOTH",
"494 1142 OFFCURVE",
"513 1053 OFFCURVE",
"550 905 CURVE",
"834 905 LINE",
"834 673 LINE",
"585 673 LINE",
"596 541 LINE",
"589 422 OFFCURVE",
"530 337 OFFCURVE",
"454 291 CURVE",
"924 291 LINE"
);
}
);
width = 970;
visible = 1;
}
);
unicode = 20A4;
},
{
glyphname = naira;
lastChange = "2016-07-01 08:34:00 +0000";
layers = (
{
layerId = "32DFA59F-C132-4587-B43B-6A11C46F7A16";
paths = (
{
closed = 1;
nodes = (
"1013 915 LINE",
"421 915 LINE",
"372 1022 LINE",
"362 915 LINE",
"33 915 LINE",
"33 1095 LINE",
"1013 1095 LINE"
);
},
{
closed = 1;
nodes = (
"1013 535 LINE",
"33 535 LINE",
"33 715 LINE",
"627 715 LINE",
"670 612 LINE",
"700 715 LINE",
"1013 715 LINE"
);
},
{
closed = 1;
nodes = (
"669 640 LINE",
"669 1593 LINE",
"913 1593 LINE",
"913 0 LINE",
"651 0 LINE",
"377 971 LINE",
"377 0 LINE",
"133 0 LINE",
"133 1593 LINE",
"395 1593 LINE"
);
}
);
width = 1046;
}
);
unicode = 20A6;
},
{
glyphname = won;
lastChange = "2016-07-01 09:21:15 +0000";
layers = (
{
layerId = "32DFA59F-C132-4587-B43B-6A11C46F7A16";
paths = (
{
closed = 1;
nodes = (
"30 1592 LINE",
"300 1592 LINE",
"395 417 LINE",
"518 1592 LINE",
"714 1592 LINE",
"848 417 LINE",
"929 1592 LINE",
"1199 1592 LINE",
"1005 0 LINE",
"725 0 LINE",
"614 1127 LINE",
"503 0 LINE",
"223 0 LINE"
);
},
{
closed = 1;
nodes = (
"1229 1012 LINE",
"641 1012 LINE",
"614 1169 LINE",
"585 1012 LINE",
"0 1012 LINE",
"0 1192 LINE",
"1229 1192 LINE"
);
},
{
closed = 1;
nodes = (
"1229 692 LINE",
"0 692 LINE",
"0 872 LINE",
"1229 872 LINE"
);
}
);
width = 1229;
}
);
unicode = 20A9;
},
{
glyphname = dong;
lastChange = "2016-07-01 09:15:05 +0000";
layers = (
{
layerId = "32DFA59F-C132-4587-B43B-6A11C46F7A16";
paths = (
{
closed = 1;
nodes = (
"891 1498 LINE",
"891 1596 LINE",
"567 1596 LINE",
"567 1498 LINE",
"233 1498 LINE",
"233 1331 LINE",
"567 1331 LINE",
"567 1161 LINE",
"523 1221 OFFCURVE",
"457 1251 OFFCURVE",
"371 1251 CURVE SMOOTH",
"185 1251 OFFCURVE",
"91 1105 OFFCURVE",
"91 921 CURVE SMOOTH",
"88 430 LINE SMOOTH",
"88 180 OFFCURVE",
"115 -18 OFFCURVE",
"365 -18 CURVE SMOOTH",
"478 -18 OFFCURVE",
"531 44 OFFCURVE",
"567 142 CURVE",
"567 -2 LINE",
"891 -2 LINE",
"891 1331 LINE",
"954 1331 LINE",
"954 1498 LINE"
);
},
{
closed = 1;
nodes = (
"438 237 OFFCURVE",
"412 294 OFFCURVE",
"412 407 CURVE SMOOTH",
"412 857 LINE SMOOTH",
"412 927 OFFCURVE",
"421 999 OFFCURVE",
"491 999 CURVE SMOOTH",
"554 999 OFFCURVE",
"567 921 OFFCURVE",
"567 857 CURVE SMOOTH",
"567 468 LINE SMOOTH",
"567 380 OFFCURVE",
"578 237 OFFCURVE",
"489 237 CURVE SMOOTH"
);
},
{
closed = 1;
nodes = (
"88 -340 LINE",
"88 -106 LINE",
"891 -106 LINE",
"891 -340 LINE"
);
}
);
width = 1042;
}
);
unicode = 20AB;
},
{
glyphname = kip;
lastChange = "2016-07-01 09:11:20 +0000";
layers = (
{
layerId = "32DFA59F-C132-4587-B43B-6A11C46F7A16";
paths = (
{
closed = 1;
nodes = (
"451 1592 LINE",
"451 954 LINE",
"639 1592 LINE",
"929 1592 LINE",
"711 863 LINE",
"966 0 LINE",
"666 0 LINE",
"452 770 LINE",
"452 0 LINE",
"176 0 LINE",
"176 1592 LINE"
);
},
{
closed = 1;
nodes = (
"881 740 LINE",
"76 740 LINE",
"76 984 LINE",
"881 984 LINE"
);
}
);
width = 1042;
}
);
unicode = 20AD;
},
{
glyphname = peso;
lastChange = "2016-07-01 09:08:49 +0000";
layers = (
{
layerId = "32DFA59F-C132-4587-B43B-6A11C46F7A16";
paths = (
{
closed = 1;
nodes = (
"796 1592 OFFCURVE",
"908 1432 OFFCURVE",
"908 1029 CURVE SMOOTH",
"908 648 OFFCURVE",
"783 490 OFFCURVE",
"476 490 CURVE SMOOTH",
"390 490 LINE",
"390 0 LINE",
"134 0 LINE",
"134 1592 LINE",
"502 1592 LINE SMOOTH"
);
},
{
closed = 1;
nodes = (
"637 730 OFFCURVE",
"652 833 OFFCURVE",
"652 1032 CURVE SMOOTH",
"652 1236 OFFCURVE",
"629 1352 OFFCURVE",
"482 1352 CURVE SMOOTH",
"390 1352 LINE",
"390 730 LINE",
"465 730 LINE SMOOTH"
);
},
{
closed = 1;
nodes = (
"1008 1104 LINE",
"34 1104 LINE",
"34 1244 LINE",
"1008 1244 LINE"
);
},
{
closed = 1;
nodes = (
"1008 841 LINE",
"34 841 LINE",
"34 981 LINE",
"1008 981 LINE"
);
}
);
width = 1042;
}
);
unicode = 20B1;
},
{
glyphname = guarani;
lastChange = "2016-07-01 09:03:25 +0000";
layers = (
{
layerId = "32DFA59F-C132-4587-B43B-6A11C46F7A16";
paths = (
{
closed = 1;
nodes = (
"513 239 CURVE SMOOTH",
"651 239 OFFCURVE",
"658 317 OFFCURVE",
"658 415 CURVE SMOOTH",
"658 659 LINE",
"573 659 LINE",
"573 913 LINE",
"910 913 LINE",
"910 -2 LINE",
"787 -2 LINE",
"733 132 LINE",
"676 30 OFFCURVE",
"589 -21 OFFCURVE",
"471 -21 CURVE SMOOTH",
"242 -21 OFFCURVE",
"127 143 OFFCURVE",
"127 471 CURVE SMOOTH",
"127 1161 LINE SMOOTH",
"127 1455 OFFCURVE",
"261 1601 OFFCURVE",
"520 1601 CURVE SMOOTH",
"841 1601 OFFCURVE",
"914 1407 OFFCURVE",
"914 1052 CURVE",
"658 1052 LINE",
"658 1186 LINE SMOOTH",
"658 1284 OFFCURVE",
"627 1341 OFFCURVE",
"524 1341 CURVE SMOOTH",
"410 1341 OFFCURVE",
"383 1276 OFFCURVE",
"383 1123 CURVE SMOOTH",
"383 407 LINE SMOOTH",
"383 322 OFFCURVE",
"396 239 OFFCURVE"
);
},
{
closed = 1;
nodes = (
"583 1679 LINE",
"583 -113 LINE",
"448 -113 LINE",
"448 1679 LINE"
);
}
);
width = 1040;
},
{
associatedMasterId = "32DFA59F-C132-4587-B43B-6A11C46F7A16";
layerId = "5103DB0D-8559-4497-9A9A-6C3CA913110B";
name = "Condensed Jul 1 16, 14:16";
paths = (
{
closed = 1;
nodes = (
"542 289 CURVE SMOOTH",
"618 289 OFFCURVE",
"622 367 OFFCURVE",
"622 465 CURVE SMOOTH",
"622 649 LINE",
"537 649 LINE",
"537 923 LINE",
"921 923 LINE",
"921 -2 LINE",
"798 -2 LINE",
"744 132 LINE",
"687 30 OFFCURVE",
"600 -21 OFFCURVE",
"482 -21 CURVE SMOOTH",
"253 -21 OFFCURVE",
"138 143 OFFCURVE",
"138 471 CURVE SMOOTH",
"138 1161 LINE SMOOTH",
"138 1455 OFFCURVE",
"272 1601 OFFCURVE",
"531 1601 CURVE SMOOTH",
"852 1601 OFFCURVE",
"925 1407 OFFCURVE",
"925 1052 CURVE",
"622 1052 LINE",
"622 1176 LINE SMOOTH",
"622 1244 OFFCURVE",
"605 1291 OFFCURVE",
"546 1291 CURVE SMOOTH",
"444 1291 OFFCURVE",
"456 1188 OFFCURVE",
"456 1073 CURVE SMOOTH",
"456 457 LINE SMOOTH",
"456 372 OFFCURVE",
"465 289 OFFCURVE"
);
}
);
width = 982;
visible = 1;
}
);
unicode = 20B2;
},
{
glyphname = cedi;
lastChange = "2016-07-01 08:50:31 +0000";
layers = (
{
layerId = "32DFA59F-C132-4587-B43B-6A11C46F7A16";
paths = (
{
closed = 1;
nodes = (
"385 294 OFFCURVE",
"419 228 OFFCURVE",
"519 228 CURVE SMOOTH",
"616 228 OFFCURVE",
"655 301 OFFCURVE",
"655 408 CURVE SMOOTH",
"655 682 LINE",
"916 682 LINE",
"916 381 LINE SMOOTH",
"916 103 OFFCURVE",
"768 -21 OFFCURVE",
"521 -21 CURVE SMOOTH",
"285 -21 OFFCURVE",
"129 134 OFFCURVE",
"129 391 CURVE SMOOTH",
"129 1129 LINE SMOOTH",
"129 1437 OFFCURVE",
"247 1600 OFFCURVE",
"529 1600 CURVE SMOOTH",
"749 1600 OFFCURVE",
"909 1482 OFFCURVE",
"909 1232 CURVE SMOOTH",
"909 952 LINE",
"655 952 LINE",
"655 1136 LINE SMOOTH",
"655 1270 OFFCURVE",
"625 1340 OFFCURVE",
"521 1340 CURVE SMOOTH",
"405 1340 OFFCURVE",
"385 1267 OFFCURVE",
"385 1161 CURVE SMOOTH",
"385 408 LINE SMOOTH"
);
},
{
closed = 1;
nodes = (
"588 1679 LINE",
"588 -113 LINE",
"453 -113 LINE",
"453 1679 LINE"
);
}
);
width = 1044;
}
);
unicode = 20B5;
},
{
glyphname = rupeeIndian;
lastChange = "2016-07-01 09:22:57 +0000";
layers = (
{
layerId = "32DFA59F-C132-4587-B43B-6A11C46F7A16";
paths = (
{
closed = 1;
nodes = (
"721 1480 LINE",
"796 1399 OFFCURVE",
"822 1274 OFFCURVE",
"822 1109 CURVE SMOOTH",
"822 835 OFFCURVE",
"709 664 OFFCURVE",
"426 664 CURVE SMOOTH",
"362 664 LINE",
"354 763 LINE",
"864 0 LINE",
"574 0 LINE",
"128 664 LINE",
"128 884 LINE",
"387 884 LINE SMOOTH",
"541 884 OFFCURVE",
"566 963 OFFCURVE",
"566 1124 CURVE SMOOTH",
"566 1292 OFFCURVE",
"541 1366 OFFCURVE",
"387 1366 CURVE SMOOTH",
"128 1366 LINE",
"128 1586 LINE",
"915 1586 LINE",
"915 1366 LINE",
"708 1366 LINE"
);
},
{
closed = 1;
nodes = (
"915 1035 LINE",
"128 1035 LINE",
"128 1215 LINE",
"915 1215 LINE"
);
}
);
width = 1042;
}
);
unicode = 20B9;
},
{
glyphname = liraTurkish;
lastChange = "2016-07-01 09:31:03 +0000";
layers = (
{
layerId = "32DFA59F-C132-4587-B43B-6A11C46F7A16";
paths = (
{
closed = 1;
nodes = (
"438 240 LINE",
"606 240 LINE SMOOTH",
"667 240 OFFCURVE",
"698 275 OFFCURVE",
"698 350 CURVE SMOOTH",
"698 642 LINE",
"958 642 LINE",
"958 412 LINE SMOOTH",
"958 149 OFFCURVE",
"865 0 OFFCURVE",
"601 0 CURVE SMOOTH",
"182 0 LINE",
"182 1592 LINE",
"438 1592 LINE"
);
},
{
closed = 1;
nodes = (
"769 805 LINE",
"82 575 LINE",
"82 765 LINE",
"769 995 LINE"
);
},
{
closed = 1;
nodes = (
"769 1125 LINE",
"82 895 LINE",
"82 1085 LINE",
"769 1315 LINE"
);
}
);
width = 1039;
}
);
unicode = 20BA;
},
{
glyphname = manat;
lastChange = "2016-07-01 09:46:00 +0000";
layers = (
{
layerId = "32DFA59F-C132-4587-B43B-6A11C46F7A16";
paths = (
{
closed = 1;
nodes = (
"37 816 LINE SMOOTH",
"37 1169 OFFCURVE",
"207 1277 OFFCURVE",
"520 1277 CURVE SMOOTH",
"836 1277 OFFCURVE",
"1005 1169 OFFCURVE",
"1005 816 CURVE SMOOTH",
"1005 0 LINE SMOOTH",
"749 0 LINE",
"749 822 LINE SMOOTH",
"749 953 OFFCURVE",
"716 1037 OFFCURVE",
"520 1037 CURVE SMOOTH",
"341 1037 OFFCURVE",
"293 947 OFFCURVE",
"293 822 CURVE SMOOTH",
"293 0 LINE SMOOTH",
"37 0 LINE"
);
},
{
closed = 1;
nodes = (
"655 0 LINE SMOOTH",
"399 0 LINE",
"399 1593 LINE SMOOTH",
"655 1593 LINE"
);
}
);
width = 1042;
}
);
unicode = 20BC;
},
{
glyphname = ruble;
lastChange = "2016-07-01 09:38:23 +0000";
layers = (
{
layerId = "32DFA59F-C132-4587-B43B-6A11C46F7A16";
paths = (
{
closed = 1;
nodes = (
"541 590 LINE SMOOTH",
"826 590 OFFCURVE",
"942 737 OFFCURVE",
"942 1090 CURVE SMOOTH",
"942 1449 OFFCURVE",
"839 1592 OFFCURVE",
"567 1592 CURVE SMOOTH",
"199 1592 LINE",
"199 0 LINE",
"455 0 LINE",
"455 1352 LINE",
"542 1352 LINE SMOOTH",
"653 1352 OFFCURVE",
"686 1276 OFFCURVE",
"686 1093 CURVE SMOOTH",
"686 904 OFFCURVE",
"659 830 OFFCURVE",
"525 830 CURVE SMOOTH",
"99 830 LINE",
"99 590 LINE"
);
},
{
closed = 1;
nodes = (
"99 430 LINE",
"99 210 LINE",
"743 210 LINE",
"743 430 LINE"
);
}
);
width = 600;
}
);
unicode = 20BD;
},
{
glyphname = Omega;
lastChange = "2016-07-01 04:47:39 +0000";
layers = (
{
layerId = "32DFA59F-C132-4587-B43B-6A11C46F7A16";
paths = (
{
closed = 1;
nodes = (
"496 1607 CURVE SMOOTH",
"774 1607 OFFCURVE",
"920 1462 OFFCURVE",
"920 1189 CURVE SMOOTH",
"920 710 LINE SMOOTH",
"920 499 OFFCURVE",
"888 345 OFFCURVE",
"823 246 CURVE",
"945 246 LINE",
"945 0 LINE",
"529 0 LINE",
"529 247 LINE",
"604 285 OFFCURVE",
"581 431 OFFCURVE",
"581 581 CURVE SMOOTH",
"581 1211 LINE SMOOTH",
"581 1281 OFFCURVE",
"565 1335 OFFCURVE",
"496 1335 CURVE SMOOTH",
"427 1335 OFFCURVE",
"411 1281 OFFCURVE",
"411 1211 CURVE SMOOTH",
"411 581 LINE SMOOTH",
"411 441 OFFCURVE",
"399 282 OFFCURVE",
"463 247 CURVE",
"463 0 LINE",
"47 0 LINE",
"47 246 LINE",
"169 246 LINE",
"104 345 OFFCURVE",
"72 499 OFFCURVE",
"72 710 CURVE SMOOTH",
"72 1189 LINE SMOOTH",
"72 1462 OFFCURVE",
"218 1607 OFFCURVE"
);
}
);
width = 992;
}
);
unicode = 03A9;
userData = {
com.typemytype.robofont.layerData = {
};
};
},
{
glyphname = pi;
lastChange = "2016-07-01 04:47:39 +0000";
layers = (
{
layerId = "32DFA59F-C132-4587-B43B-6A11C46F7A16";
paths = (
{
closed = 1;
nodes = (
"420 1500 LINE",
"420 0 LINE",
"62 0 LINE",
"62 1500 LINE"
);
}
);
width = 482;
}
);
unicode = 03C0;
userData = {
com.typemytype.robofont.layerData = {
};
};
},
{
glyphname = uni2074;
lastChange = "2016-07-01 04:47:39 +0000";
layers = (
{
layerId = "32DFA59F-C132-4587-B43B-6A11C46F7A16";
paths = (
{
closed = 1;
nodes = (
"540 1592 LINE",
"540 973 LINE",
"579 973 LINE",
"579 802 LINE",
"540 802 LINE",
"540 650 LINE",
"333 650 LINE",
"333 802 LINE",
"30 802 LINE",
"30 951 LINE",
"217 1592 LINE"
);
},
{
closed = 1;
nodes = (
"333 973 LINE",
"333 1378 LINE",
"223 973 LINE"
);
}
);
width = 627;
}
);
unicode = 2074;
userData = {
com.typemytype.robofont.layerData = {
};
};
},
{
glyphname = infinity;
lastChange = "2016-07-01 04:47:39 +0000";
layers = (
{
layerId = "32DFA59F-C132-4587-B43B-6A11C46F7A16";
paths = (
{
closed = 1;
nodes = (
"48 744 CURVE SMOOTH",
"48 920 OFFCURVE",
"140 1028 OFFCURVE",
"310 1028 CURVE SMOOTH",
"405 1028 OFFCURVE",
"494 980 OFFCURVE",
"579 885 CURVE",
"663 989 OFFCURVE",
"754 1041 OFFCURVE",
"852 1041 CURVE SMOOTH",
"1028 1041 OFFCURVE",
"1122 927 OFFCURVE",
"1122 744 CURVE SMOOTH",
"1122 559 OFFCURVE",
"1030 439 OFFCURVE",
"852 439 CURVE SMOOTH",
"727 439 OFFCURVE",
"636 512 OFFCURVE",
"579 585 CURVE",
"523 522 OFFCURVE",
"422 452 OFFCURVE",
"310 452 CURVE SMOOTH",
"136 452 OFFCURVE",
"48 564 OFFCURVE"
);
},
{
closed = 1;
nodes = (
"793 669 CURVE SMOOTH",
"856 669 OFFCURVE",
"888 693 OFFCURVE",
"888 740 CURVE SMOOTH",
"888 787 OFFCURVE",
"856 811 OFFCURVE",
"793 811 CURVE SMOOTH",
"742 811 OFFCURVE",
"692 787 OFFCURVE",
"641 740 CURVE",
"688 693 OFFCURVE",
"739 669 OFFCURVE"
);
},
{
closed = 1;
nodes = (
"517 740 CURVE",
"469 787 OFFCURVE",
"421 810 OFFCURVE",
"373 810 CURVE SMOOTH",
"314 810 OFFCURVE",
"284 787 OFFCURVE",
"284 740 CURVE SMOOTH",
"284 693 OFFCURVE",
"314 669 OFFCURVE",
"373 669 CURVE SMOOTH",
"420 669 OFFCURVE",
"468 693 OFFCURVE"
);
}
);
width = 1171;
}
);
unicode = 221E;
userData = {
com.typemytype.robofont.layerData = {
};
};
},
{
glyphname = integral;
lastChange = "2016-07-01 04:47:39 +0000";
layers = (
{
layerId = "32DFA59F-C132-4587-B43B-6A11C46F7A16";
paths = (
{
closed = 1;
nodes = (
"529 1362 CURVE SMOOTH",
"480 1362 OFFCURVE",
"474 1332 OFFCURVE",
"474 1281 CURVE SMOOTH",
"474 195 LINE SMOOTH",
"474 35 OFFCURVE",
"403 -47 OFFCURVE",
"239 -47 CURVE SMOOTH",
"154 -47 OFFCURVE",
"86 -37 OFFCURVE",
"35 -18 CURVE",
"35 203 LINE",
"54 200 OFFCURVE",
"68 198 OFFCURVE",
"78 198 CURVE SMOOTH",
"126 198 OFFCURVE",
"126 231 OFFCURVE",
"126 279 CURVE SMOOTH",
"126 1365 LINE SMOOTH",
"126 1528 OFFCURVE",
"201 1607 OFFCURVE",
"368 1607 CURVE SMOOTH",
"453 1607 OFFCURVE",
"521 1597 OFFCURVE",
"572 1578 CURVE",
"572 1357 LINE",
"553 1360 OFFCURVE",
"539 1362 OFFCURVE"
);
}
);
width = 606;
}
);
unicode = 222B;
userData = {
com.typemytype.robofont.layerData = {
};
};
},
{
glyphname = uni2206;
lastChange = "2016-07-01 04:47:39 +0000";
layers = (
{
layerId = "32DFA59F-C132-4587-B43B-6A11C46F7A16";
paths = (
{
closed = 1;
nodes = (
"34 0 LINE",
"217 1353 LINE",
"708 1353 LINE",
"887 0 LINE"
);
},
{
closed = 1;
nodes = (
"376 230 LINE",
"542 230 LINE",
"475 1044 LINE",
"443 1044 LINE"
);
}
);
width = 921;
}
);
unicode = 2206;
userData = {
com.typemytype.robofont.layerData = {
};
};
},
{
glyphname = product;
lastChange = "2016-07-01 04:47:39 +0000";
layers = (
{
layerId = "32DFA59F-C132-4587-B43B-6A11C46F7A16";
paths = (
{
closed = 1;
nodes = (
"62 0 LINE",
"62 1593 LINE",
"928 1593 LINE",
"928 0 LINE",
"578 0 LINE",
"578 1292 LINE",
"412 1292 LINE",
"412 0 LINE"
);
}
);
width = 990;
}
);
unicode = 220F;
userData = {
com.typemytype.robofont.layerData = {
};
};
},
{
glyphname = summation;
lastChange = "2016-07-01 04:47:39 +0000";
layers = (
{
layerId = "32DFA59F-C132-4587-B43B-6A11C46F7A16";
paths = (
{
closed = 1;
nodes = (
"43 0 LINE",
"43 272 LINE",
"253 751 LINE",
"43 1229 LINE",
"43 1501 LINE",
"807 1501 LINE",
"807 1200 LINE",
"415 1200 LINE",
"628 751 LINE",
"415 301 LINE",
"807 301 LINE",
"807 0 LINE"
);
}
);
width = 849;
}
);
unicode = 2211;
userData = {
com.typemytype.robofont.layerData = {
};
};
},
{
glyphname = radical;
lastChange = "2016-07-01 04:47:39 +0000";
layers = (
{
layerId = "32DFA59F-C132-4587-B43B-6A11C46F7A16";
paths = (
{
closed = 1;
nodes = (
"412 338 LINE",
"549 1500 LINE",
"551 1501 LINE",
"1382 1501 LINE",
"1382 1269 LINE",
"858 1269 LINE",
"652 0 LINE",
"248 0 LINE",
"29 741 LINE",
"298 741 LINE"
);
}
);
width = 1417;
}
);
unicode = 221A;
userData = {
com.typemytype.robofont.layerData = {
};
};
},
{
glyphname = partialdiff;
lastChange = "2016-07-01 04:47:39 +0000";
layers = (
{
layerId = "32DFA59F-C132-4587-B43B-6A11C46F7A16";
paths = (
{
closed = 1;
nodes = (
"507 1415 CURVE SMOOTH",
"432 1415 OFFCURVE",
"334 1396 OFFCURVE",
"283 1376 CURVE",
"229 1607 LINE",
"383 1656 OFFCURVE",
"513 1681 OFFCURVE",
"619 1681 CURVE SMOOTH",
"928 1681 OFFCURVE",
"1030 1479 OFFCURVE",
"1030 1159 CURVE SMOOTH",
"1030 1074 OFFCURVE",
"977 354 OFFCURVE",
"890 196 CURVE SMOOTH",
"811 54 OFFCURVE",
"669 -21 OFFCURVE",
"446 -21 CURVE SMOOTH",
"158 -21 OFFCURVE",
"37 127 OFFCURVE",
"37 413 CURVE SMOOTH",
"37 735 OFFCURVE",
"123 1086 OFFCURVE",
"445 1086 CURVE SMOOTH",
"508 1086 OFFCURVE",
"577 1073 OFFCURVE",
"654 1047 CURVE",
"661 1093 OFFCURVE",
"665 1132 OFFCURVE",
"665 1164 CURVE SMOOTH",
"665 1306 OFFCURVE",
"626 1415 OFFCURVE"
);
},
{
closed = 1;
nodes = (
"417 391 CURVE SMOOTH",
"417 332 OFFCURVE",
"432 293 OFFCURVE",
"490 293 CURVE SMOOTH",
"556 293 OFFCURVE",
"585 349 OFFCURVE",
"591 419 CURVE SMOOTH",
"622 759 LINE",
"589 782 OFFCURVE",
"560 794 OFFCURVE",
"534 794 CURVE SMOOTH",
"481 794 OFFCURVE",
"450 744 OFFCURVE",
"440 645 CURVE SMOOTH",
"423 475 LINE SMOOTH",
"419 439 OFFCURVE",
"417 411 OFFCURVE"
);
}
);
width = 1072;
}
);
unicode = 2202;
userData = {
com.typemytype.robofont.layerData = {
};
};
},
{
glyphname = lozenge;
lastChange = "2016-07-01 04:47:39 +0000";
layers = (
{
layerId = "32DFA59F-C132-4587-B43B-6A11C46F7A16";
paths = (
{
closed = 1;
nodes = (
"475 1247 LINE",
"443 1247 LINE",
"309 713 LINE",
"443 179 LINE",
"475 179 LINE",
"609 713 LINE"
);
},
{
closed = 1;
nodes = (
"708 0 LINE",
"217 0 LINE",
"34 713 LINE",
"217 1436 LINE",
"708 1436 LINE",
"887 713 LINE"
);
}
);
width = 921;
}
);
unicode = 25CA;
userData = {
com.typemytype.robofont.layerData = {
};
};
},
